STARTFONT 2.1
COMMENT
COMMENT Converted from TrueType font "BOOKOS.ttf" by "ttf2bdf 2.6".
COMMENT
FONT -FreeType-Bookman Old Style-Medium-R-Normal--25-180-100-100-P-139-ISO10646-1
SIZE 18 100 100
FONTBOUNDINGBOX 38 33 -4 -8
STARTPROPERTIES 21
FOUNDRY "FreeType"
FAMILY_NAME "Bookman Old Style"
WEIGHT_NAME "Medium"
SLANT "R"
SETWIDTH_NAME "Normal"
ADD_STYLE_NAME ""
PIXEL_SIZE 25
POINT_SIZE 180
RESOLUTION_X 100
RESOLUTION_Y 100
SPACING "P"
AVERAGE_WIDTH 139
CHARSET_REGISTRY "ISO10646"
CHARSET_ENCODING "1"
FONT_ASCENT 23
FONT_DESCENT 5
COPYRIGHT "Digitized data copyright The Monotype Corporation 1991-1995. All rights reserved. Bookman Old Style" is a trademark of The Monotype Corporation which may be registered in certain jurisdictions."
_TTF_FONTFILE "BOOKOS.ttf"
_TTF_PSNAME "BookmanOldStyle"
_XFREE86_GLYPH_RANGES "32_126 160_383 402 506_511 710_711 713 728_733 894 900_906 908 910_929 931_974 1025_1036 1038_1103 1105_1116 1118_1119 1168_1169 7808_7813 7922_7923 8211_8213 8215_8222 8224_8226 8230 8240 8242_8243 8249_8250 8252 8254 8260 8319 8355_8356 8359 8364 8453 8467 8470 8482 8486 8494 8539_8542 8592_8597 8616 8706 8710 8719 8721_8722 8725 8729_8730 8734_8735 8745 8747 8776 8800_8801 8804_8805 8962 8976 8992_8993 9472 9474 9484 9488 9492 9496 9500 9508 9516 9524 9532 9552_9580 9600 9604 9608"
_XFREE86_GLYPH_RANGES "9612 9616_9619 9632_9633 9642_9644 9650 9658 9660 9668 9674_9675 9679 9688_9689 9702 9786_9788 9792 9794 9824 9827 9829_9830 9834_9835 61440_61449 61696_61704 64257_64258"
ENDPROPERTIES
CHARS 671
STARTCHAR 0020
ENCODING 32
SWIDTH 320 0
DWIDTH 8 0
BBX 1 1 0 0
BITMAP
00
ENDCHAR
STARTCHAR 0021
ENCODING 33
SWIDTH 320 0
DWIDTH 8 0
BBX 2 17 2 0
BITMAP
C0
C0
C0
C0
C0
C0
C0
40
40
40
40
40
40
00
C0
C0
C0
ENDCHAR
STARTCHAR 0022
ENCODING 34
SWIDTH 400 0
DWIDTH 10 0
BBX 6 7 1 10
BITMAP
CC
CC
CC
CC
44
44
44
ENDCHAR
STARTCHAR 0023
ENCODING 35
SWIDTH 600 0
DWIDTH 15 0
BBX 12 17 1 0
BITMAP
0C60
0C60
0C60
0C60
1CE0
7FF0
7FF0
18C0
18C0
18C0
FFF0
FFF0
18C0
3180
3180
3180
3180
ENDCHAR
STARTCHAR 0024
ENCODING 36
SWIDTH 640 0
DWIDTH 16 0
BBX 13 23 1 -3
BITMAP
0200
0200
0200
1FA0
72F0
C230
C230
C210
E200
7A00
3F00
07E0
03F0
0238
8218
C218
E218
7230
5A70
47C0
0200
0200
0200
ENDCHAR
STARTCHAR 0025
ENCODING 37
SWIDTH 1000 0
DWIDTH 25 0
BBX 23 17 1 0
BITMAP
3E0060
6300C0
C18180
C18300
C18300
C18600
C18C00
631800
3E18F8
00318C
006306
00E306
00C306
018306
030306
03018C
0600F8
ENDCHAR
STARTCHAR 0026
ENCODING 38
SWIDTH 800 0
DWIDTH 20 0
BBX 18 17 1 0
BITMAP
0F0000
198000
30C000
30C000
30C000
198000
0F1F80
1B0600
618400
60CC00
C0EC00
C06980
C079C0
C030C0
6078C0
30D880
1F0F00
ENDCHAR
STARTCHAR 0027
ENCODING 39
SWIDTH 240 0
DWIDTH 6 0
BBX 2 7 1 10
BITMAP
C0
C0
C0
C0
40
40
40
ENDCHAR
STARTCHAR 0028
ENCODING 40
SWIDTH 320 0
DWIDTH 8 0
BBX 4 24 2 -6
BITMAP
10
30
60
60
60
C0
C0
C0
C0
C0
C0
C0
C0
C0
C0
C0
C0
C0
40
40
60
60
30
10
ENDCHAR
STARTCHAR 0029
ENCODING 41
SWIDTH 320 0
DWIDTH 8 0
BBX 4 24 1 -6
BITMAP
80
C0
60
60
60
20
30
30
30
30
30
30
30
30
30
30
30
30
30
60
60
60
C0
80
ENDCHAR
STARTCHAR 002A
ENCODING 42
SWIDTH 440 0
DWIDTH 11 0
BBX 8 8 1 9
BITMAP
18
18
18
F7
1E
3C
66
66
ENDCHAR
STARTCHAR 002B
ENCODING 43
SWIDTH 600 0
DWIDTH 15 0
BBX 12 12 1 3
BITMAP
0600
0600
0600
0600
0600
FFF0
FFF0
0600
0600
0600
0600
0600
ENDCHAR
STARTCHAR 002C
ENCODING 44
SWIDTH 320 0
DWIDTH 8 0
BBX 4 7 2 -4
BITMAP
60
70
70
10
20
40
80
ENDCHAR
STARTCHAR 002D
ENCODING 45
SWIDTH 400 0
DWIDTH 10 0
BBX 7 2 1 5
BITMAP
FE
FE
ENDCHAR
STARTCHAR 002E
ENCODING 46
SWIDTH 320 0
DWIDTH 8 0
BBX 2 3 3 0
BITMAP
C0
C0
C0
ENDCHAR
STARTCHAR 002F
ENCODING 47
SWIDTH 600 0
DWIDTH 15 0
BBX 10 23 2 -5
BITMAP
00C0
00C0
01C0
0180
0180
0300
0300
0300
0600
0600
0E00
0C00
0C00
1800
1800
1800
3000
3000
7000
6000
6000
E000
C000
ENDCHAR
STARTCHAR 0030
ENCODING 48
SWIDTH 640 0
DWIDTH 16 0
BBX 13 17 1 0
BITMAP
0F80
18C0
3060
6030
6030
C018
C018
C018
C018
C018
C018
C018
4030
6030
3060
38C0
0F80
ENDCHAR
STARTCHAR 0031
ENCODING 49
SWIDTH 640 0
DWIDTH 16 0
BBX 8 17 4 0
BITMAP
18
F8
18
18
18
18
18
18
18
18
18
18
18
18
18
18
FF
ENDCHAR
STARTCHAR 0032
ENCODING 50
SWIDTH 640 0
DWIDTH 16 0
BBX 13 18 1 -1
BITMAP
0FC0
3060
4030
C018
8018
8018
8018
0030
0030
0060
00C0
0300
0600
0808
3008
7FF8
FFF0
0010
ENDCHAR
STARTCHAR 0033
ENCODING 51
SWIDTH 640 0
DWIDTH 16 0
BBX 13 17 1 0
BITMAP
0F80
10E0
2030
4030
4030
0030
00E0
0780
0060
0030
0018
0018
C018
E018
6030
3060
1F80
ENDCHAR
STARTCHAR 0034
ENCODING 52
SWIDTH 640 0
DWIDTH 16 0
BBX 13 17 1 0
BITMAP
00C0
01C0
03C0
06C0
0CC0
18C0
30C0
70C0
60C0
C0C0
FFF8
00C0
00C0
00C0
00C0
00C0
00C0
ENDCHAR
STARTCHAR 0035
ENCODING 53
SWIDTH 640 0
DWIDTH 16 0
BBX 13 18 2 0
BITMAP
0010
7FF0
7FF0
4000
4000
4000
4000
7F80
40E0
0030
0038
0018
0018
C018
E018
6030
7060
1F80
ENDCHAR
STARTCHAR 0036
ENCODING 54
SWIDTH 640 0
DWIDTH 16 0
BBX 13 17 1 0
BITMAP
03E0
0E00
1800
3000
6000
4000
CFC0
D060
E030
C018
C018
C018
C018
4018
6030
3060
0F80
ENDCHAR
STARTCHAR 0037
ENCODING 55
SWIDTH 640 0
DWIDTH 16 0
BBX 13 18 1 0
BITMAP
4000
7FF8
7FF8
C010
8020
8040
00C0
0080
0180
0100
0300
0200
0600
0600
0600
0C00
0C00
0C00
ENDCHAR
STARTCHAR 0038
ENCODING 56
SWIDTH 640 0
DWIDTH 16 0
BBX 13 17 1 0
BITMAP
0F80
38E0
6030
6030
6030
7060
3CE0
1F80
0FE0
30F0
6038
C018
C018
C018
6030
3060
1F80
ENDCHAR
STARTCHAR 0039
ENCODING 57
SWIDTH 640 0
DWIDTH 16 0
BBX 13 17 1 0
BITMAP
1F80
3060
6030
C010
C018
C018
C018
C018
6038
3058
1F98
0030
0030
0060
00C0
0380
3E00
ENDCHAR
STARTCHAR 003A
ENCODING 58
SWIDTH 320 0
DWIDTH 8 0
BBX 2 12 3 0
BITMAP
C0
C0
C0
00
00
00
00
00
00
C0
C0
C0
ENDCHAR
STARTCHAR 003B
ENCODING 59
SWIDTH 320 0
DWIDTH 8 0
BBX 4 16 2 -4
BITMAP
60
60
60
00
00
00
00
00
00
60
70
70
10
20
40
80
ENDCHAR
STARTCHAR 003C
ENCODING 60
SWIDTH 600 0
DWIDTH 15 0
BBX 11 11 2 2
BITMAP
0020
01E0
0FC0
3E00
F800
C000
F800
3E00
0FC0
01E0
0020
ENDCHAR
STARTCHAR 003D
ENCODING 61
SWIDTH 600 0
DWIDTH 15 0
BBX 12 6 1 6
BITMAP
FFF0
FFF0
0000
0000
FFF0
FFF0
ENDCHAR
STARTCHAR 003E
ENCODING 62
SWIDTH 600 0
DWIDTH 15 0
BBX 11 11 2 2
BITMAP
8000
F000
7E00
0F80
03E0
0060
03E0
0F80
7E00
F000
8000
ENDCHAR
STARTCHAR 003F
ENCODING 63
SWIDTH 560 0
DWIDTH 14 0
BBX 12 17 1 0
BITMAP
3F00
70C0
E060
C030
0030
0030
0030
0060
01C0
1F00
1800
1800
1800
0000
1800
1800
1800
ENDCHAR
STARTCHAR 0040
ENCODING 64
SWIDTH 840 0
DWIDTH 21 0
BBX 22 23 -1 -6
BITMAP
007E00
038180
040060
180030
100010
203818
606708
40C308
C18308
838208
830608
870610
860610
860C30
861C20
862CC0
43CF04
400008
200008
100030
080060
070180
01FE00
ENDCHAR
STARTCHAR 0041
ENCODING 65
SWIDTH 680 0
DWIDTH 17 0
BBX 17 17 -1 0
BITMAP
01C000
01C000
036000
036000
036000
063000
063000
063000
0C1800
0C1800
0FF800
180C00
180C00
180C00
300600
300600
FC1F80
ENDCHAR
STARTCHAR 0042
ENCODING 66
SWIDTH 760 0
DWIDTH 19 0
BBX 17 17 1 0
BITMAP
FFF800
300E00
300700
300300
300300
300300
300600
300E00
3FF800
300600
300300
300180
300180
300180
300300
300600
FFFC00
ENDCHAR
STARTCHAR 0043
ENCODING 67
SWIDTH 760 0
DWIDTH 19 0
BBX 16 17 1 0
BITMAP
07E4
1C3C
300C
2004
6006
C002
C000
C000
C000
C000
C000
C000
6001
7002
3804
1C18
07E0
ENDCHAR
STARTCHAR 0044
ENCODING 68
SWIDTH 800 0
DWIDTH 20 0
BBX 17 17 2 0
BITMAP
FFE000
301800
300E00
300600
300300
300100
300180
300180
300180
300180
300180
300180
300300
300300
300600
301C00
FFF000
ENDCHAR
STARTCHAR 0045
ENCODING 69
SWIDTH 680 0
DWIDTH 17 0
BBX 14 17 2 0
BITMAP
FFF0
3030
3010
3018
3008
3080
3080
3180
3F80
3180
3080
3084
3004
3008
3018
3038
FFF0
ENDCHAR
STARTCHAR 0046
ENCODING 70
SWIDTH 640 0
DWIDTH 16 0
BBX 14 17 2 0
BITMAP
FFF8
3018
300C
300C
3004
3040
3040
30C0
3FC0
30C0
3040
3040
3000
3000
3000
3000
FC00
ENDCHAR
STARTCHAR 0047
ENCODING 71
SWIDTH 800 0
DWIDTH 20 0
BBX 18 17 1 0
BITMAP
03F200
0C1E00
380600
300200
600300
600100
C00000
C00000
C00000
C01FC0
C00300
600300
600300
300300
380700
0E0F00
03F900
ENDCHAR
STARTCHAR 0048
ENCODING 72
SWIDTH 800 0
DWIDTH 20 0
BBX 16 17 2 0
BITMAP
FC3F
300C
300C
300C
300C
300C
300C
300C
3FFC
300C
300C
300C
300C
300C
300C
300C
FC3F
ENDCHAR
STARTCHAR 0049
ENCODING 73
SWIDTH 360 0
DWIDTH 9 0
BBX 6 17 1 0
BITMAP
FC
30
30
30
30
30
30
30
30
30
30
30
30
30
30
30
FC
ENDCHAR
STARTCHAR 004A
ENCODING 74
SWIDTH 600 0
DWIDTH 15 0
BBX 14 17 0 0
BITMAP
00FC
0030
0030
0030
0030
0030
0030
0030
0030
0030
C030
C030
C030
C030
4060
20C0
1F80
ENDCHAR
STARTCHAR 004B
ENCODING 75
SWIDTH 720 0
DWIDTH 18 0
BBX 16 17 2 0
BITMAP
FC3E
3018
3010
3020
3040
3080
3100
3300
3780
3980
38C0
3060
3070
3030
3018
301C
FC7F
ENDCHAR
STARTCHAR 004C
ENCODING 76
SWIDTH 600 0
DWIDTH 15 0
BBX 13 17 2 0
BITMAP
FC00
3000
3000
3000
3000
3000
3000
3000
3000
3000
3000
3008
3018
3010
3030
3070
FFE0
ENDCHAR
STARTCHAR 004D
ENCODING 77
SWIDTH 920 0
DWIDTH 23 0
BBX 20 17 2 0
BITMAP
F803F0
3C03C0
3C03C0
3402C0
3606C0
3606C0
3304C0
330CC0
310CC0
3188C0
3088C0
30D8C0
30D0C0
3050C0
3070C0
3020C0
FC23F0
ENDCHAR
STARTCHAR 004E
ENCODING 78
SWIDTH 760 0
DWIDTH 19 0
BBX 17 17 1 0
BITMAP
F81F80
3C0600
3E0600
360600
330600
330600
318600
31C600
30C600
306600
307600
303600
303E00
301E00
300E00
300E00
FC0600
ENDCHAR
STARTCHAR 004F
ENCODING 79
SWIDTH 800 0
DWIDTH 20 0
BBX 18 17 1 0
BITMAP
03F000
0C0C00
180300
300180
600180
6001C0
C000C0
C000C0
C000C0
C000C0
C000C0
C001C0
600180
700300
380700
0C0C00
03F000
ENDCHAR
STARTCHAR 0050
ENCODING 80
SWIDTH 640 0
DWIDTH 16 0
BBX 14 17 2 0
BITMAP
FFE0
3038
301C
300C
300C
300C
3018
3038
3FE0
3000
3000
3000
3000
3000
3000
3000
FC00
ENDCHAR
STARTCHAR 0051
ENCODING 81
SWIDTH 800 0
DWIDTH 20 0
BBX 18 21 1 -4
BITMAP
03F000
0C0C00
180300
300180
600180
6001C0
C000C0
C000C0
C000C0
C000C0
C000C0
C001C0
600180
300300
380700
0C0C00
03F000
00C000
00C000
006180
003E00
ENDCHAR
STARTCHAR 0052
ENCODING 82
SWIDTH 720 0
DWIDTH 18 0
BBX 16 17 2 0
BITMAP
FFF0
301C
300E
3006
3006
3006
300C
301C
3FF0
3180
30C0
3060
3070
3038
3018
300C
FC07
ENDCHAR
STARTCHAR 0053
ENCODING 83
SWIDTH 680 0
DWIDTH 17 0
BBX 13 17 2 0
BITMAP
1F20
61E0
C060
C030
C030
E010
7000
3E00
0FC0
01F0
0038
8018
C018
C018
6030
5860
4FC0
ENDCHAR
STARTCHAR 0054
ENCODING 84
SWIDTH 640 0
DWIDTH 16 0
BBX 16 18 0 0
BITMAP
2004
7FFC
718E
4182
C182
8181
0180
0180
0180
0180
0180
0180
0180
0180
0180
0180
0180
07E0
ENDCHAR
STARTCHAR 0055
ENCODING 85
SWIDTH 800 0
DWIDTH 20 0
BBX 18 17 1 0
BITMAP
FC0FC0
300300
300300
300300
300300
300300
300300
300300
300300
300300
300300
300300
300300
300600
180600
0E1C00
03F000
ENDCHAR
STARTCHAR 0056
ENCODING 86
SWIDTH 720 0
DWIDTH 18 0
BBX 17 17 1 0
BITMAP
FC1F80
700700
300600
300600
180C00
180C00
1C1C00
0C1800
0C1800
063000
063000
077000
036000
036000
01C000
01C000
01C000
ENDCHAR
STARTCHAR 0057
ENCODING 87
SWIDTH 960 0
DWIDTH 24 0
BBX 23 17 0 0
BITMAP
FCFC3E
30700C
303018
303018
183018
183830
183830
0C7830
0C6C60
0C6C60
046C60
06C6C0
06C6C0
028280
038380
038380
010100
ENDCHAR
STARTCHAR 0058
ENCODING 88
SWIDTH 720 0
DWIDTH 18 0
BBX 18 17 0 0
BITMAP
7E0F80
180700
1C0600
0C0C00
061800
033000
03E000
01E000
00C000
01E000
037000
063800
0E1800
0C0C00
180600
300700
FC1FC0
ENDCHAR
STARTCHAR 0059
ENCODING 89
SWIDTH 640 0
DWIDTH 16 0
BBX 16 17 0 0
BITMAP
FC1F
380E
180C
1C18
0C18
0E30
0660
0360
03C0
0180
0180
0180
0180
0180
0180
0180
07E0
ENDCHAR
STARTCHAR 005A
ENCODING 90
SWIDTH 640 0
DWIDTH 16 0
BBX 15 17 1 0
BITMAP
3FFC
7818
6038
C030
0060
00C0
01C0
0180
0300
0600
0E00
0C02
1806
3004
700C
603C
FFF8
ENDCHAR
STARTCHAR 005B
ENCODING 91
SWIDTH 320 0
DWIDTH 8 0
BBX 4 24 3 -6
BITMAP
F0
C0
C0
C0
C0
C0
C0
C0
C0
C0
C0
C0
C0
C0
C0
C0
C0
C0
C0
C0
C0
C0
C0
F0
ENDCHAR
STARTCHAR 005C
ENCODING 92
SWIDTH 600 0
DWIDTH 15 0
BBX 10 23 3 -5
BITMAP
C000
C000
C000
6000
6000
6000
3000
3000
3800
1800
1800
0C00
0C00
0C00
0600
0600
0600
0300
0300
0380
0180
0180
00C0
ENDCHAR
STARTCHAR 005D
ENCODING 93
SWIDTH 320 0
DWIDTH 8 0
BBX 4 24 1 -6
BITMAP
F0
30
30
30
30
30
30
30
30
30
30
30
30
30
30
30
30
30
30
30
30
30
30
F0
ENDCHAR
STARTCHAR 005E
ENCODING 94
SWIDTH 600 0
DWIDTH 15 0
BBX 11 10 2 7
BITMAP
0E00
0E00
1B00
1B00
3180
3180
60C0
60C0
C060
C060
ENDCHAR
STARTCHAR 005F
ENCODING 95
SWIDTH 520 0
DWIDTH 13 0
BBX 13 1 0 -3
BITMAP
FFF8
ENDCHAR
STARTCHAR 0060
ENCODING 96
SWIDTH 360 0
DWIDTH 9 0
BBX 5 3 1 14
BITMAP
C0
F0
18
ENDCHAR
STARTCHAR 0061
ENCODING 97
SWIDTH 600 0
DWIDTH 15 0
BBX 14 12 1 0
BITMAP
1F80
30C0
6060
6060
0060
07E0
3C60
6060
C060
C0E0
E3E0
3E3C
ENDCHAR
STARTCHAR 0062
ENCODING 98
SWIDTH 640 0
DWIDTH 16 0
BBX 14 18 0 0
BITMAP
3000
F000
3000
3000
3000
3000
33E0
3430
3818
300C
300C
300C
300C
300C
3018
3818
3430
23E0
ENDCHAR
STARTCHAR 0063
ENCODING 99
SWIDTH 520 0
DWIDTH 13 0
BBX 11 12 1 0
BITMAP
0F80
30C0
60E0
C060
C000
C000
C000
C000
C020
6040
3080
1F00
ENDCHAR
STARTCHAR 0064
ENCODING 100
SWIDTH 640 0
DWIDTH 16 0
BBX 14 18 1 0
BITMAP
0030
00F0
0030
0030
0030
0030
1F30
30B0
6070
6030
C030
C030
C030
C030
C030
6070
30B0
1F3C
ENDCHAR
STARTCHAR 0065
ENCODING 101
SWIDTH 520 0
DWIDTH 13 0
BBX 11 12 1 0
BITMAP
1F00
30C0
6040
C060
FFE0
C000
C000
C000
C020
6060
30C0
1F00
ENDCHAR
STARTCHAR 0066
ENCODING 102
SWIDTH 320 0
DWIDTH 8 0
BBX 9 18 1 0
BITMAP
0F00
1380
3180
3000
3000
3000
FC00
3000
3000
3000
3000
3000
3000
3000
3000
3000
3000
FC00
ENDCHAR
STARTCHAR 0067
ENCODING 103
SWIDTH 560 0
DWIDTH 14 0
BBX 11 17 2 -5
BITMAP
3E60
6380
C180
C180
C180
C180
6300
7E00
C000
E000
7F00
2FC0
60E0
C060
C060
E0C0
3F00
ENDCHAR
STARTCHAR 0068
ENCODING 104
SWIDTH 680 0
DWIDTH 17 0
BBX 15 18 1 0
BITMAP
3000
F000
3000
3000
3000
3000
33E0
3430
3818
3018
3018
3018
3018
3018
3018
3018
3018
FC7E
ENDCHAR
STARTCHAR 0069
ENCODING 105
SWIDTH 320 0
DWIDTH 8 0
BBX 6 18 1 0
BITMAP
30
30
30
00
00
00
30
F0
30
30
30
30
30
30
30
30
30
FC
ENDCHAR
STARTCHAR 006A
ENCODING 106
SWIDTH 320 0
DWIDTH 8 0
BBX 7 23 -2 -5
BITMAP
06
06
06
00
00
00
06
1E
06
06
06
06
06
06
06
06
06
06
06
06
06
C4
78
ENDCHAR
STARTCHAR 006B
ENCODING 107
SWIDTH 640 0
DWIDTH 16 0
BBX 15 18 1 0
BITMAP
3000
F000
3000
3000
3000
3000
30FC
3070
30E0
3180
3700
3F00
3980
30C0
3060
3030
3038
FCFE
ENDCHAR
STARTCHAR 006C
ENCODING 108
SWIDTH 320 0
DWIDTH 8 0
BBX 6 18 1 0
BITMAP
30
F0
30
30
30
30
30
30
30
30
30
30
30
30
30
30
30
FC
ENDCHAR
STARTCHAR 006D
ENCODING 109
SWIDTH 960 0
DWIDTH 24 0
BBX 22 12 1 0
BITMAP
33C3E0
F47470
383830
303030
303030
303030
303030
303030
303030
303030
303030
FCFCFC
ENDCHAR
STARTCHAR 006E
ENCODING 110
SWIDTH 680 0
DWIDTH 17 0
BBX 15 12 1 0
BITMAP
33E0
F430
3818
3018
3018
3018
3018
3018
3018
3018
3018
FC7E
ENDCHAR
STARTCHAR 006F
ENCODING 111
SWIDTH 560 0
DWIDTH 14 0
BBX 12 12 1 0
BITMAP
1F80
30C0
6060
C030
C030
C030
C030
C030
C030
6060
30C0
1F80
ENDCHAR
STARTCHAR 0070
ENCODING 112
SWIDTH 640 0
DWIDTH 16 0
BBX 14 17 1 -5
BITMAP
33E0
F430
3818
300C
300C
300C
300C
300C
3008
3818
3430
33E0
3000
3000
3000
3000
FC00
ENDCHAR
STARTCHAR 0071
ENCODING 113
SWIDTH 600 0
DWIDTH 15 0
BBX 14 17 1 -5
BITMAP
1F10
30B0
6070
E030
C030
C030
C030
C030
C030
6070
30B0
1F30
0030
0030
0030
0030
00FC
ENDCHAR
STARTCHAR 0072
ENCODING 114
SWIDTH 440 0
DWIDTH 11 0
BBX 10 12 1 0
BITMAP
3380
F5C0
38C0
3000
3000
3000
3000
3000
3000
3000
3000
FC00
ENDCHAR
STARTCHAR 0073
ENCODING 115
SWIDTH 520 0
DWIDTH 13 0
BBX 10 12 2 0
BITMAP
3D00
6300
C180
E080
7800
3E00
0F80
81C0
C0C0
60C0
7180
5F00
ENDCHAR
STARTCHAR 0074
ENCODING 116
SWIDTH 400 0
DWIDTH 10 0
BBX 9 16 1 0
BITMAP
1000
1000
3000
7000
FF00
3000
3000
3000
3000
3000
3000
3000
3000
3000
3880
1F00
ENDCHAR
STARTCHAR 0075
ENCODING 117
SWIDTH 680 0
DWIDTH 17 0
BBX 15 12 1 0
BITMAP
F078
3018
3018
3018
3018
3018
3018
3018
3018
3038
1858
0F9E
ENDCHAR
STARTCHAR 0076
ENCODING 118
SWIDTH 520 0
DWIDTH 13 0
BBX 13 12 0 0
BITMAP
F8F8
7070
3060
3060
38E0
18C0
18C0
0D80
0D80
0D80
0700
0700
ENDCHAR
STARTCHAR 0077
ENCODING 119
SWIDTH 800 0
DWIDTH 20 0
BBX 19 12 0 0
BITMAP
F9F3E0
70E080
306080
306180
18F100
18B100
18B300
0D1A00
0D1A00
0D1A00
060C00
060C00
ENDCHAR
STARTCHAR 0078
ENCODING 120
SWIDTH 560 0
DWIDTH 14 0
BBX 14 12 0 0
BITMAP
FCFC
3830
1860
0CC0
0780
0300
0780
0FC0
0CC0
1860
3030
F8FC
ENDCHAR
STARTCHAR 0079
ENCODING 121
SWIDTH 560 0
DWIDTH 14 0
BBX 14 17 0 -5
BITMAP
FC7C
3010
3030
1820
1820
1C40
0C40
0E80
0680
0680
0300
0300
0200
0200
0400
C400
F800
ENDCHAR
STARTCHAR 007A
ENCODING 122
SWIDTH 480 0
DWIDTH 12 0
BBX 12 12 0 0
BITMAP
3FF0
7060
40C0
81C0
0380
0700
0E00
1C10
3830
7020
60E0
FFC0
ENDCHAR
STARTCHAR 007B
ENCODING 123
SWIDTH 280 0
DWIDTH 7 0
BBX 8 23 1 -6
BITMAP
03
06
08
18
18
18
18
18
18
10
20
C0
60
10
18
18
18
18
18
18
08
06
03
ENDCHAR
STARTCHAR 007C
ENCODING 124
SWIDTH 600 0
DWIDTH 15 0
BBX 2 23 6 -5
BITMAP
C0
C0
C0
C0
C0
C0
C0
C0
C0
C0
C0
C0
C0
C0
C0
C0
C0
C0
C0
C0
C0
C0
C0
ENDCHAR
STARTCHAR 007D
ENCODING 125
SWIDTH 280 0
DWIDTH 7 0
BBX 8 23 -1 -6
BITMAP
C0
60
10
18
18
18
18
18
18
08
04
03
06
08
18
18
18
18
18
18
10
60
C0
ENDCHAR
STARTCHAR 007E
ENCODING 126
SWIDTH 600 0
DWIDTH 15 0
BBX 11 3 2 7
BITMAP
3820
4E60
83C0
ENDCHAR
STARTCHAR 00A0
ENCODING 160
SWIDTH 320 0
DWIDTH 8 0
BBX 1 1 0 0
BITMAP
00
ENDCHAR
STARTCHAR 00A1
ENCODING 161
SWIDTH 320 0
DWIDTH 8 0
BBX 2 17 2 -5
BITMAP
C0
C0
C0
00
80
80
80
80
80
80
C0
C0
C0
C0
C0
C0
C0
ENDCHAR
STARTCHAR 00A2
ENCODING 162
SWIDTH 640 0
DWIDTH 16 0
BBX 11 18 3 0
BITMAP
0400
0400
0400
1F00
35C0
64E0
C460
C400
C400
C400
C400
C420
6440
3580
1F00
0400
0400
0400
ENDCHAR
STARTCHAR 00A3
ENCODING 163
SWIDTH 640 0
DWIDTH 16 0
BBX 16 17 0 0
BITMAP
03F0
061C
0C04
1806
1806
1800
1800
FFC0
0C00
0E00
0600
7601
CE01
8603
8786
CEFE
7878
ENDCHAR
STARTCHAR 00A4
ENCODING 164
SWIDTH 600 0
DWIDTH 15 0
BBX 11 11 2 3
BITMAP
DF60
71C0
60C0
C060
C060
C060
C060
C060
60C0
71C0
DF60
ENDCHAR
STARTCHAR 00A5
ENCODING 165
SWIDTH 640 0
DWIDTH 16 0
BBX 15 17 0 0
BITMAP
FC3E
301C
1818
1830
0C70
0C60
0CC0
06C0
0780
7FF8
0300
0300
7FF8
0300
0300
0300
0FC0
ENDCHAR
STARTCHAR 00A6
ENCODING 166
SWIDTH 600 0
DWIDTH 15 0
BBX 2 23 6 -5
BITMAP
C0
C0
C0
C0
C0
C0
C0
C0
C0
C0
80
00
40
C0
C0
C0
C0
C0
C0
C0
C0
C0
C0
ENDCHAR
STARTCHAR 00A7
ENCODING 167
SWIDTH 520 0
DWIDTH 13 0
BBX 11 21 1 -4
BITMAP
1F80
60C0
C0E0
C060
E000
FC00
7F80
23C0
40E0
C060
C060
E060
7CC0
3F80
0FC0
00E0
C060
C060
E060
60C0
1F00
ENDCHAR
STARTCHAR 00A8
ENCODING 168
SWIDTH 440 0
DWIDTH 11 0
BBX 5 3 1 14
BITMAP
D8
D8
D8
ENDCHAR
STARTCHAR 00A9
ENCODING 169
SWIDTH 760 0
DWIDTH 19 0
BBX 18 17 1 0
BITMAP
03F000
0C0C00
100200
21FD00
460C80
4C0480
980040
980040
980040
980040
980040
4C0480
461C80
23F100
100200
0C0C00
03F000
ENDCHAR
STARTCHAR 00AA
ENCODING 170
SWIDTH 440 0
DWIDTH 11 0
BBX 10 8 1 9
BITMAP
7E00
C300
C300
1F00
6300
C300
C700
79C0
ENDCHAR
STARTCHAR 00AB
ENCODING 171
SWIDTH 360 0
DWIDTH 9 0
BBX 6 8 1 2
BITMAP
24
6C
48
D8
D8
48
6C
24
ENDCHAR
STARTCHAR 00AC
ENCODING 172
SWIDTH 600 0
DWIDTH 15 0
BBX 12 9 1 0
BITMAP
FFF0
FFF0
0030
0030
0030
0030
0030
0030
0030
ENDCHAR
STARTCHAR 00AD
ENCODING 173
SWIDTH 400 0
DWIDTH 10 0
BBX 7 2 1 5
BITMAP
FE
FE
ENDCHAR
STARTCHAR 00AE
ENCODING 174
SWIDTH 760 0
DWIDTH 19 0
BBX 18 17 1 0
BITMAP
03F000
0C0C00
100200
200100
4FF080
463880
861840
863840
87E040
86E040
863040
461880
4F0E80
200100
100200
0C0C00
03F000
ENDCHAR
STARTCHAR 00AF
ENCODING 175
SWIDTH 520 0
DWIDTH 13 0
BBX 13 1 0 18
BITMAP
FFF8
ENDCHAR
STARTCHAR 00B0
ENCODING 176
SWIDTH 400 0
DWIDTH 10 0
BBX 7 6 1 11
BITMAP
38
C6
82
82
C6
38
ENDCHAR
STARTCHAR 00B1
ENCODING 177
SWIDTH 560 0
DWIDTH 14 0
BBX 12 15 1 2
BITMAP
0600
0600
0600
0600
0600
FFF0
FFF0
0600
0600
0600
0600
0600
0000
FFF0
FFF0
ENDCHAR
STARTCHAR 00B2
ENCODING 178
SWIDTH 360 0
DWIDTH 9 0
BBX 8 9 1 8
BITMAP
3C
47
83
83
06
0C
38
61
FF
ENDCHAR
STARTCHAR 00B3
ENCODING 179
SWIDTH 360 0
DWIDTH 9 0
BBX 8 9 1 8
BITMAP
3E
47
83
03
1C
03
C3
C7
3C
ENDCHAR
STARTCHAR 00B4
ENCODING 180
SWIDTH 360 0
DWIDTH 9 0
BBX 5 3 1 14
BITMAP
18
78
C0
ENDCHAR
STARTCHAR 00B5
ENCODING 181
SWIDTH 560 0
DWIDTH 14 0
BBX 11 16 1 -4
BITMAP
60C0
60C0
60C0
60C0
60C0
60C0
60C0
60C0
60C0
61C0
73C0
5C60
C000
C000
C000
C000
ENDCHAR
STARTCHAR 00B6
ENCODING 182
SWIDTH 600 0
DWIDTH 15 0
BBX 14 22 1 -5
BITMAP
1FFC
7F30
7F30
FF30
FF30
FF30
FF30
7F30
1F30
0330
0330
0330
0330
0330
0330
0330
0330
0330
0330
0330
0330
0330
ENDCHAR
STARTCHAR 00B7
ENCODING 183
SWIDTH 280 0
DWIDTH 7 0
BBX 2 3 1 7
BITMAP
C0
C0
C0
ENDCHAR
STARTCHAR 00B8
ENCODING 184
SWIDTH 320 0
DWIDTH 8 0
BBX 5 5 1 -5
BITMAP
20
70
08
08
F0
ENDCHAR
STARTCHAR 00B9
ENCODING 185
SWIDTH 360 0
DWIDTH 9 0
BBX 6 9 2 8
BITMAP
30
F0
30
30
30
30
30
30
FC
ENDCHAR
STARTCHAR 00BA
ENCODING 186
SWIDTH 440 0
DWIDTH 11 0
BBX 9 8 1 9
BITMAP
3E00
6300
C180
C180
C180
C180
6300
3E00
ENDCHAR
STARTCHAR 00BB
ENCODING 187
SWIDTH 360 0
DWIDTH 9 0
BBX 6 8 2 2
BITMAP
90
D8
48
6C
6C
48
D8
90
ENDCHAR
STARTCHAR 00BC
ENCODING 188
SWIDTH 920 0
DWIDTH 23 0
BBX 19 17 3 0
BITMAP
300C00
F00C00
301800
303000
303000
306000
306000
30C000
FDC180
018380
030580
030980
061180
063FE0
0C0180
180180
180180
ENDCHAR
STARTCHAR 00BD
ENCODING 189
SWIDTH 920 0
DWIDTH 23 0
BBX 19 17 3 0
BITMAP
300C00
F00C00
301800
303000
303000
306000
306000
30C000
FDC780
0188E0
031060
031060
0600C0
060180
0C0700
180C20
181FE0
ENDCHAR
STARTCHAR 00BE
ENCODING 190
SWIDTH 920 0
DWIDTH 23 0
BBX 20 17 2 0
BITMAP
3E0600
470600
830C00
031800
1C1800
033000
C33000
C76000
3CE0C0
00C1C0
0182C0
0184C0
0308C0
031FF0
0600C0
0C00C0
0C00C0
ENDCHAR
STARTCHAR 00BF
ENCODING 191
SWIDTH 560 0
DWIDTH 14 0
BBX 12 18 1 -6
BITMAP
0180
0180
0180
0000
0180
0180
0180
0F80
3800
6000
C000
C000
C000
C000
E030
6070
38E0
0FC0
ENDCHAR
STARTCHAR 00C0
ENCODING 192
SWIDTH 680 0
DWIDTH 17 0
BBX 17 21 -1 0
BITMAP
030000
03C000
006000
000000
01C000
01C000
036000
036000
036000
063000
063000
063000
0C1800
0C1800
0FF800
180C00
180C00
180C00
300600
300600
FC1F80
ENDCHAR
STARTCHAR 00C1
ENCODING 193
SWIDTH 680 0
DWIDTH 17 0
BBX 17 21 -1 0
BITMAP
003000
00F000
018000
000000
01C000
01C000
036000
036000
036000
063000
063000
063000
0C1800
0C1800
0FF800
180C00
180C00
180C00
300600
300600
FC1F80
ENDCHAR
STARTCHAR 00C2
ENCODING 194
SWIDTH 680 0
DWIDTH 17 0
BBX 17 21 -1 0
BITMAP
008000
036000
041000
000000
01C000
01C000
036000
036000
036000
063000
063000
063000
0C1800
0C1800
0FF800
180C00
180C00
180C00
300600
300600
FC1F80
ENDCHAR
STARTCHAR 00C3
ENCODING 195
SWIDTH 680 0
DWIDTH 17 0
BBX 17 20 -1 0
BITMAP
038800
047000
000000
01C000
01C000
036000
036000
036000
063000
063000
063000
0C1800
0C1800
0FF800
180C00
180C00
180C00
300600
300600
FC1F80
ENDCHAR
STARTCHAR 00C4
ENCODING 196
SWIDTH 680 0
DWIDTH 17 0
BBX 17 21 -1 0
BITMAP
036000
036000
036000
000000
01C000
01C000
036000
036000
036000
063000
063000
063000
0C1800
0C1800
0FF800
180C00
180C00
180C00
300600
300600
FC1F80
ENDCHAR
STARTCHAR 00C5
ENCODING 197
SWIDTH 680 0
DWIDTH 17 0
BBX 17 23 -1 0
BITMAP
01C000
022000
022000
022000
01C000
000000
01C000
01C000
036000
036000
036000
063000
063000
063000
0C1800
0C1800
0FF800
180C00
180C00
180C00
300600
300600
FC1F80
ENDCHAR
STARTCHAR 00C6
ENCODING 198
SWIDTH 1280 0
DWIDTH 32 0
BBX 30 17 0 0
BITMAP
007FFFF0
0030C030
0030C018
0060C018
00E0C008
00C0C100
0180C100
0180C300
03FFFF00
0700C300
0600C100
0C00C104
0C00C00C
1800C008
3800C018
3000C078
FC03FFF0
ENDCHAR
STARTCHAR 00C7
ENCODING 199
SWIDTH 760 0
DWIDTH 19 0
BBX 16 22 1 -5
BITMAP
07E4
1C3C
300C
2004
6006
C002
C000
C000
C000
C000
C000
C000
6001
7002
3804
1C18
07E0
0080
01C0
0020
0020
03C0
ENDCHAR
STARTCHAR 00C8
ENCODING 200
SWIDTH 680 0
DWIDTH 17 0
BBX 14 21 2 0
BITMAP
1800
1E00
0300
0000
FFF0
3030
3010
3018
3008
3080
3080
3180
3F80
3180
3080
3084
3004
3008
3018
3038
FFF0
ENDCHAR
STARTCHAR 00C9
ENCODING 201
SWIDTH 680 0
DWIDTH 17 0
BBX 14 21 2 0
BITMAP
0180
0780
0C00
0000
FFF0
3030
3010
3018
3008
3080
3080
3180
3F80
3180
3080
3084
3004
3008
3018
3038
FFF0
ENDCHAR
STARTCHAR 00CA
ENCODING 202
SWIDTH 680 0
DWIDTH 17 0
BBX 14 21 2 0
BITMAP
0200
0D80
1040
0000
FFF0
3030
3010
3018
3008
3080
3080
3180
3F80
3180
3080
3084
3004
3008
3018
3038
FFF0
ENDCHAR
STARTCHAR 00CB
ENCODING 203
SWIDTH 680 0
DWIDTH 17 0
BBX 14 21 2 0
BITMAP
0D80
0D80
0D80
0000
FFF0
3030
3010
3018
3008
3080
3080
3180
3F80
3180
3080
3084
3004
3008
3018
3038
FFF0
ENDCHAR
STARTCHAR 00CC
ENCODING 204
SWIDTH 360 0
DWIDTH 9 0
BBX 6 21 1 0
BITMAP
C0
F0
18
00
FC
30
30
30
30
30
30
30
30
30
30
30
30
30
30
30
FC
ENDCHAR
STARTCHAR 00CD
ENCODING 205
SWIDTH 360 0
DWIDTH 9 0
BBX 6 21 1 0
BITMAP
18
78
C0
00
FC
30
30
30
30
30
30
30
30
30
30
30
30
30
30
30
FC
ENDCHAR
STARTCHAR 00CE
ENCODING 206
SWIDTH 360 0
DWIDTH 9 0
BBX 7 21 1 0
BITMAP
10
6C
82
00
FC
30
30
30
30
30
30
30
30
30
30
30
30
30
30
30
FC
ENDCHAR
STARTCHAR 00CF
ENCODING 207
SWIDTH 360 0
DWIDTH 9 0
BBX 6 21 1 0
BITMAP
D8
D8
D8
00
FC
30
30
30
30
30
30
30
30
30
30
30
30
30
30
30
FC
ENDCHAR
STARTCHAR 00D0
ENCODING 208
SWIDTH 800 0
DWIDTH 20 0
BBX 17 17 2 0
BITMAP
FFF000
303C00
300E00
300700
300300
300100
300180
300180
FF8180
300180
300180
300180
300300
300300
300600
301C00
FFF000
ENDCHAR
STARTCHAR 00D1
ENCODING 209
SWIDTH 760 0
DWIDTH 19 0
BBX 17 20 1 0
BITMAP
038800
047000
000000
F81F80
3C0600
3E0600
360600
330600
330600
318600
31C600
30C600
306600
307600
303600
303E00
301E00
300E00
300E00
FC0600
ENDCHAR
STARTCHAR 00D2
ENCODING 210
SWIDTH 800 0
DWIDTH 20 0
BBX 18 21 1 0
BITMAP
030000
03C000
006000
000000
03F000
0C0C00
180300
300180
600180
6001C0
C000C0
C000C0
C000C0
C000C0
C000C0
C001C0
600180
700300
380700
0C0C00
03F000
ENDCHAR
STARTCHAR 00D3
ENCODING 211
SWIDTH 800 0
DWIDTH 20 0
BBX 18 21 1 0
BITMAP
003000
00F000
018000
000000
03F000
0C0C00
180300
300180
600180
6001C0
C000C0
C000C0
C000C0
C000C0
C000C0
C001C0
600180
700300
380700
0C0C00
03F000
ENDCHAR
STARTCHAR 00D4
ENCODING 212
SWIDTH 800 0
DWIDTH 20 0
BBX 18 21 1 0
BITMAP
004000
01B000
020800
000000
03F000
0C0C00
180300
300180
600180
6001C0
C000C0
C000C0
C000C0
C000C0
C000C0
C001C0
600180
700300
380700
0C0C00
03F000
ENDCHAR
STARTCHAR 00D5
ENCODING 213
SWIDTH 800 0
DWIDTH 20 0
BBX 18 20 1 0
BITMAP
038800
047000
000000
03F000
0C0C00
180300
300180
600180
6001C0
C000C0
C000C0
C000C0
C000C0
C000C0
C001C0
600180
700300
380700
0C0C00
03F000
ENDCHAR
STARTCHAR 00D6
ENCODING 214
SWIDTH 800 0
DWIDTH 20 0
BBX 18 21 1 0
BITMAP
036000
036000
036000
000000
03F000
0C0C00
180300
300180
600180
6001C0
C000C0
C000C0
C000C0
C000C0
C000C0
C001C0
600180
700300
380700
0C0C00
03F000
ENDCHAR
STARTCHAR 00D7
ENCODING 215
SWIDTH 600 0
DWIDTH 15 0
BBX 10 10 3 3
BITMAP
4080
E1C0
7380
3F00
1E00
1E00
3F00
7380
E1C0
4080
ENDCHAR
STARTCHAR 00D8
ENCODING 216
SWIDTH 800 0
DWIDTH 20 0
BBX 18 17 1 0
BITMAP
03F0C0
0C0D80
180300
300700
600D80
4019C0
C030C0
C020C0
C040C0
C080C0
C100C0
6201C0
640180
380300
300700
2C0C00
43F000
ENDCHAR
STARTCHAR 00D9
ENCODING 217
SWIDTH 800 0
DWIDTH 20 0
BBX 18 21 1 0
BITMAP
030000
03C000
006000
000000
FC0FC0
300300
300300
300300
300300
300300
300300
300300
300300
300300
300300
300300
300300
300600
180600
0E1C00
03F000
ENDCHAR
STARTCHAR 00DA
ENCODING 218
SWIDTH 800 0
DWIDTH 20 0
BBX 18 21 1 0
BITMAP
003000
00F000
018000
000000
FC0FC0
300300
300300
300300
300300
300300
300300
300300
300300
300300
300300
300300
300300
300600
180600
0E1C00
03F000
ENDCHAR
STARTCHAR 00DB
ENCODING 219
SWIDTH 800 0
DWIDTH 20 0
BBX 18 21 1 0
BITMAP
004000
01B000
020800
000000
FC0FC0
300300
300300
300300
300300
300300
300300
300300
300300
300300
300300
300300
300300
300600
180600
0E1C00
03F000
ENDCHAR
STARTCHAR 00DC
ENCODING 220
SWIDTH 800 0
DWIDTH 20 0
BBX 18 21 1 0
BITMAP
036000
036000
036000
000000
FC0FC0
300300
300300
300300
300300
300300
300300
300300
300300
300300
300300
300300
300300
300600
180600
0E1C00
03F000
ENDCHAR
STARTCHAR 00DD
ENCODING 221
SWIDTH 640 0
DWIDTH 16 0
BBX 16 21 0 0
BITMAP
0060
01E0
0300
0000
FC1F
380E
180C
1C18
0C18
0E30
0660
0360
03C0
0180
0180
0180
0180
0180
0180
0180
07E0
ENDCHAR
STARTCHAR 00DE
ENCODING 222
SWIDTH 640 0
DWIDTH 16 0
BBX 14 17 2 0
BITMAP
FC00
3000
3000
3000
3FE0
3038
301C
300C
300C
300C
3018
3038
3FE0
3000
3000
3000
FC00
ENDCHAR
STARTCHAR 00DF
ENCODING 223
SWIDTH 680 0
DWIDTH 17 0
BBX 15 18 1 0
BITMAP
07C0
1860
1030
3030
30F0
3380
F300
3380
31C0
30F0
303C
300E
3006
3006
3606
370C
331C
F1F0
ENDCHAR
STARTCHAR 00E0
ENCODING 224
SWIDTH 600 0
DWIDTH 15 0
BBX 14 18 1 0
BITMAP
0C00
0F00
0180
0000
0000
0000
1F80
30C0
6060
6060
0060
07E0
3C60
6060
C060
C0E0
E3E0
3E3C
ENDCHAR
STARTCHAR 00E1
ENCODING 225
SWIDTH 600 0
DWIDTH 15 0
BBX 14 18 1 0
BITMAP
0180
0780
0C00
0000
0000
0000
1F80
30C0
6060
6060
0060
07E0
3C60
6060
C060
C0E0
E3E0
3E3C
ENDCHAR
STARTCHAR 00E2
ENCODING 226
SWIDTH 600 0
DWIDTH 15 0
BBX 14 18 1 0
BITMAP
0200
0D80
1040
0000
0000
0000
1F80
30C0
6060
6060
0060
07E0
3C60
6060
C060
C0E0
E3E0
3E3C
ENDCHAR
STARTCHAR 00E3
ENCODING 227
SWIDTH 600 0
DWIDTH 15 0
BBX 14 17 1 0
BITMAP
1C40
2380
0000
0000
0000
1F80
30C0
6060
6060
0060
07E0
3C60
6060
C060
C0E0
E3E0
3E3C
ENDCHAR
STARTCHAR 00E4
ENCODING 228
SWIDTH 600 0
DWIDTH 15 0
BBX 14 18 1 0
BITMAP
1B00
1B00
1B00
0000
0000
0000
1F80
30C0
6060
6060
0060
07E0
3C60
6060
C060
C0E0
E3E0
3E3C
ENDCHAR
STARTCHAR 00E5
ENCODING 229
SWIDTH 600 0
DWIDTH 15 0
BBX 14 20 1 0
BITMAP
0700
0880
0880
0880
0700
0000
0000
0000
1F80
30C0
6060
6060
0060
07E0
3C60
6060
C060
C0E0
E3E0
3E3C
ENDCHAR
STARTCHAR 00E6
ENCODING 230
SWIDTH 880 0
DWIDTH 22 0
BBX 20 12 1 0
BITMAP
0F8F80
30D860
707020
606030
607FF0
07E000
3C6000
606000
C07010
C0F030
E39860
3E0F80
ENDCHAR
STARTCHAR 00E7
ENCODING 231
SWIDTH 520 0
DWIDTH 13 0
BBX 11 17 1 -5
BITMAP
0F80
30C0
60E0
C060
C000
C000
C000
C000
C020
6040
3080
1F00
0400
0E00
0100
0100
1E00
ENDCHAR
STARTCHAR 00E8
ENCODING 232
SWIDTH 520 0
DWIDTH 13 0
BBX 11 18 1 0
BITMAP
1800
1E00
0300
0000
0000
0000
1F00
30C0
6040
C060
FFE0
C000
C000
C000
C020
6060
30C0
1F00
ENDCHAR
STARTCHAR 00E9
ENCODING 233
SWIDTH 520 0
DWIDTH 13 0
BBX 11 18 1 0
BITMAP
0300
0F00
1800
0000
0000
0000
1F00
30C0
6040
C060
FFE0
C000
C000
C000
C020
6060
30C0
1F00
ENDCHAR
STARTCHAR 00EA
ENCODING 234
SWIDTH 520 0
DWIDTH 13 0
BBX 11 18 1 0
BITMAP
0400
1B00
2080
0000
0000
0000
1F00
30C0
6040
C060
FFE0
C000
C000
C000
C020
6060
30C0
1F00
ENDCHAR
STARTCHAR 00EB
ENCODING 235
SWIDTH 520 0
DWIDTH 13 0
BBX 11 18 1 0
BITMAP
0D80
0D80
0D80
0000
0000
0000
1F00
30C0
6040
C060
FFE0
C000
C000
C000
C020
6060
30C0
1F00
ENDCHAR
STARTCHAR 00EC
ENCODING 236
SWIDTH 320 0
DWIDTH 8 0
BBX 6 18 1 0
BITMAP
C0
F0
18
00
00
00
30
F0
30
30
30
30
30
30
30
30
30
FC
ENDCHAR
STARTCHAR 00ED
ENCODING 237
SWIDTH 320 0
DWIDTH 8 0
BBX 6 18 1 0
BITMAP
0C
3C
60
00
00
00
30
F0
30
30
30
30
30
30
30
30
30
FC
ENDCHAR
STARTCHAR 00EE
ENCODING 238
SWIDTH 320 0
DWIDTH 8 0
BBX 7 18 1 0
BITMAP
10
6C
82
00
00
00
30
F0
30
30
30
30
30
30
30
30
30
FC
ENDCHAR
STARTCHAR 00EF
ENCODING 239
SWIDTH 320 0
DWIDTH 8 0
BBX 6 18 1 0
BITMAP
D8
D8
D8
00
00
00
30
F0
30
30
30
30
30
30
30
30
30
FC
ENDCHAR
STARTCHAR 00F0
ENCODING 240
SWIDTH 560 0
DWIDTH 14 0
BBX 12 18 1 0
BITMAP
0660
03C0
1D80
0080
00C0
0060
1F60
30A0
6070
C030
C030
C030
C030
C030
C020
6060
30C0
1F00
ENDCHAR
STARTCHAR 00F1
ENCODING 241
SWIDTH 680 0
DWIDTH 17 0
BBX 15 17 1 0
BITMAP
0710
08E0
0000
0000
0000
33E0
F430
3818
3018
3018
3018
3018
3018
3018
3018
3018
FC7E
ENDCHAR
STARTCHAR 00F2
ENCODING 242
SWIDTH 560 0
DWIDTH 14 0
BBX 12 18 1 0
BITMAP
0C00
0F00
0180
0000
0000
0000
1F80
30C0
6060
C030
C030
C030
C030
C030
C030
6060
30C0
1F80
ENDCHAR
STARTCHAR 00F3
ENCODING 243
SWIDTH 560 0
DWIDTH 14 0
BBX 12 18 1 0
BITMAP
0180
0780
0C00
0000
0000
0000
1F80
30C0
6060
C030
C030
C030
C030
C030
C030
6060
30C0
1F80
ENDCHAR
STARTCHAR 00F4
ENCODING 244
SWIDTH 560 0
DWIDTH 14 0
BBX 12 18 1 0
BITMAP
0200
0D80
1040
0000
0000
0000
1F80
30C0
6060
C030
C030
C030
C030
C030
C030
6060
30C0
1F80
ENDCHAR
STARTCHAR 00F5
ENCODING 245
SWIDTH 560 0
DWIDTH 14 0
BBX 12 17 1 0
BITMAP
1C40
2380
0000
0000
0000
1F80
30C0
6060
C030
C030
C030
C030
C030
C030
6060
30C0
1F80
ENDCHAR
STARTCHAR 00F6
ENCODING 246
SWIDTH 560 0
DWIDTH 14 0
BBX 12 18 1 0
BITMAP
1B00
1B00
1B00
0000
0000
0000
1F80
30C0
6060
C030
C030
C030
C030
C030
C030
6060
30C0
1F80
ENDCHAR
STARTCHAR 00F7
ENCODING 247
SWIDTH 560 0
DWIDTH 14 0
BBX 12 10 1 3
BITMAP
0600
0600
0000
0000
FFF0
FFF0
0000
0000
0600
0600
ENDCHAR
STARTCHAR 00F8
ENCODING 248
SWIDTH 560 0
DWIDTH 14 0
BBX 12 12 1 0
BITMAP
0F90
30E0
6060
C0B0
C130
C230
C430
C830
D030
7060
30C0
5F80
ENDCHAR
STARTCHAR 00F9
ENCODING 249
SWIDTH 680 0
DWIDTH 17 0
BBX 15 18 1 0
BITMAP
0600
0780
00C0
0000
0000
0000
F078
3018
3018
3018
3018
3018
3018
3018
3018
3038
1858
0F9E
ENDCHAR
STARTCHAR 00FA
ENCODING 250
SWIDTH 680 0
DWIDTH 17 0
BBX 15 18 1 0
BITMAP
00C0
03C0
0600
0000
0000
0000
F078
3018
3018
3018
3018
3018
3018
3018
3018
3038
1858
0F9E
ENDCHAR
STARTCHAR 00FB
ENCODING 251
SWIDTH 680 0
DWIDTH 17 0
BBX 15 18 1 0
BITMAP
0100
06C0
0820
0000
0000
0000
F078
3018
3018
3018
3018
3018
3018
3018
3018
3038
1858
0F9E
ENDCHAR
STARTCHAR 00FC
ENCODING 252
SWIDTH 680 0
DWIDTH 17 0
BBX 15 18 1 0
BITMAP
0D80
0D80
0D80
0000
0000
0000
F078
3018
3018
3018
3018
3018
3018
3018
3018
3038
1858
0F9E
ENDCHAR
STARTCHAR 00FD
ENCODING 253
SWIDTH 560 0
DWIDTH 14 0
BBX 14 23 0 -5
BITMAP
00C0
03C0
0600
0000
0000
0000
FC7C
3010
3030
1820
1820
1C40
0C40
0E80
0680
0680
0300
0300
0200
0200
0400
C400
F800
ENDCHAR
STARTCHAR 00FE
ENCODING 254
SWIDTH 640 0
DWIDTH 16 0
BBX 14 23 1 -5
BITMAP
3000
F000
3000
3000
3000
3000
33E0
3430
3818
300C
300C
300C
300C
300C
3008
3818
3430
33E0
3000
3000
3000
3000
FC00
ENDCHAR
STARTCHAR 00FF
ENCODING 255
SWIDTH 560 0
DWIDTH 14 0
BBX 14 23 0 -5
BITMAP
0D80
0D80
0D80
0000
0000
0000
FC7C
3010
3030
1820
1820
1C40
0C40
0E80
0680
0680
0300
0300
0200
0200
0400
C400
F800
ENDCHAR
STARTCHAR 0100
ENCODING 256
SWIDTH 680 0
DWIDTH 17 0
BBX 17 19 -1 0
BITMAP
0FF000
000000
01C000
01C000
036000
036000
036000
063000
063000
063000
0C1800
0C1800
0FF800
180C00
180C00
180C00
300600
300600
FC1F80
ENDCHAR
STARTCHAR 0101
ENCODING 257
SWIDTH 600 0
DWIDTH 15 0
BBX 14 16 1 0
BITMAP
3FC0
0000
0000
0000
1F80
30C0
6060
6060
0060
07E0
3C60
6060
C060
C0E0
E3E0
3E3C
ENDCHAR
STARTCHAR 0102
ENCODING 258
SWIDTH 680 0
DWIDTH 17 0
BBX 17 20 -1 0
BITMAP
060800
03F000
000000
01C000
01C000
036000
036000
036000
063000
063000
063000
0C1800
0C1800
0FF800
180C00
180C00
180C00
300600
300600
FC1F80
ENDCHAR
STARTCHAR 0103
ENCODING 259
SWIDTH 600 0
DWIDTH 15 0
BBX 14 17 1 0
BITMAP
3040
1F80
0000
0000
0000
1F80
30C0
6060
6060
0060
07E0
3C60
6060
C060
C0E0
E3E0
3E3C
ENDCHAR
STARTCHAR 0104
ENCODING 260
SWIDTH 680 0
DWIDTH 17 0
BBX 17 21 -1 -4
BITMAP
01C000
01C000
036000
036000
036000
063000
063000
063000
0C1800
0C1800
0FF800
180C00
180C00
180C00
300600
300600
FC1F80
000200
000400
000480
000700
ENDCHAR
STARTCHAR 0105
ENCODING 261
SWIDTH 600 0
DWIDTH 15 0
BBX 15 16 1 -4
BITMAP
1F80
30C0
6060
6060
0060
07E0
3C60
6060
C060
C0E0
E3E0
3E3C
0008
0010
0012
001C
ENDCHAR
STARTCHAR 0106
ENCODING 262
SWIDTH 760 0
DWIDTH 19 0
BBX 16 21 1 0
BITMAP
0060
01E0
0300
0000
07E4
1C3C
300C
2004
6006
C002
C000
C000
C000
C000
C000
C000
6001
7002
3804
1C18
07E0
ENDCHAR
STARTCHAR 0107
ENCODING 263
SWIDTH 520 0
DWIDTH 13 0
BBX 11 18 1 0
BITMAP
0180
0780
0C00
0000
0000
0000
0F80
30C0
60E0
C060
C000
C000
C000
C000
C020
6040
3080
1F00
ENDCHAR
STARTCHAR 0108
ENCODING 264
SWIDTH 760 0
DWIDTH 19 0
BBX 16 21 1 0
BITMAP
0100
06C0
0820
0000
07E4
1C3C
300C
2004
6006
C002
C000
C000
C000
C000
C000
C000
6001
7002
3804
1C18
07E0
ENDCHAR
STARTCHAR 0109
ENCODING 265
SWIDTH 520 0
DWIDTH 13 0
BBX 11 18 1 0
BITMAP
0400
1B00
2080
0000
0000
0000
0F80
30C0
60E0
C060
C000
C000
C000
C000
C020
6040
3080
1F00
ENDCHAR
STARTCHAR 010A
ENCODING 266
SWIDTH 760 0
DWIDTH 19 0
BBX 16 21 1 0
BITMAP
0180
0180
0180
0000
07E4
1C3C
300C
2004
6006
C002
C000
C000
C000
C000
C000
C000
6001
7002
3804
1C18
07E0
ENDCHAR
STARTCHAR 010B
ENCODING 267
SWIDTH 520 0
DWIDTH 13 0
BBX 11 18 1 0
BITMAP
0600
0600
0600
0000
0000
0000
0F80
30C0
60E0
C060
C000
C000
C000
C000
C020
6040
3080
1F00
ENDCHAR
STARTCHAR 010C
ENCODING 268
SWIDTH 760 0
DWIDTH 19 0
BBX 16 21 1 0
BITMAP
0410
0360
0080
0000
07E4
1C3C
300C
2004
6006
C002
C000
C000
C000
C000
C000
C000
6001
7002
3804
1C18
07E0
ENDCHAR
STARTCHAR 010D
ENCODING 269
SWIDTH 520 0
DWIDTH 13 0
BBX 11 18 1 0
BITMAP
1040
0D80
0200
0000
0000
0000
0F80
30C0
60E0
C060
C000
C000
C000
C000
C020
6040
3080
1F00
ENDCHAR
STARTCHAR 010E
ENCODING 270
SWIDTH 800 0
DWIDTH 20 0
BBX 17 21 2 0
BITMAP
082000
06C000
010000
000000
FFE000
301800
300E00
300600
300300
300100
300180
300180
300180
300180
300180
300180
300300
300300
300600
301C00
FFF000
ENDCHAR
STARTCHAR 010F
ENCODING 271
SWIDTH 680 0
DWIDTH 17 0
BBX 16 18 1 0
BITMAP
0036
00F7
0031
0031
0032
0032
1F34
30B0
6070
6030
C030
C030
C030
C030
C030
6070
30B0
1F3C
ENDCHAR
STARTCHAR 0110
ENCODING 272
SWIDTH 800 0
DWIDTH 20 0
BBX 17 17 2 0
BITMAP
FFF000
303C00
300E00
300700
300300
300100
300180
300180
FF8180
300180
300180
300180
300300
300300
300600
301C00
FFF000
ENDCHAR
STARTCHAR 0111
ENCODING 273
SWIDTH 640 0
DWIDTH 16 0
BBX 14 18 1 0
BITMAP
0030
00F0
0030
07FC
0030
0030
1F30
30B0
6070
6030
C030
C030
C030
C030
C030
6070
30B0
1F3C
ENDCHAR
STARTCHAR 0112
ENCODING 274
SWIDTH 680 0
DWIDTH 17 0
BBX 14 19 2 0
BITMAP
1FE0
0000
FFF0
3030
3010
3018
3008
3080
3080
3180
3F80
3180
3080
3084
3004
3008
3018
3038
FFF0
ENDCHAR
STARTCHAR 0113
ENCODING 275
SWIDTH 520 0
DWIDTH 13 0
BBX 11 16 1 0
BITMAP
3FC0
0000
0000
0000
1F00
30C0
6040
C060
FFE0
C000
C000
C000
C020
6060
30C0
1F00
ENDCHAR
STARTCHAR 0114
ENCODING 276
SWIDTH 680 0
DWIDTH 17 0
BBX 14 20 2 0
BITMAP
1820
0FC0
0000
FFF0
3030
3010
3018
3008
3080
3080
3180
3F80
3180
3080
3084
3004
3008
3018
3038
FFF0
ENDCHAR
STARTCHAR 0115
ENCODING 277
SWIDTH 520 0
DWIDTH 13 0
BBX 11 17 1 0
BITMAP
3040
1F80
0000
0000
0000
1F00
30C0
6040
C060
FFE0
C000
C000
C000
C020
6060
30C0
1F00
ENDCHAR
STARTCHAR 0116
ENCODING 278
SWIDTH 680 0
DWIDTH 17 0
BBX 14 21 2 0
BITMAP
0300
0300
0300
0000
FFF0
3030
3010
3018
3008
3080
3080
3180
3F80
3180
3080
3084
3004
3008
3018
3038
FFF0
ENDCHAR
STARTCHAR 0117
ENCODING 279
SWIDTH 520 0
DWIDTH 13 0
BBX 11 18 1 0
BITMAP
0600
0600
0600
0000
0000
0000
1F00
30C0
6040
C060
FFE0
C000
C000
C000
C020
6060
30C0
1F00
ENDCHAR
STARTCHAR 0118
ENCODING 280
SWIDTH 680 0
DWIDTH 17 0
BBX 14 21 2 -4
BITMAP
FFF0
3030
3010
3018
3008
3080
3080
3180
3F80
3180
3080
3084
3004
3008
3018
3038
FFF0
0020
0040
0048
0070
ENDCHAR
STARTCHAR 0119
ENCODING 281
SWIDTH 520 0
DWIDTH 13 0
BBX 11 16 1 -4
BITMAP
1F00
30C0
6040
C060
FFE0
C000
C000
C000
C020
6060
30C0
1F00
0200
0400
0480
0700
ENDCHAR
STARTCHAR 011A
ENCODING 282
SWIDTH 680 0
DWIDTH 17 0
BBX 14 21 2 0
BITMAP
1040
0D80
0200
0000
FFF0
3030
3010
3018
3008
3080
3080
3180
3F80
3180
3080
3084
3004
3008
3018
3038
FFF0
ENDCHAR
STARTCHAR 011B
ENCODING 283
SWIDTH 520 0
DWIDTH 13 0
BBX 11 18 1 0
BITMAP
2080
1B00
0400
0000
0000
0000
1F00
30C0
6040
C060
FFE0
C000
C000
C000
C020
6060
30C0
1F00
ENDCHAR
STARTCHAR 011C
ENCODING 284
SWIDTH 800 0
DWIDTH 20 0
BBX 18 21 1 0
BITMAP
010000
06C000
082000
000000
03F200
0C1E00
380600
300200
600300
600100
C00000
C00000
C00000
C01FC0
C00300
600300
600300
300300
380700
0E0F00
03F900
ENDCHAR
STARTCHAR 011D
ENCODING 285
SWIDTH 560 0
DWIDTH 14 0
BBX 11 23 2 -5
BITMAP
0400
1B00
2080
0000
0000
0000
3E60
6380
C180
C180
C180
C180
6300
7E00
C000
E000
7F00
2FC0
60E0
C060
C060
E0C0
3F00
ENDCHAR
STARTCHAR 011E
ENCODING 286
SWIDTH 800 0
DWIDTH 20 0
BBX 18 20 1 0
BITMAP
060800
03F000
000000
03F200
0C1E00
380600
300200
600300
600100
C00000
C00000
C00000
C01FC0
C00300
600300
600300
300300
380700
0E0F00
03F900
ENDCHAR
STARTCHAR 011F
ENCODING 287
SWIDTH 560 0
DWIDTH 14 0
BBX 11 22 2 -5
BITMAP
6080
3F00
0000
0000
0000
3E60
6380
C180
C180
C180
C180
6300
7E00
C000
E000
7F00
2FC0
60E0
C060
C060
E0C0
3F00
ENDCHAR
STARTCHAR 0120
ENCODING 288
SWIDTH 800 0
DWIDTH 20 0
BBX 18 21 1 0
BITMAP
018000
018000
018000
000000
03F200
0C1E00
380600
300200
600300
600100
C00000
C00000
C00000
C01FC0
C00300
600300
600300
300300
380700
0E0F00
03F900
ENDCHAR
STARTCHAR 0121
ENCODING 289
SWIDTH 560 0
DWIDTH 14 0
BBX 11 23 2 -5
BITMAP
0C00
0C00
0C00
0000
0000
0000
3E60
6380
C180
C180
C180
C180
6300
7E00
C000
E000
7F00
2FC0
60E0
C060
C060
E0C0
3F00
ENDCHAR
STARTCHAR 0122
ENCODING 290
SWIDTH 800 0
DWIDTH 20 0
BBX 18 22 1 -5
BITMAP
03F200
0C1E00
380600
300200
600300
600100
C00000
C00000
C00000
C01FC0
C00300
600300
600300
300300
380700
0E0F00
03F900
010000
038000
004000
004000
078000
ENDCHAR
STARTCHAR 0123
ENCODING 291
SWIDTH 560 0
DWIDTH 14 0
BBX 11 25 2 -5
BITMAP
0800
1000
1000
1800
1800
0000
0000
0000
3E60
6380
C180
C180
C180
C180
6300
7E00
C000
E000
7F00
2FC0
60E0
C060
C060
E0C0
3F00
ENDCHAR
STARTCHAR 0124
ENCODING 292
SWIDTH 800 0
DWIDTH 20 0
BBX 16 21 2 0
BITMAP
0080
0360
0410
0000
FC3F
300C
300C
300C
300C
300C
300C
300C
3FFC
300C
300C
300C
300C
300C
300C
300C
FC3F
ENDCHAR
STARTCHAR 0125
ENCODING 293
SWIDTH 680 0
DWIDTH 17 0
BBX 15 22 1 0
BITMAP
0100
06C0
0820
0000
3000
F000
3000
3000
3000
3000
33E0
3430
3818
3018
3018
3018
3018
3018
3018
3018
3018
FC7E
ENDCHAR
STARTCHAR 0126
ENCODING 294
SWIDTH 800 0
DWIDTH 20 0
BBX 16 17 2 0
BITMAP
FC3F
300C
300C
300C
FFFF
300C
300C
300C
3FFC
300C
300C
300C
300C
300C
300C
300C
FC3F
ENDCHAR
STARTCHAR 0127
ENCODING 295
SWIDTH 680 0
DWIDTH 17 0
BBX 15 18 1 0
BITMAP
3000
F000
3000
3000
FF80
3000
33E0
3C30
3818
3018
3018
3018
3018
3018
3018
3018
3018
FC7E
ENDCHAR
STARTCHAR 0128
ENCODING 296
SWIDTH 360 0
DWIDTH 9 0
BBX 8 20 0 0
BITMAP
71
8E
00
7E
18
18
18
18
18
18
18
18
18
18
18
18
18
18
18
7E
ENDCHAR
STARTCHAR 0129
ENCODING 297
SWIDTH 320 0
DWIDTH 8 0
BBX 8 17 0 0
BITMAP
71
8E
00
00
00
18
78
18
18
18
18
18
18
18
18
18
7E
ENDCHAR
STARTCHAR 012A
ENCODING 298
SWIDTH 360 0
DWIDTH 9 0
BBX 8 19 0 0
BITMAP
FF
00
7E
18
18
18
18
18
18
18
18
18
18
18
18
18
18
18
7E
ENDCHAR
STARTCHAR 012B
ENCODING 299
SWIDTH 320 0
DWIDTH 8 0
BBX 8 16 0 0
BITMAP
FF
00
00
00
18
78
18
18
18
18
18
18
18
18
18
7E
ENDCHAR
STARTCHAR 012C
ENCODING 300
SWIDTH 360 0
DWIDTH 9 0
BBX 8 20 0 0
BITMAP
C1
7E
00
7E
18
18
18
18
18
18
18
18
18
18
18
18
18
18
18
7E
ENDCHAR
STARTCHAR 012D
ENCODING 301
SWIDTH 320 0
DWIDTH 8 0
BBX 8 17 0 0
BITMAP
C1
7E
00
00
00
18
78
18
18
18
18
18
18
18
18
18
7E
ENDCHAR
STARTCHAR 012E
ENCODING 302
SWIDTH 360 0
DWIDTH 9 0
BBX 6 21 1 -4
BITMAP
FC
30
30
30
30
30
30
30
30
30
30
30
30
30
30
30
FC
20
40
48
70
ENDCHAR
STARTCHAR 012F
ENCODING 303
SWIDTH 320 0
DWIDTH 8 0
BBX 6 22 1 -4
BITMAP
30
30
30
00
00
00
30
F0
30
30
30
30
30
30
30
30
30
FC
10
20
24
38
ENDCHAR
STARTCHAR 0130
ENCODING 304
SWIDTH 360 0
DWIDTH 9 0
BBX 6 21 1 0
BITMAP
30
30
30
00
FC
30
30
30
30
30
30
30
30
30
30
30
30
30
30
30
FC
ENDCHAR
STARTCHAR 0131
ENCODING 305
SWIDTH 320 0
DWIDTH 8 0
BBX 6 12 1 0
BITMAP
30
F0
30
30
30
30
30
30
30
30
30
FC
ENDCHAR
STARTCHAR 0132
ENCODING 306
SWIDTH 960 0
DWIDTH 24 0
BBX 22 17 1 0
BITMAP
FC00FC
300030
300030
300030
300030
300030
300030
300030
300030
300030
30C030
30C030
30C030
30C030
304060
3020C0
FC1F80
ENDCHAR
STARTCHAR 0133
ENCODING 307
SWIDTH 600 0
DWIDTH 15 0
BBX 11 23 1 -5
BITMAP
3060
3060
3060
0000
0000
0000
3060
F1E0
3060
3060
3060
3060
3060
3060
3060
3060
3060
FC60
0060
0060
0060
0C40
0780
ENDCHAR
STARTCHAR 0134
ENCODING 308
SWIDTH 600 0
DWIDTH 15 0
BBX 15 21 0 0
BITMAP
0010
006C
0082
0000
00FC
0030
0030
0030
0030
0030
0030
0030
0030
0030
C030
C030
C030
C030
4060
20C0
1F80
ENDCHAR
STARTCHAR 0135
ENCODING 309
SWIDTH 320 0
DWIDTH 8 0
BBX 8 23 -2 -5
BITMAP
08
3E
63
00
00
00
06
1E
06
06
06
06
06
06
06
06
06
06
06
06
06
C4
78
ENDCHAR
STARTCHAR 0136
ENCODING 310
SWIDTH 720 0
DWIDTH 18 0
BBX 16 22 2 -5
BITMAP
FC3E
3018
3010
3020
3040
3080
3100
3300
3780
3980
38C0
3060
3070
3030
3018
301C
FC7F
0000
0380
0040
0240
0180
ENDCHAR
STARTCHAR 0137
ENCODING 311
SWIDTH 640 0
DWIDTH 16 0
BBX 15 23 1 -5
BITMAP
3000
F000
3000
3000
3000
3000
30FC
3070
30E0
3180
3700
3F00
3980
30C0
3060
3030
3038
FCFE
0000
0700
0080
0480
0300
ENDCHAR
STARTCHAR 0138
ENCODING 312
SWIDTH 640 0
DWIDTH 16 0
BBX 15 12 1 0
BITMAP
30FC
F070
30C0
3180
3700
3F00
3980
30C0
3060
3030
3018
FC7E
ENDCHAR
STARTCHAR 0139
ENCODING 313
SWIDTH 600 0
DWIDTH 15 0
BBX 13 21 2 0
BITMAP
0C00
3C00
6000
0000
FC00
3000
3000
3000
3000
3000
3000
3000
3000
3000
3000
3008
3018
3010
3030
3070
FFE0
ENDCHAR
STARTCHAR 013A
ENCODING 314
SWIDTH 320 0
DWIDTH 8 0
BBX 6 22 1 0
BITMAP
18
78
C0
00
30
F0
30
30
30
30
30
30
30
30
30
30
30
30
30
30
30
FC
ENDCHAR
STARTCHAR 013B
ENCODING 315
SWIDTH 600 0
DWIDTH 15 0
BBX 13 22 2 -5
BITMAP
FC00
3000
3000
3000
3000
3000
3000
3000
3000
3000
3000
3008
3018
3010
3030
3070
FFE0
0000
0E00
0100
0900
0600
ENDCHAR
STARTCHAR 013C
ENCODING 316
SWIDTH 320 0
DWIDTH 8 0
BBX 6 23 1 -5
BITMAP
30
F0
30
30
30
30
30
30
30
30
30
30
30
30
30
30
30
FC
00
70
08
48
30
ENDCHAR
STARTCHAR 013D
ENCODING 317
SWIDTH 600 0
DWIDTH 15 0
BBX 13 17 2 0
BITMAP
FCC0
30E0
3020
3020
3040
3040
3080
3000
3000
3000
3000
3008
3018
3010
3030
3070
FFE0
ENDCHAR
STARTCHAR 013E
ENCODING 318
SWIDTH 360 0
DWIDTH 9 0
BBX 8 18 1 0
BITMAP
36
F7
31
31
32
32
34
30
30
30
30
30
30
30
30
30
30
FC
ENDCHAR
STARTCHAR 013F
ENCODING 319
SWIDTH 600 0
DWIDTH 15 0
BBX 13 17 2 0
BITMAP
FC00
3000
3000
3000
3000
3000
3000
3300
3300
3300
3000
3008
3018
3010
3030
3070
FFE0
ENDCHAR
STARTCHAR 0140
ENCODING 320
SWIDTH 320 0
DWIDTH 8 0
BBX 7 18 1 0
BITMAP
30
F0
30
30
30
30
30
30
36
36
36
30
30
30
30
30
30
FC
ENDCHAR
STARTCHAR 0141
ENCODING 321
SWIDTH 600 0
DWIDTH 15 0
BBX 13 17 2 0
BITMAP
FC00
3000
3000
3000
3100
3200
3400
3800
3800
3000
3000
F000
3008
3010
3030
3070
FFE0
ENDCHAR
STARTCHAR 0142
ENCODING 322
SWIDTH 320 0
DWIDTH 8 0
BBX 6 18 1 0
BITMAP
30
F0
30
30
30
30
34
38
30
70
F0
30
30
30
30
30
30
FC
ENDCHAR
STARTCHAR 0143
ENCODING 323
SWIDTH 760 0
DWIDTH 19 0
BBX 17 21 1 0
BITMAP
006000
01E000
030000
000000
F81F80
3C0600
3E0600
360600
330600
330600
318600
31C600
30C600
306600
307600
303600
303E00
301E00
300E00
300E00
FC0600
ENDCHAR
STARTCHAR 0144
ENCODING 324
SWIDTH 680 0
DWIDTH 17 0
BBX 15 18 1 0
BITMAP
0180
0780
0C00
0000
0000
0000
33E0
F430
3818
3018
3018
3018
3018
3018
3018
3018
3018
FC7E
ENDCHAR
STARTCHAR 0145
ENCODING 325
SWIDTH 760 0
DWIDTH 19 0
BBX 17 22 1 -5
BITMAP
F81F80
3C0600
3E0600
360600
330600
330600
318600
31C600
30C600
306600
307600
303600
303E00
301E00
300E00
300E00
FC0600
000000
038000
004000
024000
018000
ENDCHAR
STARTCHAR 0146
ENCODING 326
SWIDTH 680 0
DWIDTH 17 0
BBX 15 17 1 -5
BITMAP
33E0
F430
3818
3018
3018
3018
3018
3018
3018
3018
3018
FC7E
0000
0700
0080
0480
0300
ENDCHAR
STARTCHAR 0147
ENCODING 327
SWIDTH 760 0
DWIDTH 19 0
BBX 17 21 1 0
BITMAP
041000
036000
008000
000000
F81F80
3C0600
3E0600
360600
330600
330600
318600
31C600
30C600
306600
307600
303600
303E00
301E00
300E00
300E00
FC0600
ENDCHAR
STARTCHAR 0148
ENCODING 328
SWIDTH 680 0
DWIDTH 17 0
BBX 15 18 1 0
BITMAP
1040
0D80
0200
0000
0000
0000
33E0
F430
3818
3018
3018
3018
3018
3018
3018
3018
3018
FC7E
ENDCHAR
STARTCHAR 0149
ENCODING 329
SWIDTH 760 0
DWIDTH 19 0
BBX 19 17 -1 0
BITMAP
600000
700000
700000
100000
200000
433E00
8F4300
038180
030180
030180
030180
030180
030180
030180
030180
030180
0FC7E0
ENDCHAR
STARTCHAR 014A
ENCODING 330
SWIDTH 800 0
DWIDTH 20 0
BBX 18 17 1 0
BITMAP
F1F800
360E00
3C0300
380180
300180
3000C0
3000C0
3000C0
3000C0
3000C0
3000C0
31C0C0
31C080
318180
318100
30C300
FC7C00
ENDCHAR
STARTCHAR 014B
ENCODING 331
SWIDTH 640 0
DWIDTH 16 0
BBX 13 17 1 -5
BITMAP
31E0
F630
3818
3018
3018
3018
3018
3018
3018
3018
3018
FC18
0018
0018
0618
0730
03E0
ENDCHAR
STARTCHAR 014C
ENCODING 332
SWIDTH 800 0
DWIDTH 20 0
BBX 18 19 1 0
BITMAP
07F800
000000
03F000
0C0C00
180300
300180
600180
6001C0
C000C0
C000C0
C000C0
C000C0
C000C0
C001C0
600180
700300
380700
0C0C00
03F000
ENDCHAR
STARTCHAR 014D
ENCODING 333
SWIDTH 560 0
DWIDTH 14 0
BBX 12 16 1 0
BITMAP
3FC0
0000
0000
0000
1F80
30C0
6060
C030
C030
C030
C030
C030
C030
6060
30C0
1F80
ENDCHAR
STARTCHAR 014E
ENCODING 334
SWIDTH 800 0
DWIDTH 20 0
BBX 18 20 1 0
BITMAP
060800
03F000
000000
03F000
0C0C00
180300
300180
600180
6001C0
C000C0
C000C0
C000C0
C000C0
C000C0
C001C0
600180
700300
380700
0C0C00
03F000
ENDCHAR
STARTCHAR 014F
ENCODING 335
SWIDTH 560 0
DWIDTH 14 0
BBX 12 17 1 0
BITMAP
3040
1F80
0000
0000
0000
1F80
30C0
6060
C030
C030
C030
C030
C030
C030
6060
30C0
1F80
ENDCHAR
STARTCHAR 0150
ENCODING 336
SWIDTH 800 0
DWIDTH 20 0
BBX 18 22 1 0
BITMAP
009000
009000
012000
012000
000000
03F000
0C0C00
180300
300180
600180
6001C0
C000C0
C000C0
C000C0
C000C0
C000C0
C001C0
600180
700300
380700
0C0C00
03F000
ENDCHAR
STARTCHAR 0151
ENCODING 337
SWIDTH 560 0
DWIDTH 14 0
BBX 12 17 1 0
BITMAP
0480
0480
0900
0900
0000
1F80
30C0
6060
C030
C030
C030
C030
C030
C030
6060
30C0
1F80
ENDCHAR
STARTCHAR 0152
ENCODING 338
SWIDTH 1240 0
DWIDTH 31 0
BBX 29 17 1 0
BITMAP
03F1FFE0
0C0980E0
30058030
30038030
60018010
C0018200
C0018200
C0018600
C001FE00
C0018600
C0018200
C0018208
60018018
60038010
30058030
0C0980F0
07F1FFE0
ENDCHAR
STARTCHAR 0153
ENCODING 339
SWIDTH 920 0
DWIDTH 23 0
BBX 20 12 1 0
BITMAP
1F0780
31D860
60F020
C06030
C07FF0
C06000
C06000
C06000
C07010
60F030
31D860
1F0F80
ENDCHAR
STARTCHAR 0154
ENCODING 340
SWIDTH 720 0
DWIDTH 18 0
BBX 16 21 2 0
BITMAP
00C0
03C0
0600
0000
FFF0
301C
300E
3006
3006
3006
300C
301C
3FF0
3180
30C0
3060
3070
3038
3018
300C
FC07
ENDCHAR
STARTCHAR 0155
ENCODING 341
SWIDTH 440 0
DWIDTH 11 0
BBX 10 18 1 0
BITMAP
0300
0F00
1800
0000
0000
0000
3380
F5C0
38C0
3000
3000
3000
3000
3000
3000
3000
3000
FC00
ENDCHAR
STARTCHAR 0156
ENCODING 342
SWIDTH 720 0
DWIDTH 18 0
BBX 16 22 2 -5
BITMAP
FFF0
301C
300E
3006
3006
3006
300C
301C
3FF0
3180
30C0
3060
3070
3038
3018
300C
FC07
0000
0380
0040
0240
0180
ENDCHAR
STARTCHAR 0157
ENCODING 343
SWIDTH 440 0
DWIDTH 11 0
BBX 10 17 1 -5
BITMAP
3380
F5C0
38C0
3000
3000
3000
3000
3000
3000
3000
3000
FC00
0000
1C00
0200
1200
0C00
ENDCHAR
STARTCHAR 0158
ENCODING 344
SWIDTH 720 0
DWIDTH 18 0
BBX 16 21 2 0
BITMAP
0820
06C0
0100
0000
FFF0
301C
300E
3006
3006
3006
300C
301C
3FF0
3180
30C0
3060
3070
3038
3018
300C
FC07
ENDCHAR
STARTCHAR 0159
ENCODING 345
SWIDTH 440 0
DWIDTH 11 0
BBX 10 18 1 0
BITMAP
4100
3600
0800
0000
0000
0000
3380
F5C0
38C0
3000
3000
3000
3000
3000
3000
3000
3000
FC00
ENDCHAR
STARTCHAR 015A
ENCODING 346
SWIDTH 680 0
DWIDTH 17 0
BBX 13 21 2 0
BITMAP
0180
0780
0C00
0000
1F20
61E0
C060
C030
C030
E010
7000
3E00
0FC0
01F0
0038
8018
C018
C018
6030
5860
4FC0
ENDCHAR
STARTCHAR 015B
ENCODING 347
SWIDTH 520 0
DWIDTH 13 0
BBX 10 18 2 0
BITMAP
0300
0F00
1800
0000
0000
0000
3D00
6300
C180
E080
7800
3E00
0F80
81C0
C0C0
60C0
7180
5F00
ENDCHAR
STARTCHAR 015C
ENCODING 348
SWIDTH 680 0
DWIDTH 17 0
BBX 13 21 2 0
BITMAP
0200
0D80
1040
0000
1F20
61E0
C060
C030
C030
E010
7000
3E00
0FC0
01F0
0038
8018
C018
C018
6030
5860
4FC0
ENDCHAR
STARTCHAR 015D
ENCODING 349
SWIDTH 520 0
DWIDTH 13 0
BBX 10 18 2 0
BITMAP
0800
3600
4100
0000
0000
0000
3D00
6300
C180
E080
7800
3E00
0F80
81C0
C0C0
60C0
7180
5F00
ENDCHAR
STARTCHAR 015E
ENCODING 350
SWIDTH 680 0
DWIDTH 17 0
BBX 13 22 2 -5
BITMAP
1F20
61E0
C060
C030
C030
E010
7000
3E00
0FC0
01F0
0038
8018
C018
C018
6030
5860
4FC0
0100
0380
0040
0040
0780
ENDCHAR
STARTCHAR 015F
ENCODING 351
SWIDTH 520 0
DWIDTH 13 0
BBX 10 17 2 -5
BITMAP
3D00
6300
C180
E080
7800
3E00
0F80
81C0
C0C0
60C0
7180
5F00
0400
0E00
0100
0100
1E00
ENDCHAR
STARTCHAR 0160
ENCODING 352
SWIDTH 680 0
DWIDTH 17 0
BBX 13 21 2 0
BITMAP
2080
1B00
0400
0000
1F20
61E0
C060
C030
C030
E010
7000
3E00
0FC0
01F0
0038
8018
C018
C018
6030
5860
4FC0
ENDCHAR
STARTCHAR 0161
ENCODING 353
SWIDTH 520 0
DWIDTH 13 0
BBX 10 18 2 0
BITMAP
4100
3600
0800
0000
0000
0000
3D00
6300
C180
E080
7800
3E00
0F80
81C0
C0C0
60C0
7180
5F00
ENDCHAR
STARTCHAR 0162
ENCODING 354
SWIDTH 640 0
DWIDTH 16 0
BBX 16 24 0 -6
BITMAP
2004
7FFC
718E
4182
C182
8181
0180
0180
0180
0180
0180
0180
0180
0180
0180
0180
0180
07E0
0000
0180
01C0
0040
0080
0100
ENDCHAR
STARTCHAR 0163
ENCODING 355
SWIDTH 400 0
DWIDTH 10 0
BBX 9 22 1 -6
BITMAP
1000
1000
3000
7000
FF00
3000
3000
3000
3000
3000
3000
3000
3000
3000
3880
1F00
0000
1800
1C00
0400
0800
1000
ENDCHAR
STARTCHAR 0164
ENCODING 356
SWIDTH 640 0
DWIDTH 16 0
BBX 16 21 0 0
BITMAP
0410
0360
0080
2004
7FFC
718E
4182
C182
8181
0180
0180
0180
0180
0180
0180
0180
0180
0180
0180
0180
07E0
ENDCHAR
STARTCHAR 0165
ENCODING 357
SWIDTH 360 0
DWIDTH 9 0
BBX 9 18 1 0
BITMAP
0300
0380
1080
1100
3200
7000
FF00
3000
3000
3000
3000
3000
3000
3000
3000
3000
3880
1F00
ENDCHAR
STARTCHAR 0166
ENCODING 358
SWIDTH 640 0
DWIDTH 16 0
BBX 16 18 0 0
BITMAP
2004
7FFE
6186
4182
8181
0180
0180
0180
0180
3FFC
0180
0180
0180
0180
0180
0180
0180
0FF0
ENDCHAR
STARTCHAR 0167
ENCODING 359
SWIDTH 400 0
DWIDTH 10 0
BBX 9 16 1 0
BITMAP
1000
1000
3000
7000
FF00
3000
3000
3000
FF00
3000
3000
3000
3000
3000
3080
1F00
ENDCHAR
STARTCHAR 0168
ENCODING 360
SWIDTH 800 0
DWIDTH 20 0
BBX 18 20 1 0
BITMAP
038800
047000
000000
FC0FC0
300300
300300
300300
300300
300300
300300
300300
300300
300300
300300
300300
300300
300600
180600
0E1C00
03F000
ENDCHAR
STARTCHAR 0169
ENCODING 361
SWIDTH 680 0
DWIDTH 17 0
BBX 15 17 1 0
BITMAP
0710
08E0
0000
0000
0000
F078
3018
3018
3018
3018
3018
3018
3018
3018
3038
1858
0F9E
ENDCHAR
STARTCHAR 016A
ENCODING 362
SWIDTH 800 0
DWIDTH 20 0
BBX 18 19 1 0
BITMAP
07F800
000000
FC0FC0
300300
300300
300300
300300
300300
300300
300300
300300
300300
300300
300300
300300
300600
180600
0E1C00
03F000
ENDCHAR
STARTCHAR 016B
ENCODING 363
SWIDTH 680 0
DWIDTH 17 0
BBX 15 16 1 0
BITMAP
0FF0
0000
0000
0000
F078
3018
3018
3018
3018
3018
3018
3018
3018
3038
1858
0F9E
ENDCHAR
STARTCHAR 016C
ENCODING 364
SWIDTH 800 0
DWIDTH 20 0
BBX 18 20 1 0
BITMAP
060800
03F000
000000
FC0FC0
300300
300300
300300
300300
300300
300300
300300
300300
300300
300300
300300
300300
300600
180600
0E1C00
03F000
ENDCHAR
STARTCHAR 016D
ENCODING 365
SWIDTH 680 0
DWIDTH 17 0
BBX 15 17 1 0
BITMAP
0C10
07E0
0000
0000
0000
F078
3018
3018
3018
3018
3018
3018
3018
3018
3038
1858
0F9E
ENDCHAR
STARTCHAR 016E
ENCODING 366
SWIDTH 800 0
DWIDTH 20 0
BBX 18 23 1 0
BITMAP
00E000
011000
011000
011000
00E000
000000
FC0FC0
300300
300300
300300
300300
300300
300300
300300
300300
300300
300300
300300
300300
300600
180600
0E1C00
03F000
ENDCHAR
STARTCHAR 016F
ENCODING 367
SWIDTH 680 0
DWIDTH 17 0
BBX 15 20 1 0
BITMAP
0380
0440
0440
0440
0380
0000
0000
0000
F078
3018
3018
3018
3018
3018
3018
3018
3018
3038
1858
0F9E
ENDCHAR
STARTCHAR 0170
ENCODING 368
SWIDTH 800 0
DWIDTH 20 0
BBX 18 22 1 0
BITMAP
009000
009000
012000
012000
000000
FC0FC0
300300
300300
300300
300300
300300
300300
300300
300300
300300
300300
300300
300300
300600
180600
0E1C00
03F000
ENDCHAR
STARTCHAR 0171
ENCODING 369
SWIDTH 680 0
DWIDTH 17 0
BBX 15 17 1 0
BITMAP
0120
0120
0240
0240
0000
F078
3018
3018
3018
3018
3018
3018
3018
3018
3038
1858
0F9E
ENDCHAR
STARTCHAR 0172
ENCODING 370
SWIDTH 800 0
DWIDTH 20 0
BBX 18 21 1 -4
BITMAP
FC0FC0
300300
300300
300300
300300
300300
300300
300300
300300
300300
300300
300300
300300
300600
180600
0E1C00
03F000
008000
010000
012000
01C000
ENDCHAR
STARTCHAR 0173
ENCODING 371
SWIDTH 680 0
DWIDTH 17 0
BBX 15 16 1 -4
BITMAP
F078
3018
3018
3018
3018
3018
3018
3018
3018
3038
1858
0F9E
0008
0010
0012
001C
ENDCHAR
STARTCHAR 0174
ENCODING 372
SWIDTH 960 0
DWIDTH 24 0
BBX 23 21 0 0
BITMAP
001000
006C00
008200
000000
FCFC3E
30700C
303018
303018
183018
183830
183830
0C7830
0C6C60
0C6C60
046C60
06C6C0
06C6C0
028280
038380
038380
010100
ENDCHAR
STARTCHAR 0175
ENCODING 373
SWIDTH 800 0
DWIDTH 20 0
BBX 19 18 0 0
BITMAP
004000
01B000
020800
000000
000000
000000
F9F3E0
70E080
306080
306180
18F100
18B100
18B300
0D1A00
0D1A00
0D1A00
060C00
060C00
ENDCHAR
STARTCHAR 0176
ENCODING 374
SWIDTH 640 0
DWIDTH 16 0
BBX 16 21 0 0
BITMAP
0080
0360
0410
0000
FC1F
380E
180C
1C18
0C18
0E30
0660
0360
03C0
0180
0180
0180
0180
0180
0180
0180
07E0
ENDCHAR
STARTCHAR 0177
ENCODING 375
SWIDTH 560 0
DWIDTH 14 0
BBX 14 23 0 -5
BITMAP
0200
0D80
1040
0000
0000
0000
FC7C
3010
3030
1820
1820
1C40
0C40
0E80
0680
0680
0300
0300
0200
0200
0400
C400
F800
ENDCHAR
STARTCHAR 0178
ENCODING 376
SWIDTH 640 0
DWIDTH 16 0
BBX 16 21 0 0
BITMAP
06C0
06C0
06C0
0000
FC1F
380E
180C
1C18
0C18
0E30
0660
0360
03C0
0180
0180
0180
0180
0180
0180
0180
07E0
ENDCHAR
STARTCHAR 0179
ENCODING 377
SWIDTH 640 0
DWIDTH 16 0
BBX 15 21 1 0
BITMAP
0060
01E0
0300
0000
3FFC
7818
6038
C030
0060
00C0
01C0
0180
0300
0600
0E00
0C02
1806
3004
700C
603C
FFF8
ENDCHAR
STARTCHAR 017A
ENCODING 378
SWIDTH 480 0
DWIDTH 12 0
BBX 12 18 0 0
BITMAP
00C0
03C0
0600
0000
0000
0000
3FF0
7060
40C0
81C0
0380
0700
0E00
1C10
3830
7020
60E0
FFC0
ENDCHAR
STARTCHAR 017B
ENCODING 379
SWIDTH 640 0
DWIDTH 16 0
BBX 15 21 1 0
BITMAP
0300
0300
0300
0000
3FFC
7818
6038
C030
0060
00C0
01C0
0180
0300
0600
0E00
0C02
1806
3004
700C
603C
FFF8
ENDCHAR
STARTCHAR 017C
ENCODING 380
SWIDTH 480 0
DWIDTH 12 0
BBX 12 18 0 0
BITMAP
0600
0600
0600
0000
0000
0000
3FF0
7060
40C0
81C0
0380
0700
0E00
1C10
3830
7020
60E0
FFC0
ENDCHAR
STARTCHAR 017D
ENCODING 381
SWIDTH 640 0
DWIDTH 16 0
BBX 15 21 1 0
BITMAP
0820
06C0
0100
0000
3FFC
7818
6038
C030
0060
00C0
01C0
0180
0300
0600
0E00
0C02
1806
3004
700C
603C
FFF8
ENDCHAR
STARTCHAR 017E
ENCODING 382
SWIDTH 480 0
DWIDTH 12 0
BBX 12 18 0 0
BITMAP
1040
0D80
0200
0000
0000
0000
3FF0
7060
40C0
81C0
0380
0700
0E00
1C10
3830
7020
60E0
FFC0
ENDCHAR
STARTCHAR 017F
ENCODING 383
SWIDTH 320 0
DWIDTH 8 0
BBX 9 18 1 0
BITMAP
0F00
1180
3000
3000
3000
3000
3000
3000
3000
3000
3000
3000
3000
3000
3000
3000
3000
FC00
ENDCHAR
STARTCHAR 0192
ENCODING 402
SWIDTH 640 0
DWIDTH 16 0
BBX 18 22 -2 -4
BITMAP
000F80
0019C0
0030C0
003000
006000
006000
03FC00
00C000
00C000
00C000
00C000
018000
018000
018000
038000
030000
030000
030000
060000
060000
CC0000
F80000
ENDCHAR
STARTCHAR 01FA
ENCODING 506
SWIDTH 680 0
DWIDTH 17 0
BBX 17 25 -1 0
BITMAP
006000
01E000
030000
000000
01C000
022000
022000
022000
01C000
01C000
036000
036000
036000
063000
063000
063000
0C1800
0C1800
0FF800
180C00
180C00
180C00
300600
300600
FC1F80
ENDCHAR
STARTCHAR 01FB
ENCODING 507
SWIDTH 600 0
DWIDTH 15 0
BBX 14 24 1 0
BITMAP
00C0
03C0
0600
0000
0700
0880
0880
0880
0700
0000
0000
0000
1F80
30C0
6060
6060
0060
07E0
3C60
6060
C060
C0E0
E3E0
3E3C
ENDCHAR
STARTCHAR 01FC
ENCODING 508
SWIDTH 1280 0
DWIDTH 32 0
BBX 30 21 0 0
BITMAP
00006000
0001E000
00030000
00000000
007FFFF0
0030C030
0030C018
0060C018
00E0C008
00C0C100
0180C100
0180C300
03FFFF00
0700C300
0600C100
0C00C104
0C00C00C
1800C008
3800C018
3000C078
FC03FFF0
ENDCHAR
STARTCHAR 01FD
ENCODING 509
SWIDTH 880 0
DWIDTH 22 0
BBX 20 18 1 0
BITMAP
001800
007800
00C000
000000
000000
000000
0F8F80
30D860
707020
606030
607FF0
07E000
3C6000
606000
C07010
C0F030
E39860
3E0F80
ENDCHAR
STARTCHAR 01FE
ENCODING 510
SWIDTH 800 0
DWIDTH 20 0
BBX 18 21 1 0
BITMAP
003000
00F000
018000
000000
03F0C0
0C0D80
180300
300700
600D80
4019C0
C030C0
C020C0
C040C0
C080C0
C100C0
6201C0
640180
380300
300700
2C0C00
43F000
ENDCHAR
STARTCHAR 01FF
ENCODING 511
SWIDTH 560 0
DWIDTH 14 0
BBX 12 18 1 0
BITMAP
0180
0780
0C00
0000
0000
0000
0F90
30E0
6060
C0B0
C130
C230
C430
C830
D030
7060
30C0
5F80
ENDCHAR
STARTCHAR 02C6
ENCODING 710
SWIDTH 440 0
DWIDTH 11 0
BBX 7 3 1 14
BITMAP
10
6C
82
ENDCHAR
STARTCHAR 02C7
ENCODING 711
SWIDTH 440 0
DWIDTH 11 0
BBX 7 3 1 14
BITMAP
82
6C
10
ENDCHAR
STARTCHAR 02C9
ENCODING 713
SWIDTH 440 0
DWIDTH 11 0
BBX 8 1 1 15
BITMAP
FF
ENDCHAR
STARTCHAR 02D8
ENCODING 728
SWIDTH 480 0
DWIDTH 12 0
BBX 8 2 1 15
BITMAP
C1
7E
ENDCHAR
STARTCHAR 02D9
ENCODING 729
SWIDTH 280 0
DWIDTH 7 0
BBX 2 3 1 14
BITMAP
C0
C0
C0
ENDCHAR
STARTCHAR 02DA
ENCODING 730
SWIDTH 320 0
DWIDTH 8 0
BBX 5 5 1 14
BITMAP
70
88
88
88
70
ENDCHAR
STARTCHAR 02DB
ENCODING 731
SWIDTH 320 0
DWIDTH 8 0
BBX 4 4 2 -4
BITMAP
40
80
90
E0
ENDCHAR
STARTCHAR 02DC
ENCODING 732
SWIDTH 440 0
DWIDTH 11 0
BBX 8 2 1 14
BITMAP
71
8E
ENDCHAR
STARTCHAR 02DD
ENCODING 733
SWIDTH 400 0
DWIDTH 10 0
BBX 5 4 3 13
BITMAP
48
48
90
90
ENDCHAR
STARTCHAR 037E
ENCODING 894
SWIDTH 320 0
DWIDTH 8 0
BBX 4 16 2 -4
BITMAP
60
60
60
00
00
00
00
00
00
60
70
70
10
20
40
80
ENDCHAR
STARTCHAR 0384
ENCODING 900
SWIDTH 440 0
DWIDTH 11 0
BBX 2 5 4 13
BITMAP
C0
C0
C0
C0
80
ENDCHAR
STARTCHAR 0385
ENCODING 901
SWIDTH 440 0
DWIDTH 11 0
BBX 8 5 1 13
BITMAP
18
18
DB
DB
D3
ENDCHAR
STARTCHAR 0386
ENCODING 902
SWIDTH 680 0
DWIDTH 17 0
BBX 17 17 -1 0
BITMAP
31C000
31C000
336000
336000
236000
063000
063000
063000
0C1800
0C1800
0FF800
180C00
180C00
180C00
300600
300600
FC1F80
ENDCHAR
STARTCHAR 0387
ENCODING 903
SWIDTH 320 0
DWIDTH 8 0
BBX 3 3 3 9
BITMAP
E0
E0
E0
ENDCHAR
STARTCHAR 0388
ENCODING 904
SWIDTH 760 0
DWIDTH 19 0
BBX 18 17 -1 0
BITMAP
CFFF00
C30300
C30100
C30180
830080
030800
030800
031800
03F800
031800
030800
030840
030040
030080
030180
030380
0FFF00
ENDCHAR
STARTCHAR 0389
ENCODING 905
SWIDTH 840 0
DWIDTH 21 0
BBX 20 17 -1 0
BITMAP
CFC3F0
C300C0
C300C0
C300C0
8300C0
0300C0
0300C0
0300C0
03FFC0
0300C0
0300C0
0300C0
0300C0
0300C0
0300C0
0300C0
0FC3F0
ENDCHAR
STARTCHAR 038A
ENCODING 906
SWIDTH 400 0
DWIDTH 10 0
BBX 10 17 -1 0
BITMAP
CFC0
C300
C300
C300
8300
0300
0300
0300
0300
0300
0300
0300
0300
0300
0300
0300
0FC0
ENDCHAR
STARTCHAR 038C
ENCODING 908
SWIDTH 800 0
DWIDTH 20 0
BBX 20 17 -1 0
BITMAP
C0FC00
C30300
C600C0
CC0060
980060
380070
300030
300030
300030
300030
300030
300070
180060
1C00C0
0E01C0
030300
00FC00
ENDCHAR
STARTCHAR 038E
ENCODING 910
SWIDTH 760 0
DWIDTH 19 0
BBX 20 17 -1 0
BITMAP
CFC1F0
C380E0
C180C0
C1C180
80C180
00E300
006600
003600
003C00
001800
001800
001800
001800
001800
001800
001800
007E00
ENDCHAR
STARTCHAR 038F
ENCODING 911
SWIDTH 800 0
DWIDTH 20 0
BBX 20 17 -1 0
BITMAP
C1FC00
C70700
CC0180
D800C0
980040
300060
300060
300060
300060
300060
1800C0
1800C0
4C0190
670730
618C30
3888E0
3F8FE0
ENDCHAR
STARTCHAR 0390
ENCODING 912
SWIDTH 320 0
DWIDTH 8 0
BBX 8 20 0 0
BITMAP
18
18
DB
DB
D3
00
00
00
18
78
18
18
18
18
18
18
18
18
18
0F
ENDCHAR
STARTCHAR 0391
ENCODING 913
SWIDTH 680 0
DWIDTH 17 0
BBX 17 17 -1 0
BITMAP
01C000
01C000
036000
036000
036000
063000
063000
063000
0C1800
0C1800
0FF800
180C00
180C00
180C00
300600
300600
FC1F80
ENDCHAR
STARTCHAR 0392
ENCODING 914
SWIDTH 760 0
DWIDTH 19 0
BBX 17 17 1 0
BITMAP
FFF800
300E00
300700
300300
300300
300300
300600
300E00
3FF800
300600
300300
300180
300180
300180
300300
300600
FFFC00
ENDCHAR
STARTCHAR 0393
ENCODING 915
SWIDTH 600 0
DWIDTH 15 0
BBX 15 17 0 0
BITMAP
FFFC
181C
1806
1806
1802
1800
1800
1800
1800
1800
1800
1800
1800
1800
1800
1800
FF00
ENDCHAR
STARTCHAR 0394
ENCODING 916
SWIDTH 600 0
DWIDTH 15 0
BBX 15 17 0 0
BITMAP
0380
0380
07C0
06C0
06C0
0C60
0C60
1C70
1830
1830
3018
3018
600C
600C
600C
C006
FFFE
ENDCHAR
STARTCHAR 0395
ENCODING 917
SWIDTH 680 0
DWIDTH 17 0
BBX 14 17 2 0
BITMAP
FFF0
3030
3010
3018
3008
3080
3080
3180
3F80
3180
3080
3084
3004
3008
3018
3038
FFF0
ENDCHAR
STARTCHAR 0396
ENCODING 918
SWIDTH 640 0
DWIDTH 16 0
BBX 15 17 1 0
BITMAP
3FFC
7818
6038
C030
0060
00C0
01C0
0180
0300
0600
0E00
0C02
1806
3004
700C
603C
FFF8
ENDCHAR
STARTCHAR 0397
ENCODING 919
SWIDTH 800 0
DWIDTH 20 0
BBX 16 17 2 0
BITMAP
FC3F
300C
300C
300C
300C
300C
300C
300C
3FFC
300C
300C
300C
300C
300C
300C
300C
FC3F
ENDCHAR
STARTCHAR 0398
ENCODING 920
SWIDTH 800 0
DWIDTH 20 0
BBX 18 17 1 0
BITMAP
03F000
0C0C00
380300
300100
641180
441080
C430C0
C7F0C0
C7F0C0
C610C0
C410C0
4411C0
600180
300300
380700
0C0C00
03F000
ENDCHAR
STARTCHAR 0399
ENCODING 921
SWIDTH 360 0
DWIDTH 9 0
BBX 6 17 1 0
BITMAP
FC
30
30
30
30
30
30
30
30
30
30
30
30
30
30
30
FC
ENDCHAR
STARTCHAR 039A
ENCODING 922
SWIDTH 720 0
DWIDTH 18 0
BBX 16 17 2 0
BITMAP
FC3E
3018
3010
3020
3040
3080
3100
3300
3780
3980
38C0
3060
3070
3030
3018
301C
FC7F
ENDCHAR
STARTCHAR 039B
ENCODING 923
SWIDTH 680 0
DWIDTH 17 0
BBX 16 17 0 0
BITMAP
0380
0380
06C0
06C0
06C0
0660
0C60
0C70
0C30
1830
1838
1818
1818
300C
300C
700E
F83F
ENDCHAR
STARTCHAR 039C
ENCODING 924
SWIDTH 920 0
DWIDTH 23 0
BBX 20 17 2 0
BITMAP
F803F0
3C03C0
3C03C0
3402C0
3606C0
3606C0
3304C0
330CC0
310CC0
3188C0
3088C0
30D8C0
30D0C0
3050C0
3070C0
3020C0
FC23F0
ENDCHAR
STARTCHAR 039D
ENCODING 925
SWIDTH 760 0
DWIDTH 19 0
BBX 17 17 1 0
BITMAP
F81F80
3C0600
3E0600
360600
330600
330600
318600
31C600
30C600
306600
307600
303600
303E00
301E00
300E00
300E00
FC0600
ENDCHAR
STARTCHAR 039E
ENCODING 926
SWIDTH 720 0
DWIDTH 18 0
BBX 17 17 1 0
BITMAP
3FFE00
300600
600200
600300
400100
080800
080800
0FF800
0C1800
080800
000000
000000
800080
C00180
600300
700700
7FFF00
ENDCHAR
STARTCHAR 039F
ENCODING 927
SWIDTH 800 0
DWIDTH 20 0
BBX 18 17 1 0
BITMAP
03F000
0C0C00
180300
300180
600180
6001C0
C000C0
C000C0
C000C0
C000C0
C000C0
C001C0
600180
700300
380700
0C0C00
03F000
ENDCHAR
STARTCHAR 03A0
ENCODING 928
SWIDTH 800 0
DWIDTH 20 0
BBX 20 17 0 0
BITMAP
FFFFF0
180180
180180
180180
180180
180180
180180
180180
180180
180180
180180
180180
180180
180180
180180
180180
FF0FF0
ENDCHAR
STARTCHAR 03A1
ENCODING 929
SWIDTH 640 0
DWIDTH 16 0
BBX 14 17 2 0
BITMAP
FFE0
3038
301C
300C
300C
300C
3018
3038
3FE0
3000
3000
3000
3000
3000
3000
3000
FC00
ENDCHAR
STARTCHAR 03A3
ENCODING 931
SWIDTH 640 0
DWIDTH 16 0
BBX 15 17 1 0
BITMAP
FFF0
6030
7018
3818
1808
0C00
0600
0300
0600
0600
0C00
1800
3002
3006
600E
FFFC
FFFC
ENDCHAR
STARTCHAR 03A4
ENCODING 932
SWIDTH 640 0
DWIDTH 16 0
BBX 16 18 0 0
BITMAP
2004
7FFC
718E
4182
C182
8181
0180
0180
0180
0180
0180
0180
0180
0180
0180
0180
0180
07E0
ENDCHAR
STARTCHAR 03A5
ENCODING 933
SWIDTH 640 0
DWIDTH 16 0
BBX 16 17 0 0
BITMAP
FC1F
380E
180C
1C18
0C18
0E30
0660
0360
03C0
0180
0180
0180
0180
0180
0180
0180
07E0
ENDCHAR
STARTCHAR 03A6
ENCODING 934
SWIDTH 800 0
DWIDTH 20 0
BBX 18 17 1 0
BITMAP
03F000
00C000
00C000
0FFC00
38C300
60C180
C0C0C0
C0C0C0
C0C0C0
C0C0C0
C0C0C0
60C180
38C300
0FFC00
00C000
00C000
03F000
ENDCHAR
STARTCHAR 03A7
ENCODING 935
SWIDTH 720 0
DWIDTH 18 0
BBX 18 17 0 0
BITMAP
7E0F80
180700
1C0600
0C0C00
061800
033000
03E000
01E000
00C000
01E000
037000
063800
0E1800
0C0C00
180600
300700
FC1FC0
ENDCHAR
STARTCHAR 03A8
ENCODING 936
SWIDTH 880 0
DWIDTH 22 0
BBX 20 17 1 0
BITMAP
F1F8F0
3060C0
3060C0
3060C0
3060C0
3060C0
3060C0
3060C0
186180
186380
07FE00
006000
006000
006000
006000
006000
01F800
ENDCHAR
STARTCHAR 03A9
ENCODING 937
SWIDTH 760 0
DWIDTH 19 0
BBX 19 17 0 0
BITMAP
03F800
0E0E00
180300
300180
300080
6000C0
6000C0
6000C0
6000C0
6000C0
300180
300180
980320
CE0E60
C31860
7111C0
7F1FC0
ENDCHAR
STARTCHAR 03AA
ENCODING 938
SWIDTH 360 0
DWIDTH 9 0
BBX 6 21 1 0
BITMAP
D8
D8
D8
00
FC
30
30
30
30
30
30
30
30
30
30
30
30
30
30
30
FC
ENDCHAR
STARTCHAR 03AB
ENCODING 939
SWIDTH 640 0
DWIDTH 16 0
BBX 16 21 0 0
BITMAP
06C0
06C0
06C0
0000
FC1F
380E
180C
1C18
0C18
0E30
0660
0360
03C0
0180
0180
0180
0180
0180
0180
0180
07E0
ENDCHAR
STARTCHAR 03AC
ENCODING 940
SWIDTH 640 0
DWIDTH 16 0
BBX 14 20 1 0
BITMAP
0600
0600
0600
0600
0400
0000
0000
0000
1F10
30F0
6070
6030
C030
C030
C030
C030
C030
6030
30F0
1F3C
ENDCHAR
STARTCHAR 03AD
ENCODING 941
SWIDTH 480 0
DWIDTH 12 0
BBX 11 20 1 0
BITMAP
0600
0600
0600
0600
0400
0000
0000
0000
3E00
6380
C180
C000
6000
1E00
6000
C000
C020
C040
6180
3F00
ENDCHAR
STARTCHAR 03AE
ENCODING 942
SWIDTH 640 0
DWIDTH 16 0
BBX 13 25 1 -5
BITMAP
0180
0180
0180
0180
0100
0000
0000
0000
31E0
FE30
3818
3018
3018
3018
3018
3018
3018
3018
3018
FC18
0018
0018
0018
0018
0018
ENDCHAR
STARTCHAR 03AF
ENCODING 943
SWIDTH 320 0
DWIDTH 8 0
BBX 7 20 1 0
BITMAP
30
30
30
30
20
00
00
00
30
F0
30
30
30
30
30
30
30
30
30
1E
ENDCHAR
STARTCHAR 03B0
ENCODING 944
SWIDTH 600 0
DWIDTH 15 0
BBX 12 20 1 0
BITMAP
0300
0300
1B60
1B60
1A60
0000
0000
0000
F0F0
3030
3030
3030
3030
3030
3030
3030
3030
3030
1860
0FC0
ENDCHAR
STARTCHAR 03B1
ENCODING 945
SWIDTH 640 0
DWIDTH 16 0
BBX 14 12 1 0
BITMAP
1F10
30F0
6070
6030
C030
C030
C030
C030
C030
6030
30F0
1F3C
ENDCHAR
STARTCHAR 03B2
ENCODING 946
SWIDTH 600 0
DWIDTH 15 0
BBX 12 23 2 -5
BITMAP
1F00
6180
40C0
C0C0
C0C0
C0C0
C080
C100
CF00
C0C0
C060
C030
C030
C030
C030
E060
F0E0
CF80
C000
C000
C000
C000
C000
ENDCHAR
STARTCHAR 03B3
ENCODING 947
SWIDTH 520 0
DWIDTH 13 0
BBX 13 17 0 -5
BITMAP
E038
3038
3038
1830
1830
0C60
0C60
0CC0
06C0
0780
0380
0300
0380
0380
0380
0380
0300
ENDCHAR
STARTCHAR 03B4
ENCODING 948
SWIDTH 560 0
DWIDTH 14 0
BBX 12 18 1 0
BITMAP
1F00
31C0
60C0
6000
6000
3000
0F00
30C0
6060
4020
C030
C030
C030
C030
C030
6060
30C0
1F80
ENDCHAR
STARTCHAR 03B5
ENCODING 949
SWIDTH 480 0
DWIDTH 12 0
BBX 11 12 1 0
BITMAP
3E00
6380
C180
C000
6000
1E00
6000
C000
C020
C040
6180
3F00
ENDCHAR
STARTCHAR 03B6
ENCODING 950
SWIDTH 400 0
DWIDTH 10 0
BBX 10 23 1 -5
BITMAP
C040
F180
7F00
0400
0C00
1800
1000
2000
6000
6000
C000
C000
C000
C000
E000
7800
1F00
0380
00C0
00C0
60C0
7180
3E00
ENDCHAR
STARTCHAR 03B7
ENCODING 951
SWIDTH 640 0
DWIDTH 16 0
BBX 13 17 1 -5
BITMAP
31E0
FE30
3818
3018
3018
3018
3018
3018
3018
3018
3018
FC18
0018
0018
0018
0018
0018
ENDCHAR
STARTCHAR 03B8
ENCODING 952
SWIDTH 560 0
DWIDTH 14 0
BBX 12 18 1 0
BITMAP
0F00
30C0
2040
6060
6060
C030
C030
C030
FFF0
C030
C030
C030
C030
4060
6060
6040
30C0
0F00
ENDCHAR
STARTCHAR 03B9
ENCODING 953
SWIDTH 320 0
DWIDTH 8 0
BBX 7 12 1 0
BITMAP
30
F0
30
30
30
30
30
30
30
30
30
1E
ENDCHAR
STARTCHAR 03BA
ENCODING 954
SWIDTH 640 0
DWIDTH 16 0
BBX 15 12 1 0
BITMAP
30FC
F070
30E0
3180
3700
3F00
3980
31C0
30E0
3070
3038
FC1E
ENDCHAR
STARTCHAR 03BB
ENCODING 955
SWIDTH 560 0
DWIDTH 14 0
BBX 13 18 0 0
BITMAP
0C00
3C00
0E00
0600
0600
0700
0700
0700
0D80
0D80
0D80
18C0
18C0
18C0
3060
3060
7070
F9F8
ENDCHAR
STARTCHAR 03BC
ENCODING 956
SWIDTH 680 0
DWIDTH 17 0
BBX 15 17 1 -5
BITMAP
F078
3018
3018
3018
3018
3018
3018
3018
3018
3038
38D8
3F1E
3000
3000
3000
3000
3000
ENDCHAR
STARTCHAR 03BD
ENCODING 957
SWIDTH 520 0
DWIDTH 13 0
BBX 12 12 0 0
BITMAP
F070
3070
3030
1830
1820
1C60
0C40
0CC0
06C0
0680
0380
0380
ENDCHAR
STARTCHAR 03BE
ENCODING 958
SWIDTH 440 0
DWIDTH 11 0
BBX 10 23 1 -5
BITMAP
1F80
31C0
60C0
6000
6000
3000
0E00
0FC0
30C0
6000
C000
C000
C000
E000
7000
3C00
0F00
03C0
00C0
00C0
60C0
7180
3E00
ENDCHAR
STARTCHAR 03BF
ENCODING 959
SWIDTH 560 0
DWIDTH 14 0
BBX 12 12 1 0
BITMAP
1F80
30C0
6060
C030
C030
C030
C030
C030
C030
6060
30C0
1F80
ENDCHAR
STARTCHAR 03C0
ENCODING 960
SWIDTH 680 0
DWIDTH 17 0
BBX 15 12 1 0
BITMAP
FFFE
3018
3018
3018
3018
3018
3018
3018
3018
3018
3018
FC0E
ENDCHAR
STARTCHAR 03C1
ENCODING 961
SWIDTH 560 0
DWIDTH 14 0
BBX 12 17 1 -5
BITMAP
1F80
30C0
6060
C030
C030
C030
C030
C030
C030
E060
F0C0
DF80
C000
C000
C000
C000
C000
ENDCHAR
STARTCHAR 03C2
ENCODING 962
SWIDTH 480 0
DWIDTH 12 0
BBX 11 17 1 -5
BITMAP
0F80
31C0
60E0
4060
C000
C000
C000
E000
7000
3C00
0F00
03C0
00C0
00C0
60C0
7180
3E00
ENDCHAR
STARTCHAR 03C3
ENCODING 963
SWIDTH 560 0
DWIDTH 14 0
BBX 13 12 1 0
BITMAP
1FF8
30C0
6060
C030
C030
C030
C030
C030
C020
6060
30C0
1F80
ENDCHAR
STARTCHAR 03C4
ENCODING 964
SWIDTH 400 0
DWIDTH 10 0
BBX 9 12 0 0
BITMAP
FF80
1800
1800
1800
1800
1800
1800
1800
1800
1800
1880
0F00
ENDCHAR
STARTCHAR 03C5
ENCODING 965
SWIDTH 600 0
DWIDTH 15 0
BBX 12 12 1 0
BITMAP
F0F0
3030
3030
3030
3030
3030
3030
3030
3030
3030
1860
0FC0
ENDCHAR
STARTCHAR 03C6
ENCODING 966
SWIDTH 680 0
DWIDTH 17 0
BBX 16 17 0 -5
BITMAP
0E78
38C6
6186
C183
C183
C183
C183
C183
C183
6186
318C
1FF0
0180
0180
0180
0180
0180
ENDCHAR
STARTCHAR 03C7
ENCODING 967
SWIDTH 600 0
DWIDTH 15 0
BBX 14 12 0 0
BITMAP
F07C
3830
1860
0CC0
0780
0300
0380
07C0
0CE0
1870
3038
F81C
ENDCHAR
STARTCHAR 03C8
ENCODING 968
SWIDTH 800 0
DWIDTH 20 0
BBX 16 17 1 -5
BITMAP
F0CF
30C3
30C3
30C3
30C3
30C3
30C3
30C3
30C3
10C6
18CE
07F8
00C0
00C0
00C0
00C0
00C0
ENDCHAR
STARTCHAR 03C9
ENCODING 969
SWIDTH 680 0
DWIDTH 17 0
BBX 16 12 0 0
BITMAP
0E70
300C
6006
C003
C003
C183
C183
C183
C183
6186
63C6
1E78
ENDCHAR
STARTCHAR 03CA
ENCODING 970
SWIDTH 320 0
DWIDTH 8 0
BBX 7 18 1 0
BITMAP
D8
D8
D8
00
00
00
30
F0
30
30
30
30
30
30
30
30
30
1E
ENDCHAR
STARTCHAR 03CB
ENCODING 971
SWIDTH 600 0
DWIDTH 15 0
BBX 12 18 1 0
BITMAP
0D80
0D80
0D80
0000
0000
0000
F0F0
3030
3030
3030
3030
3030
3030
3030
3030
3030
1860
0FC0
ENDCHAR
STARTCHAR 03CC
ENCODING 972
SWIDTH 560 0
DWIDTH 14 0
BBX 12 20 1 0
BITMAP
0600
0600
0600
0600
0400
0000
0000
0000
1F80
30C0
6060
C030
C030
C030
C030
C030
C030
6060
30C0
1F80
ENDCHAR
STARTCHAR 03CD
ENCODING 973
SWIDTH 600 0
DWIDTH 15 0
BBX 12 20 1 0
BITMAP
0300
0300
0300
0300
0200
0000
0000
0000
F0F0
3030
3030
3030
3030
3030
3030
3030
3030
3030
1860
0FC0
ENDCHAR
STARTCHAR 03CE
ENCODING 974
SWIDTH 680 0
DWIDTH 17 0
BBX 16 20 0 0
BITMAP
0180
0180
0180
0180
0100
0000
0000
0000
0E70
300C
6006
C003
C003
C183
C183
C183
C183
6186
63C6
1E78
ENDCHAR
STARTCHAR 0401
ENCODING 1025
SWIDTH 680 0
DWIDTH 17 0
BBX 14 21 2 0
BITMAP
0D80
0D80
0D80
0000
FFF0
3030
3010
3018
3008
3080
3080
3180
3F80
3180
3080
3084
3004
3008
3018
3038
FFF0
ENDCHAR
STARTCHAR 0402
ENCODING 1026
SWIDTH 760 0
DWIDTH 19 0
BBX 18 21 0 -3
BITMAP
200400
7FFE00
618600
C18300
818100
018000
019E00
01A300
01C180
0180C0
0180C0
0180C0
0180C0
0180C0
0180C0
0180C0
0180C0
0FF080
000180
002300
001E00
ENDCHAR
STARTCHAR 0403
ENCODING 1027
SWIDTH 600 0
DWIDTH 15 0
BBX 15 21 0 0
BITMAP
0030
00F0
0180
0000
FFFC
181C
1806
1806
1802
1800
1800
1800
1800
1800
1800
1800
1800
1800
1800
1800
FF00
ENDCHAR
STARTCHAR 0404
ENCODING 1028
SWIDTH 760 0
DWIDTH 19 0
BBX 17 17 1 0
BITMAP
03F200
0C1E00
180700
300300
600100
600000
C00000
C00000
FFE000
C00000
C00000
600000
600080
300100
380600
0C0C00
03F000
ENDCHAR
STARTCHAR 0405
ENCODING 1029
SWIDTH 680 0
DWIDTH 17 0
BBX 13 17 2 0
BITMAP
1F20
61E0
C060
C030
C030
E010
7000
3E00
0FC0
01F0
0038
8018
C018
C018
6030
5860
4FC0
ENDCHAR
STARTCHAR 0406
ENCODING 1030
SWIDTH 360 0
DWIDTH 9 0
BBX 6 17 1 0
BITMAP
FC
30
30
30
30
30
30
30
30
30
30
30
30
30
30
30
FC
ENDCHAR
STARTCHAR 0407
ENCODING 1031
SWIDTH 360 0
DWIDTH 9 0
BBX 6 21 1 0
BITMAP
D8
D8
D8
00
FC
30
30
30
30
30
30
30
30
30
30
30
30
30
30
30
FC
ENDCHAR
STARTCHAR 0408
ENCODING 1032
SWIDTH 600 0
DWIDTH 15 0
BBX 14 17 0 0
BITMAP
00FC
0030
0030
0030
0030
0030
0030
0030
0030
0030
C030
C030
C030
C030
4060
20C0
1F80
ENDCHAR
STARTCHAR 0409
ENCODING 1033
SWIDTH 880 0
DWIDTH 22 0
BBX 22 17 0 0
BITMAP
1FFC00
073000
033000
063000
063000
063000
0E3000
0C3FE0
0C3038
0C3018
18300C
18300C
18300C
30300C
303018
703030
F8FFE0
ENDCHAR
STARTCHAR 040A
ENCODING 1034
SWIDTH 960 0
DWIDTH 24 0
BBX 24 17 0 0
BITMAP
FF3FC0
180600
180600
180600
180600
180600
180600
1FFFF8
18060E
180606
180603
180603
180603
180603
180606
18060C
FF3FF8
ENDCHAR
STARTCHAR 040B
ENCODING 1035
SWIDTH 800 0
DWIDTH 20 0
BBX 21 18 0 0
BITMAP
200400
7FFE00
618600
C18300
818100
018000
019F00
01E180
01C0C0
0180C0
0180C0
0180C0
0180C0
0180C0
0180C0
0180C0
0180C0
0FF7F8
ENDCHAR
STARTCHAR 040C
ENCODING 1036
SWIDTH 720 0
DWIDTH 18 0
BBX 16 21 2 0
BITMAP
00C0
03C0
0600
0000
FC3E
3018
3010
3020
3040
3080
3100
3300
3780
3980
38C0
3060
3070
3030
3018
301C
FC7F
ENDCHAR
STARTCHAR 040E
ENCODING 1038
SWIDTH 680 0
DWIDTH 17 0
BBX 17 22 0 0
BITMAP
0C0C00
0C1C00
061800
03F000
000000
FC0F80
700600
300600
180C00
1C0C00
0C1800
061800
073000
033000
01F000
01E000
00E000
00C000
00C000
018000
318000
1E0000
ENDCHAR
STARTCHAR 040F
ENCODING 1039
SWIDTH 800 0
DWIDTH 20 0
BBX 20 21 0 -4
BITMAP
FF0FF0
180180
180180
180180
180180
180180
180180
180180
180180
180180
180180
180180
180180
180180
180180
180180
FFFFF0
00E000
004000
004000
004000
ENDCHAR
STARTCHAR 0410
ENCODING 1040
SWIDTH 680 0
DWIDTH 17 0
BBX 17 17 -1 0
BITMAP
01C000
01C000
036000
036000
036000
063000
063000
063000
0C1800
0C1800
0FF800
180C00
180C00
180C00
300600
300600
FC1F80
ENDCHAR
STARTCHAR 0411
ENCODING 1041
SWIDTH 760 0
DWIDTH 19 0
BBX 18 17 0 0
BITMAP
FFFF00
180700
180180
180180
180080
180000
180000
180000
1FFC00
180300
180180
1800C0
1800C0
1800C0
180180
180300
FFFC00
ENDCHAR
STARTCHAR 0412
ENCODING 1042
SWIDTH 760 0
DWIDTH 19 0
BBX 17 17 1 0
BITMAP
FFF800
300E00
300700
300300
300300
300300
300600
300E00
3FF800
300600
300300
300180
300180
300180
300300
300600
FFFC00
ENDCHAR
STARTCHAR 0413
ENCODING 1043
SWIDTH 600 0
DWIDTH 15 0
BBX 15 17 0 0
BITMAP
FFFC
181C
1806
1806
1802
1800
1800
1800
1800
1800
1800
1800
1800
1800
1800
1800
FF00
ENDCHAR
STARTCHAR 0414
ENCODING 1044
SWIDTH 760 0
DWIDTH 19 0
BBX 21 21 -1 -4
BITMAP
07FFE0
01C180
01C180
018180
018180
018180
030180
030180
030180
060180
060180
060180
060180
0C0180
0C0180
1C0180
7FFFF0
700070
C00018
C00018
800008
ENDCHAR
STARTCHAR 0415
ENCODING 1045
SWIDTH 680 0
DWIDTH 17 0
BBX 14 17 2 0
BITMAP
FFF0
3030
3010
3018
3008
3080
3080
3180
3F80
3180
3080
3084
3004
3008
3018
3038
FFF0
ENDCHAR
STARTCHAR 0416
ENCODING 1046
SWIDTH 1040 0
DWIDTH 26 0
BBX 26 17 0 0
BITMAP
7E3F1F80
1C0C0E00
0C0C0C00
060C1800
030C3000
018C6000
00CCC000
006D8000
00FFC000
019E6000
038C3000
070C3800
060C1800
0C0C0C00
180C0600
380C0700
FE3F1FC0
ENDCHAR
STARTCHAR 0417
ENCODING 1047
SWIDTH 680 0
DWIDTH 17 0
BBX 15 17 1 0
BITMAP
4FE0
7830
E018
C00C
800C
000C
0018
0038
07E0
001C
000C
0006
0006
8006
600C
3818
0FE0
ENDCHAR
STARTCHAR 0418
ENCODING 1048
SWIDTH 800 0
DWIDTH 20 0
BBX 20 17 0 0
BITMAP
FF0FF0
180180
180180
180380
180780
180D80
181980
183180
186180
18C180
198180
1B0180
1E0180
1C0180
180180
180180
FF0FF0
ENDCHAR
STARTCHAR 0419
ENCODING 1049
SWIDTH 800 0
DWIDTH 20 0
BBX 20 22 0 0
BITMAP
060600
060E00
030C00
01F800
000000
FF0FF0
180180
180180
180380
180780
180D80
181980
183180
186180
18C180
198180
1B0180
1E0180
1C0180
180180
180180
FF0FF0
ENDCHAR
STARTCHAR 041A
ENCODING 1050
SWIDTH 720 0
DWIDTH 18 0
BBX 16 17 2 0
BITMAP
FC3E
3018
3010
3020
3040
3080
3100
3300
3780
3980
38C0
3060
3070
3030
3018
301C
FC7F
ENDCHAR
STARTCHAR 041B
ENCODING 1051
SWIDTH 680 0
DWIDTH 17 0
BBX 16 17 0 0
BITMAP
0380
0380
06C0
06C0
06C0
0660
0C60
0C70
0C30
1830
1838
1818
1818
300C
300C
700E
F83F
ENDCHAR
STARTCHAR 041C
ENCODING 1052
SWIDTH 920 0
DWIDTH 23 0
BBX 20 17 2 0
BITMAP
F803F0
3C03C0
3C03C0
3402C0
3606C0
3606C0
3304C0
330CC0
310CC0
3188C0
3088C0
30D8C0
30D0C0
3050C0
3070C0
3020C0
FC23F0
ENDCHAR
STARTCHAR 041D
ENCODING 1053
SWIDTH 800 0
DWIDTH 20 0
BBX 16 17 2 0
BITMAP
FC3F
300C
300C
300C
300C
300C
300C
300C
3FFC
300C
300C
300C
300C
300C
300C
300C
FC3F
ENDCHAR
STARTCHAR 041E
ENCODING 1054
SWIDTH 800 0
DWIDTH 20 0
BBX 18 17 1 0
BITMAP
03F000
0C0C00
180300
300180
600180
6001C0
C000C0
C000C0
C000C0
C000C0
C000C0
C001C0
600180
700300
380700
0C0C00
03F000
ENDCHAR
STARTCHAR 041F
ENCODING 1055
SWIDTH 800 0
DWIDTH 20 0
BBX 20 17 0 0
BITMAP
FFFFF0
180180
180180
180180
180180
180180
180180
180180
180180
180180
180180
180180
180180
180180
180180
180180
FF0FF0
ENDCHAR
STARTCHAR 0420
ENCODING 1056
SWIDTH 640 0
DWIDTH 16 0
BBX 14 17 2 0
BITMAP
FFE0
3038
301C
300C
300C
300C
3018
3038
3FE0
3000
3000
3000
3000
3000
3000
3000
FC00
ENDCHAR
STARTCHAR 0421
ENCODING 1057
SWIDTH 760 0
DWIDTH 19 0
BBX 16 17 1 0
BITMAP
07E4
1C3C
300C
2004
6006
C002
C000
C000
C000
C000
C000
C000
6001
7002
3804
1C18
07E0
ENDCHAR
STARTCHAR 0422
ENCODING 1058
SWIDTH 640 0
DWIDTH 16 0
BBX 16 18 0 0
BITMAP
2004
7FFC
718E
4182
C182
8181
0180
0180
0180
0180
0180
0180
0180
0180
0180
0180
0180
07E0
ENDCHAR
STARTCHAR 0423
ENCODING 1059
SWIDTH 680 0
DWIDTH 17 0
BBX 17 17 0 0
BITMAP
FC0F80
700600
300600
180C00
1C0C00
0C1800
061800
073000
033000
01F000
01E000
00E000
00C000
00C000
018000
318000
1E0000
ENDCHAR
STARTCHAR 0424
ENCODING 1060
SWIDTH 800 0
DWIDTH 20 0
BBX 18 17 1 0
BITMAP
07F800
00C000
00C000
0FFC00
30C300
60C180
C0C0C0
C0C0C0
C0C0C0
C0C0C0
C0C0C0
60C180
30C300
0FFE00
00C000
00C000
07F800
ENDCHAR
STARTCHAR 0425
ENCODING 1061
SWIDTH 720 0
DWIDTH 18 0
BBX 18 17 0 0
BITMAP
7E0F80
180700
1C0600
0C0C00
061800
033000
03E000
01E000
00C000
01E000
037000
063800
0E1800
0C0C00
180600
300700
FC1FC0
ENDCHAR
STARTCHAR 0426
ENCODING 1062
SWIDTH 800 0
DWIDTH 20 0
BBX 21 21 0 -4
BITMAP
FF0FF0
180180
180180
180180
180180
180180
180180
180180
180180
180180
180180
180180
180180
180180
180180
180180
FFFFF0
000070
000018
000018
000008
ENDCHAR
STARTCHAR 0427
ENCODING 1063
SWIDTH 720 0
DWIDTH 18 0
BBX 19 17 -1 0
BITMAP
FF1FE0
180300
180300
180300
180300
180300
180300
180300
0E0300
03FF00
000300
000300
000300
000300
000300
000300
001FE0
ENDCHAR
STARTCHAR 0428
ENCODING 1064
SWIDTH 1080 0
DWIDTH 27 0
BBX 26 17 0 0
BITMAP
FF7FBFC0
180C0600
180C0600
180C0600
180C0600
180C0600
180C0600
180C0600
180C0600
180C0600
180C0600
180C0600
180C0600
180C0600
180C0600
180C0600
FFFFFFC0
ENDCHAR
STARTCHAR 0429
ENCODING 1065
SWIDTH 1080 0
DWIDTH 27 0
BBX 27 21 0 -4
BITMAP
FF7FBFC0
180C0600
180C0600
180C0600
180C0600
180C0600
180C0600
180C0600
180C0600
180C0600
180C0600
180C0600
180C0600
180C0600
180C0600
180C0600
FFFFFFC0
000001C0
00000060
00000060
00000020
ENDCHAR
STARTCHAR 042A
ENCODING 1066
SWIDTH 760 0
DWIDTH 19 0
BBX 19 18 0 0
BITMAP
200000
7FF000
618000
C18000
818000
018000
018000
018000
01FF00
0181C0
0180C0
018060
018060
018060
018060
0180C0
018180
0FFF00
ENDCHAR
STARTCHAR 042B
ENCODING 1067
SWIDTH 960 0
DWIDTH 24 0
BBX 23 17 0 0
BITMAP
FF007E
180018
180018
180018
180018
180018
180018
1FF818
180C18
180618
180318
180318
180318
180318
180618
180C18
FFF87E
ENDCHAR
STARTCHAR 042C
ENCODING 1068
SWIDTH 640 0
DWIDTH 16 0
BBX 16 17 0 0
BITMAP
FF00
1800
1800
1800
1800
1800
1800
1FF8
180C
1806
1803
1803
1803
1803
1806
180C
FFF8
ENDCHAR
STARTCHAR 042D
ENCODING 1069
SWIDTH 760 0
DWIDTH 19 0
BBX 17 17 1 0
BITMAP
27F000
3C1C00
700600
600300
400300
000180
000180
000180
03FF80
000180
000180
000380
800300
400300
300600
181C00
07F000
ENDCHAR
STARTCHAR 042E
ENCODING 1070
SWIDTH 1160 0
DWIDTH 29 0
BBX 28 17 0 0
BITMAP
FF00FC00
18030300
180600C0
180C0040
18180060
18100020
18300030
18300030
1FF00030
18300030
18300030
18300070
18180060
181C00C0
180E01C0
18030300
FF00FC00
ENDCHAR
STARTCHAR 042F
ENCODING 1071
SWIDTH 720 0
DWIDTH 18 0
BBX 16 17 0 0
BITMAP
0FFF
380C
700C
600C
600C
600C
300C
380C
0FFC
018C
030C
060C
0E0C
1C0C
180C
300C
E03F
ENDCHAR
STARTCHAR 0430
ENCODING 1072
SWIDTH 600 0
DWIDTH 15 0
BBX 14 12 1 0
BITMAP
1F80
30C0
6060
6060
0060
07E0
3C60
6060
C060
C0E0
E3E0
3E3C
ENDCHAR
STARTCHAR 0431
ENCODING 1073
SWIDTH 560 0
DWIDTH 14 0
BBX 12 18 1 0
BITMAP
0010
1FE0
3FC0
6000
4000
4000
9F80
B0C0
E060
C030
C030
C030
C030
C030
C030
6060
30C0
1F80
ENDCHAR
STARTCHAR 0432
ENCODING 1074
SWIDTH 600 0
DWIDTH 15 0
BBX 13 12 1 0
BITMAP
FFC0
3070
3030
3030
3060
3FC0
3030
3018
3018
3018
3030
FFE0
ENDCHAR
STARTCHAR 0433
ENCODING 1075
SWIDTH 480 0
DWIDTH 12 0
BBX 11 12 1 0
BITMAP
FF80
30C0
3040
3060
3020
3000
3000
3000
3000
3000
3000
FC00
ENDCHAR
STARTCHAR 0434
ENCODING 1076
SWIDTH 600 0
DWIDTH 15 0
BBX 16 16 -1 -4
BITMAP
0FFE
0318
0318
0318
0618
0618
0618
0C18
0C18
0C18
1C18
7FFE
700E
C003
C003
8001
ENDCHAR
STARTCHAR 0435
ENCODING 1077
SWIDTH 520 0
DWIDTH 13 0
BBX 11 12 1 0
BITMAP
1F00
30C0
6040
C060
FFE0
C000
C000
C000
C020
6060
30C0
1F00
ENDCHAR
STARTCHAR 0436
ENCODING 1078
SWIDTH 880 0
DWIDTH 22 0
BBX 22 12 0 0
BITMAP
FCFCFC
383070
1C30E0
063180
033300
03B700
07FF00
067980
0C30C0
183060
383070
FCFCFC
ENDCHAR
STARTCHAR 0437
ENCODING 1079
SWIDTH 480 0
DWIDTH 12 0
BBX 10 12 1 0
BITMAP
3F00
6380
4180
8180
0300
0F00
0180
00C0
80C0
40C0
2180
1F00
ENDCHAR
STARTCHAR 0438
ENCODING 1080
SWIDTH 640 0
DWIDTH 16 0
BBX 14 12 1 0
BITMAP
FCFC
3030
3030
3070
30F0
31B0
3330
3630
3830
3830
3030
FCFC
ENDCHAR
STARTCHAR 0439
ENCODING 1081
SWIDTH 640 0
DWIDTH 16 0
BBX 14 19 1 0
BITMAP
1860
1860
0CC0
0780
0000
0000
0000
FCFC
3030
3030
3070
30F0
31B0
3330
3630
3830
3830
3030
FCFC
ENDCHAR
STARTCHAR 043A
ENCODING 1082
SWIDTH 640 0
DWIDTH 16 0
BBX 15 12 1 0
BITMAP
FCFC
3070
30E0
3180
3700
3F00
3980
30C0
3060
3030
3018
FC7E
ENDCHAR
STARTCHAR 043B
ENCODING 1083
SWIDTH 520 0
DWIDTH 13 0
BBX 13 12 0 0
BITMAP
0700
0700
0D80
0D80
0D80
18C0
18C0
18C0
3060
3060
7070
F9F8
ENDCHAR
STARTCHAR 043C
ENCODING 1084
SWIDTH 760 0
DWIDTH 19 0
BBX 17 12 1 0
BITMAP
FC0F80
3C1E00
3C1E00
363600
363600
363600
336600
336600
336600
31C600
31C600
FDDF80
ENDCHAR
STARTCHAR 043D
ENCODING 1085
SWIDTH 640 0
DWIDTH 16 0
BBX 14 12 1 0
BITMAP
FCFC
3030
3030
3030
3030
3FF0
3030
3030
3030
3030
3030
FCFC
ENDCHAR
STARTCHAR 043E
ENCODING 1086
SWIDTH 560 0
DWIDTH 14 0
BBX 12 12 1 0
BITMAP
1F80
30C0
6060
C030
C030
C030
C030
C030
C030
6060
30C0
1F80
ENDCHAR
STARTCHAR 043F
ENCODING 1087
SWIDTH 640 0
DWIDTH 16 0
BBX 14 12 1 0
BITMAP
FFFC
3030
3030
3030
3030
3030
3030
3030
3030
3030
3030
FCFC
ENDCHAR
STARTCHAR 0440
ENCODING 1088
SWIDTH 640 0
DWIDTH 16 0
BBX 14 17 1 -5
BITMAP
33E0
F430
3818
300C
300C
300C
300C
300C
3008
3818
3430
33E0
3000
3000
3000
3000
FC00
ENDCHAR
STARTCHAR 0441
ENCODING 1089
SWIDTH 520 0
DWIDTH 13 0
BBX 11 12 1 0
BITMAP
0F80
30C0
60E0
C060
C000
C000
C000
C000
C020
6040
3080
1F00
ENDCHAR
STARTCHAR 0442
ENCODING 1090
SWIDTH 520 0
DWIDTH 13 0
BBX 14 13 -1 0
BITMAP
2010
7FF8
6318
C30C
8304
0300
0300
0300
0300
0300
0300
0300
0FC0
ENDCHAR
STARTCHAR 0443
ENCODING 1091
SWIDTH 560 0
DWIDTH 14 0
BBX 14 17 0 -5
BITMAP
FC7C
3010
3030
1820
1820
1C40
0C40
0E80
0680
0680
0300
0300
0200
0200
0400
C400
F800
ENDCHAR
STARTCHAR 0444
ENCODING 1092
SWIDTH 840 0
DWIDTH 21 0
BBX 20 23 0 -5
BITMAP
006000
01E000
006000
006000
006000
006000
1E6780
71F8E0
606060
C06030
C06030
C06030
C06030
C06030
C06030
606060
31F8C0
1F6F80
006000
006000
006000
006000
01F800
ENDCHAR
STARTCHAR 0445
ENCODING 1093
SWIDTH 560 0
DWIDTH 14 0
BBX 14 12 0 0
BITMAP
FCFC
3830
1860
0CC0
0780
0300
0780
0FC0
0CC0
1860
3030
F8FC
ENDCHAR
STARTCHAR 0446
ENCODING 1094
SWIDTH 680 0
DWIDTH 17 0
BBX 16 16 1 -4
BITMAP
FC7E
3018
3018
3018
3018
3018
3018
3018
3018
3018
3018
FFFE
000E
0003
0003
0001
ENDCHAR
STARTCHAR 0447
ENCODING 1095
SWIDTH 600 0
DWIDTH 15 0
BBX 14 12 0 0
BITMAP
FCFC
3030
3030
3030
3030
3830
1FF0
0030
0030
0030
0030
00FC
ENDCHAR
STARTCHAR 0448
ENCODING 1096
SWIDTH 960 0
DWIDTH 24 0
BBX 22 12 1 0
BITMAP
FCFCFC
303030
303030
303030
303030
303030
303030
303030
303030
303030
303030
FFFFFC
ENDCHAR
STARTCHAR 0449
ENCODING 1097
SWIDTH 920 0
DWIDTH 23 0
BBX 23 16 1 -4
BITMAP
FCFCFC
303030
303030
303030
303030
303030
303030
303030
303030
303030
303030
FFFFFC
00001C
000004
000006
000002
ENDCHAR
STARTCHAR 044A
ENCODING 1098
SWIDTH 600 0
DWIDTH 15 0
BBX 14 13 0 0
BITMAP
2000
7F80
6600
C600
8600
0600
07F0
0618
060C
060C
060C
0618
1FF0
ENDCHAR
STARTCHAR 044B
ENCODING 1099
SWIDTH 800 0
DWIDTH 20 0
BBX 19 12 0 0
BITMAP
FC07E0
300180
300180
300180
300180
3FC180
306180
303180
303180
303180
306180
FFC7E0
ENDCHAR
STARTCHAR 044C
ENCODING 1100
SWIDTH 520 0
DWIDTH 13 0
BBX 11 12 1 0
BITMAP
FC00
3000
3000
3000
3000
3F80
30C0
3060
3060
3060
30C0
FF80
ENDCHAR
STARTCHAR 044D
ENCODING 1101
SWIDTH 520 0
DWIDTH 13 0
BBX 11 12 1 0
BITMAP
3F00
6180
40C0
8060
0060
0FE0
0060
0060
8060
C0C0
6180
1F00
ENDCHAR
STARTCHAR 044E
ENCODING 1102
SWIDTH 840 0
DWIDTH 21 0
BBX 19 12 1 0
BITMAP
FC3F00
306180
30C0C0
318060
318060
3F8060
318060
318060
318060
30C0C0
306180
FC3F00
ENDCHAR
STARTCHAR 044F
ENCODING 1103
SWIDTH 600 0
DWIDTH 15 0
BBX 15 12 -1 0
BITMAP
0FFE
1818
3018
3018
3018
1818
0FF8
0718
0E18
1C18
3818
FC7E
ENDCHAR
STARTCHAR 0451
ENCODING 1105
SWIDTH 520 0
DWIDTH 13 0
BBX 11 18 1 0
BITMAP
0D80
0D80
0D80
0000
0000
0000
1F00
30C0
6040
C060
FFE0
C000
C000
C000
C020
6060
30C0
1F00
ENDCHAR
STARTCHAR 0452
ENCODING 1106
SWIDTH 600 0
DWIDTH 15 0
BBX 13 21 1 -3
BITMAP
3000
F000
3000
3000
FFE0
3000
33C0
3C60
3030
3018
3018
3018
3018
3018
3018
3018
3018
FC30
0030
0460
03C0
ENDCHAR
STARTCHAR 0453
ENCODING 1107
SWIDTH 480 0
DWIDTH 12 0
BBX 11 18 1 0
BITMAP
0600
1E00
3000
0000
0000
0000
FF80
30C0
3040
3060
3020
3000
3000
3000
3000
3000
3000
FC00
ENDCHAR
STARTCHAR 0454
ENCODING 1108
SWIDTH 520 0
DWIDTH 13 0
BBX 11 12 1 0
BITMAP
1F80
30C0
6040
C020
C000
FE00
C000
C000
C020
6040
30C0
1F00
ENDCHAR
STARTCHAR 0455
ENCODING 1109
SWIDTH 520 0
DWIDTH 13 0
BBX 10 12 2 0
BITMAP
3D00
6300
C180
E080
7800
3E00
0F80
81C0
C0C0
60C0
7180
5F00
ENDCHAR
STARTCHAR 0456
ENCODING 1110
SWIDTH 320 0
DWIDTH 8 0
BBX 6 18 1 0
BITMAP
30
30
30
00
00
00
30
F0
30
30
30
30
30
30
30
30
30
FC
ENDCHAR
STARTCHAR 0457
ENCODING 1111
SWIDTH 320 0
DWIDTH 8 0
BBX 6 18 1 0
BITMAP
D8
D8
D8
00
00
00
30
F0
30
30
30
30
30
30
30
30
30
FC
ENDCHAR
STARTCHAR 0458
ENCODING 1112
SWIDTH 320 0
DWIDTH 8 0
BBX 7 23 -2 -5
BITMAP
06
06
06
00
00
00
06
1E
06
06
06
06
06
06
06
06
06
06
06
06
06
C4
78
ENDCHAR
STARTCHAR 0459
ENCODING 1113
SWIDTH 720 0
DWIDTH 18 0
BBX 17 12 0 0
BITMAP
3FF000
0CC000
0CC000
18C000
18C000
18FE00
18C300
30C180
30C180
30C180
70C300
FBFE00
ENDCHAR
STARTCHAR 045A
ENCODING 1114
SWIDTH 840 0
DWIDTH 21 0
BBX 19 12 1 0
BITMAP
FCFC00
303000
303000
303000
303000
3FFF80
3030C0
303060
303060
303060
3030C0
FCFF80
ENDCHAR
STARTCHAR 045B
ENCODING 1115
SWIDTH 680 0
DWIDTH 17 0
BBX 15 18 1 0
BITMAP
3000
F000
3000
3000
FFC0
3000
33E0
3C30
3818
3018
3018
3018
3018
3018
3018
3018
3018
FC7E
ENDCHAR
STARTCHAR 045C
ENCODING 1116
SWIDTH 640 0
DWIDTH 16 0
BBX 15 18 1 0
BITMAP
00C0
03C0
0600
0000
0000
0000
FCFC
3070
30E0
3180
3700
3F00
3980
30C0
3060
3030
3018
FC7E
ENDCHAR
STARTCHAR 045E
ENCODING 1118
SWIDTH 560 0
DWIDTH 14 0
BBX 14 24 0 -5
BITMAP
3030
3030
1860
0FC0
0000
0000
0000
FC7C
7010
3020
3820
1860
1840
0C40
0C80
0680
0700
0300
0300
0200
0200
0400
C800
F000
ENDCHAR
STARTCHAR 045F
ENCODING 1119
SWIDTH 640 0
DWIDTH 16 0
BBX 14 15 1 -3
BITMAP
FCFC
3030
3030
3030
3030
3030
3030
3030
3030
3030
3030
FFFC
0700
0200
0200
ENDCHAR
STARTCHAR 0490
ENCODING 1168
SWIDTH 480 0
DWIDTH 12 0
BBX 11 21 1 0
BITMAP
0020
0060
0040
01C0
FF80
3000
3000
3000
3000
3000
3000
3000
3000
3000
3000
3000
3000
3000
3000
3000
FC00
ENDCHAR
STARTCHAR 0491
ENCODING 1169
SWIDTH 440 0
DWIDTH 11 0
BBX 10 16 1 0
BITMAP
0040
00C0
0080
0180
FF00
3000
3000
3000
3000
3000
3000
3000
3000
3000
3000
FC00
ENDCHAR
STARTCHAR 1E80
ENCODING 7808
SWIDTH 960 0
DWIDTH 24 0
BBX 23 21 0 0
BITMAP
006000
007800
000C00
000000
FCFC3E
30700C
303018
303018
183018
183830
183830
0C7830
0C6C60
0C6C60
046C60
06C6C0
06C6C0
028280
038380
038380
010100
ENDCHAR
STARTCHAR 1E81
ENCODING 7809
SWIDTH 800 0
DWIDTH 20 0
BBX 19 18 0 0
BITMAP
018000
01E000
003000
000000
000000
000000
F9F3E0
70E080
306080
306180
18F100
18B100
18B300
0D1A00
0D1A00
0D1A00
060C00
060C00
ENDCHAR
STARTCHAR 1E82
ENCODING 7810
SWIDTH 960 0
DWIDTH 24 0
BBX 23 21 0 0
BITMAP
000C00
003C00
006000
000000
FCFC3E
30700C
303018
303018
183018
183830
183830
0C7830
0C6C60
0C6C60
046C60
06C6C0
06C6C0
028280
038380
038380
010100
ENDCHAR
STARTCHAR 1E83
ENCODING 7811
SWIDTH 800 0
DWIDTH 20 0
BBX 19 18 0 0
BITMAP
003000
00F000
018000
000000
000000
000000
F9F3E0
70E080
306080
306180
18F100
18B100
18B300
0D1A00
0D1A00
0D1A00
060C00
060C00
ENDCHAR
STARTCHAR 1E84
ENCODING 7812
SWIDTH 960 0
DWIDTH 24 0
BBX 23 21 0 0
BITMAP
006C00
006C00
006C00
000000
FCFC3E
30700C
303018
303018
183018
183830
183830
0C7830
0C6C60
0C6C60
046C60
06C6C0
06C6C0
028280
038380
038380
010100
ENDCHAR
STARTCHAR 1E85
ENCODING 7813
SWIDTH 800 0
DWIDTH 20 0
BBX 19 18 0 0
BITMAP
01B000
01B000
01B000
000000
000000
000000
F9F3E0
70E080
306080
306180
18F100
18B100
18B300
0D1A00
0D1A00
0D1A00
060C00
060C00
ENDCHAR
STARTCHAR 1EF2
ENCODING 7922
SWIDTH 640 0
DWIDTH 16 0
BBX 16 21 0 0
BITMAP
0300
03C0
0060
0000
FC1F
380E
180C
1C18
0C18
0E30
0660
0360
03C0
0180
0180
0180
0180
0180
0180
0180
07E0
ENDCHAR
STARTCHAR 1EF3
ENCODING 7923
SWIDTH 560 0
DWIDTH 14 0
BBX 14 23 0 -5
BITMAP
0C00
0F00
0180
0000
0000
0000
FC7C
3010
3030
1820
1820
1C40
0C40
0E80
0680
0680
0300
0300
0200
0200
0400
C400
F800
ENDCHAR
STARTCHAR 2013
ENCODING 8211
SWIDTH 520 0
DWIDTH 13 0
BBX 13 2 0 6
BITMAP
FFF8
FFF8
ENDCHAR
STARTCHAR 2014
ENCODING 8212
SWIDTH 1000 0
DWIDTH 25 0
BBX 25 2 0 6
BITMAP
FFFFFF80
FFFFFF80
ENDCHAR
STARTCHAR 2015
ENCODING 8213
SWIDTH 760 0
DWIDTH 19 0
BBX 19 2 0 6
BITMAP
FFFFE0
FFFFE0
ENDCHAR
STARTCHAR 2017
ENCODING 8215
SWIDTH 520 0
DWIDTH 13 0
BBX 13 4 0 -5
BITMAP
FFF8
0000
0000
FFF8
ENDCHAR
STARTCHAR 2018
ENCODING 8216
SWIDTH 240 0
DWIDTH 6 0
BBX 4 7 2 11
BITMAP
10
20
40
80
E0
E0
60
ENDCHAR
STARTCHAR 2019
ENCODING 8217
SWIDTH 240 0
DWIDTH 6 0
BBX 4 7 2 11
BITMAP
60
70
70
10
20
40
80
ENDCHAR
STARTCHAR 201A
ENCODING 8218
SWIDTH 240 0
DWIDTH 6 0
BBX 4 7 2 -4
BITMAP
60
70
70
10
20
40
80
ENDCHAR
STARTCHAR 201B
ENCODING 8219
SWIDTH 240 0
DWIDTH 6 0
BBX 4 7 1 11
BITMAP
60
E0
E0
80
40
20
10
ENDCHAR
STARTCHAR 201C
ENCODING 8220
SWIDTH 400 0
DWIDTH 10 0
BBX 8 7 1 11
BITMAP
11
22
44
88
EE
EE
66
ENDCHAR
STARTCHAR 201D
ENCODING 8221
SWIDTH 400 0
DWIDTH 10 0
BBX 8 7 0 11
BITMAP
66
77
77
11
22
44
88
ENDCHAR
STARTCHAR 201E
ENCODING 8222
SWIDTH 400 0
DWIDTH 10 0
BBX 8 7 0 -4
BITMAP
66
77
77
11
22
44
88
ENDCHAR
STARTCHAR 2020
ENCODING 8224
SWIDTH 560 0
DWIDTH 14 0
BBX 9 21 2 -4
BITMAP
1C00
1C00
1C00
0C00
0800
EB80
FF80
0800
1C00
1C00
1C00
0800
0800
0800
0800
0800
0800
0800
0800
0800
0800
ENDCHAR
STARTCHAR 2021
ENCODING 8225
SWIDTH 560 0
DWIDTH 14 0
BBX 9 21 2 -4
BITMAP
1C00
1C00
1C00
0800
0800
FB80
EF80
0800
0800
1C00
1C00
0800
0800
FB80
FB80
0800
0800
1C00
1C00
1C00
1C00
ENDCHAR
STARTCHAR 2022
ENCODING 8226
SWIDTH 480 0
DWIDTH 12 0
BBX 7 7 2 5
BITMAP
38
7C
FE
FE
FE
7C
38
ENDCHAR
STARTCHAR 2026
ENCODING 8230
SWIDTH 1000 0
DWIDTH 25 0
BBX 16 3 3 0
BITMAP
C183
C183
C183
ENDCHAR
STARTCHAR 2030
ENCODING 8240
SWIDTH 1400 0
DWIDTH 35 0
BBX 33 17 1 0
BITMAP
3E00C00000
6301800000
C181800000
C183000000
C186000000
C18C000000
C18C000000
6318000000
3E31F03E00
0073186300
00660CC180
00C60CC180
01860CC180
01860CC180
03060CC180
0603186300
0E01F03E00
ENDCHAR
STARTCHAR 2032
ENCODING 8242
SWIDTH 240 0
DWIDTH 6 0
BBX 3 7 2 10
BITMAP
60
60
60
40
40
C0
80
ENDCHAR
STARTCHAR 2033
ENCODING 8243
SWIDTH 400 0
DWIDTH 10 0
BBX 7 7 2 10
BITMAP
66
66
66
44
44
CC
88
ENDCHAR
STARTCHAR 2039
ENCODING 8249
SWIDTH 240 0
DWIDTH 6 0
BBX 3 8 1 2
BITMAP
20
60
40
C0
C0
40
60
20
ENDCHAR
STARTCHAR 203A
ENCODING 8250
SWIDTH 240 0
DWIDTH 6 0
BBX 3 8 2 2
BITMAP
80
C0
40
60
60
40
C0
80
ENDCHAR
STARTCHAR 203C
ENCODING 8252
SWIDTH 560 0
DWIDTH 14 0
BBX 8 17 3 0
BITMAP
C3
C3
C3
C3
C3
C3
C3
41
41
41
41
41
41
00
C3
C3
C3
ENDCHAR
STARTCHAR 203E
ENCODING 8254
SWIDTH 640 0
DWIDTH 16 0
BBX 18 1 -1 22
BITMAP
FFFFC0
ENDCHAR
STARTCHAR 2044
ENCODING 8260
SWIDTH 160 0
DWIDTH 4 0
BBX 11 17 -4 0
BITMAP
0060
0060
00C0
0180
0180
0300
0300
0600
0E00
0C00
1800
1800
3000
3000
6000
C000
C000
ENDCHAR
STARTCHAR 207F
ENCODING 8319
SWIDTH 440 0
DWIDTH 11 0
BBX 10 8 1 6
BITMAP
6F00
F180
6180
6180
6180
6180
6180
F3C0
ENDCHAR
STARTCHAR 20A3
ENCODING 8355
SWIDTH 640 0
DWIDTH 16 0
BBX 15 17 1 0
BITMAP
FFFC
301C
300C
3006
3002
3020
3020
3060
3FE0
3060
3020
3020
3000
FE00
3000
3000
FC00
ENDCHAR
STARTCHAR 20A4
ENCODING 8356
SWIDTH 640 0
DWIDTH 16 0
BBX 16 17 0 0
BITMAP
03F0
060C
0C04
1802
1802
1800
FFC0
0C00
FFC0
0E00
0600
7601
CE01
8603
8786
CDFE
7878
ENDCHAR
STARTCHAR 20A7
ENCODING 8359
SWIDTH 1360 0
DWIDTH 34 0
BBX 32 17 1 0
BITMAP
FFE00000
30384000
30184000
300CC000
300DC000
300FFFF4
300CC30C
3018C306
3030C302
3FE0C1E0
3000C0F8
3000C03E
3000C007
3000C203
3000C303
3000E3C6
FC007D7C
ENDCHAR
STARTCHAR 20AC
ENCODING 8364
SWIDTH 640 0
DWIDTH 16 0
BBX 15 17 0 0
BITMAP
01F4
061C
0C04
1806
1802
3000
3000
FFF0
3000
FFF0
3000
3000
1800
1802
0C04
0618
01F0
ENDCHAR
STARTCHAR 2105
ENCODING 8453
SWIDTH 880 0
DWIDTH 22 0
BBX 20 17 1 0
BITMAP
3C0300
660600
C20C00
C00C00
C01800
C23000
643000
386000
00E000
00C3C0
018660
018C30
030C30
060C30
060C30
0C0660
1803C0
ENDCHAR
STARTCHAR 2113
ENCODING 8467
SWIDTH 480 0
DWIDTH 12 0
BBX 10 17 1 0
BITMAP
0E00
1900
3100
3100
3200
3200
3400
3800
3000
3000
7000
B000
3000
3040
3080
1980
0F00
ENDCHAR
STARTCHAR 2116
ENCODING 8470
SWIDTH 1080 0
DWIDTH 27 0
BBX 25 17 1 0
BITMAP
F83F0000
3C0C0000
3C0C0000
360C0000
370C0000
330C3E00
338C6300
318CC180
31CCC180
30CCC180
30ECC180
306CC180
303C6300
303C3E00
301C0000
301C0000
FC0CFF80
ENDCHAR
STARTCHAR 2122
ENCODING 8482
SWIDTH 1000 0
DWIDTH 25 0
BBX 24 10 0 7
BITMAP
FF1C07
990E0E
990E0E
180B0E
180B16
180996
1809E6
1808E6
1808C6
3C1E4F
ENDCHAR
STARTCHAR 2126
ENCODING 8486
SWIDTH 760 0
DWIDTH 19 0
BBX 17 17 1 0
BITMAP
07F000
1C1C00
300600
600300
600300
C00180
C00180
C00180
C00180
C00180
C00300
600300
300E00
983880
882180
F83F80
F83F80
ENDCHAR
STARTCHAR 212E
ENCODING 8494
SWIDTH 600 0
DWIDTH 15 0
BBX 13 14 1 0
BITMAP
0F80
3060
4010
4010
C018
C018
FFF8
C000
C000
C000
4010
4020
20C0
1F80
ENDCHAR
STARTCHAR 215B
ENCODING 8539
SWIDTH 920 0
DWIDTH 23 0
BBX 18 17 3 0
BITMAP
300C00
F00C00
301800
303000
303000
306000
306000
30C000
FDCF00
019980
031980
031F00
060F00
063BC0
0C30C0
1830C0
181F00
ENDCHAR
STARTCHAR 215C
ENCODING 8540
SWIDTH 920 0
DWIDTH 23 0
BBX 19 17 2 0
BITMAP
3E0600
470600
830C00
031800
1C1800
033000
C33000
C76000
3CE780
00CCC0
018CC0
018F80
030780
031DE0
061860
0C1860
0C0F80
ENDCHAR
STARTCHAR 215D
ENCODING 8541
SWIDTH 920 0
DWIDTH 23 0
BBX 19 17 2 0
BITMAP
7E0600
400600
400C00
7C1800
0E1800
063000
C63000
CE6000
78E780
00CCC0
018CC0
018F80
030780
031DE0
061860
0C1860
0C0F80
ENDCHAR
STARTCHAR 215E
ENCODING 8542
SWIDTH 920 0
DWIDTH 23 0
BBX 19 17 2 0
BITMAP
7F0C00
820C00
841800
0C3000
083000
186000
186000
30C000
31C780
018CC0
030CC0
030F80
060780
061DE0
0C1860
181860
180F80
ENDCHAR
STARTCHAR 2190
ENCODING 8592
SWIDTH 1000 0
DWIDTH 25 0
BBX 23 9 1 2
BITMAP
040000
080000
180000
700000
FFFFFE
700000
180000
080000
040000
ENDCHAR
STARTCHAR 2191
ENCODING 8593
SWIDTH 520 0
DWIDTH 13 0
BBX 9 23 2 -5
BITMAP
0800
1C00
1C00
3E00
6B00
8880
0800
0800
0800
0800
0800
0800
0800
0800
0800
0800
0800
0800
0800
0800
0800
0800
0800
ENDCHAR
STARTCHAR 2192
ENCODING 8594
SWIDTH 1000 0
DWIDTH 25 0
BBX 23 9 1 2
BITMAP
000040
000020
000030
00001C
FFFFFE
00001C
000030
000020
000040
ENDCHAR
STARTCHAR 2193
ENCODING 8595
SWIDTH 520 0
DWIDTH 13 0
BBX 9 23 2 -5
BITMAP
0800
0800
0800
0800
0800
0800
0800
0800
0800
0800
0800
0800
0800
0800
0800
0800
0800
8880
6B00
3E00
1C00
1C00
0800
ENDCHAR
STARTCHAR 2194
ENCODING 8596
SWIDTH 1000 0
DWIDTH 25 0
BBX 23 9 1 2
BITMAP
040040
080020
180030
70001C
FFFFFE
70001C
180030
080020
040040
ENDCHAR
STARTCHAR 2195
ENCODING 8597
SWIDTH 520 0
DWIDTH 13 0
BBX 9 23 2 -5
BITMAP
0800
1C00
1C00
3E00
6B00
8880
0800
0800
0800
0800
0800
0800
0800
0800
0800
0800
0800
8880
6B00
3E00
1C00
1C00
0800
ENDCHAR
STARTCHAR 21A8
ENCODING 8616
SWIDTH 520 0
DWIDTH 13 0
BBX 9 25 2 -7
BITMAP
0800
1C00
1C00
3E00
6B00
8880
0800
0800
0800
0800
0800
0800
0800
0800
0800
0800
0800
8880
6B00
3E00
1C00
1C00
0800
0000
FF80
ENDCHAR
STARTCHAR 2202
ENCODING 8706
SWIDTH 480 0
DWIDTH 12 0
BBX 11 17 1 0
BITMAP
0780
18C0
2040
2020
0020
0020
0F20
18A0
3060
6020
E040
C040
C040
C080
C100
6300
3C00
ENDCHAR
STARTCHAR 2206
ENCODING 8710
SWIDTH 600 0
DWIDTH 15 0
BBX 14 16 0 0
BITMAP
0080
0180
0180
02C0
02C0
04C0
0460
0860
0860
1030
1030
2030
2018
4018
4018
FFFC
ENDCHAR
STARTCHAR 220F
ENCODING 8719
SWIDTH 840 0
DWIDTH 21 0
BBX 19 22 1 -5
BITMAP
FFFFE0
300180
300180
300180
300180
300180
300180
300180
300180
300180
300180
300180
300180
300180
300180
300180
300180
300180
300180
300180
300180
FC07E0
ENDCHAR
STARTCHAR 2211
ENCODING 8721
SWIDTH 720 0
DWIDTH 18 0
BBX 17 22 1 -5
BITMAP
FFFF00
600300
300100
380100
1C0000
0C0000
060000
030000
018000
01C000
008000
010000
010000
020000
040000
080000
080000
100080
200180
200380
7FFF00
FFFF00
ENDCHAR
STARTCHAR 2212
ENCODING 8722
SWIDTH 600 0
DWIDTH 15 0
BBX 12 2 1 8
BITMAP
FFF0
FFF0
ENDCHAR
STARTCHAR 2215
ENCODING 8725
SWIDTH 160 0
DWIDTH 4 0
BBX 11 17 -4 0
BITMAP
0060
0060
00C0
0180
0180
0300
0300
0600
0E00
0C00
1800
1800
3000
3000
6000
C000
C000
ENDCHAR
STARTCHAR 2219
ENCODING 8729
SWIDTH 320 0
DWIDTH 8 0
BBX 2 3 3 7
BITMAP
C0
C0
C0
ENDCHAR
STARTCHAR 221A
ENCODING 8730
SWIDTH 560 0
DWIDTH 14 0
BBX 13 23 1 0
BITMAP
0008
0008
0008
0010
0010
0010
0010
0010
0010
0020
3020
F820
1820
1C20
0C40
0E40
0640
0340
03C0
01C0
01C0
0080
0080
ENDCHAR
STARTCHAR 221E
ENCODING 8734
SWIDTH 720 0
DWIDTH 18 0
BBX 17 10 0 2
BITMAP
3C3C00
42E300
82C100
81C080
818080
818080
838080
464100
3C2300
001C00
ENDCHAR
STARTCHAR 221F
ENCODING 8735
SWIDTH 960 0
DWIDTH 24 0
BBX 16 16 4 0
BITMAP
C000
C000
C000
C000
C000
C000
C000
C000
C000
C000
C000
C000
C000
C000
FFFF
FFFF
ENDCHAR
STARTCHAR 2229
ENCODING 8745
SWIDTH 720 0
DWIDTH 18 0
BBX 14 17 2 0
BITMAP
0FC0
1860
7030
6018
C00C
C00C
C00C
C00C
C00C
C00C
C00C
C00C
C00C
C00C
C00C
C00C
C00C
ENDCHAR
STARTCHAR 222B
ENCODING 8747
SWIDTH 280 0
DWIDTH 7 0
BBX 8 25 0 -1
BITMAP
06
0B
1B
18
18
18
18
18
18
18
18
18
18
18
18
18
18
18
18
18
18
18
18
D0
E0
ENDCHAR
STARTCHAR 2248
ENCODING 8776
SWIDTH 560 0
DWIDTH 14 0
BBX 12 8 1 4
BITMAP
3C30
43E0
C000
0000
0000
0030
7C20
C3C0
ENDCHAR
STARTCHAR 2260
ENCODING 8800
SWIDTH 560 0
DWIDTH 14 0
BBX 12 14 1 1
BITMAP
0030
0060
00C0
00C0
FFF0
FFF0
0300
0600
FFF0
FFF0
1800
3000
6000
6000
ENDCHAR
STARTCHAR 2261
ENCODING 8801
SWIDTH 600 0
DWIDTH 15 0
BBX 12 10 1 3
BITMAP
FFF0
FFF0
0000
0000
FFF0
FFF0
0000
0000
FFF0
FFF0
ENDCHAR
STARTCHAR 2264
ENCODING 8804
SWIDTH 560 0
DWIDTH 14 0
BBX 11 14 1 1
BITMAP
0020
01E0
0FC0
3E00
F800
C000
F800
3E00
0FC0
01E0
0020
0000
FFE0
FFE0
ENDCHAR
STARTCHAR 2265
ENCODING 8805
SWIDTH 560 0
DWIDTH 14 0
BBX 11 14 2 1
BITMAP
8000
F000
7E00
0F80
03E0
0060
03E0
0F80
7E00
F000
8000
0000
FFE0
FFE0
ENDCHAR
STARTCHAR 2302
ENCODING 8962
SWIDTH 600 0
DWIDTH 15 0
BBX 11 14 2 0
BITMAP
0400
0A00
1B00
3180
60C0
4040
8020
8020
8020
8020
8020
8020
8020
FFE0
ENDCHAR
STARTCHAR 2310
ENCODING 8976
SWIDTH 600 0
DWIDTH 15 0
BBX 11 9 2 0
BITMAP
FFE0
FFE0
8000
8000
8000
8000
8000
8000
8000
ENDCHAR
STARTCHAR 2320
ENCODING 8992
SWIDTH 600 0
DWIDTH 15 0
BBX 5 27 7 -6
BITMAP
78
98
80
80
80
80
80
80
80
80
80
80
80
80
80
80
80
80
80
80
80
80
80
80
80
80
80
ENDCHAR
STARTCHAR 2321
ENCODING 8993
SWIDTH 600 0
DWIDTH 15 0
BBX 5 27 3 -6
BITMAP
08
08
08
08
08
08
08
08
08
08
08
08
08
08
08
08
08
08
08
08
08
08
08
08
08
C8
F0
ENDCHAR
STARTCHAR 2500
ENCODING 9472
SWIDTH 720 0
DWIDTH 18 0
BBX 18 2 0 7
BITMAP
FFFFC0
FFFFC0
ENDCHAR
STARTCHAR 2502
ENCODING 9474
SWIDTH 640 0
DWIDTH 16 0
BBX 2 31 6 -8
BITMAP
C0
C0
C0
C0
C0
C0
C0
C0
C0
C0
C0
C0
C0
C0
C0
C0
C0
C0
C0
C0
C0
C0
C0
C0
C0
C0
C0
C0
C0
C0
C0
ENDCHAR
STARTCHAR 250C
ENCODING 9484
SWIDTH 720 0
DWIDTH 18 0
BBX 10 17 8 -8
BITMAP
FFC0
FFC0
C000
C000
C000
C000
C000
C000
C000
C000
C000
C000
C000
C000
C000
C000
C000
ENDCHAR
STARTCHAR 2510
ENCODING 9488
SWIDTH 720 0
DWIDTH 18 0
BBX 10 17 0 -8
BITMAP
FFC0
FFC0
00C0
00C0
00C0
00C0
00C0
00C0
00C0
00C0
00C0
00C0
00C0
00C0
00C0
00C0
00C0
ENDCHAR
STARTCHAR 2514
ENCODING 9492
SWIDTH 720 0
DWIDTH 18 0
BBX 10 16 8 7
BITMAP
C000
C000
C000
C000
C000
C000
C000
C000
C000
C000
C000
C000
C000
C000
FFC0
FFC0
ENDCHAR
STARTCHAR 2518
ENCODING 9496
SWIDTH 720 0
DWIDTH 18 0
BBX 10 16 0 7
BITMAP
00C0
00C0
00C0
00C0
00C0
00C0
00C0
00C0
00C0
00C0
00C0
00C0
00C0
00C0
FFC0
FFC0
ENDCHAR
STARTCHAR 251C
ENCODING 9500
SWIDTH 720 0
DWIDTH 18 0
BBX 10 31 8 -8
BITMAP
C000
C000
C000
C000
C000
C000
C000
C000
C000
C000
C000
C000
C000
C000
FFC0
FFC0
C000
C000
C000
C000
C000
C000
C000
C000
C000
C000
C000
C000
C000
C000
C000
ENDCHAR
STARTCHAR 2524
ENCODING 9508
SWIDTH 720 0
DWIDTH 18 0
BBX 10 31 0 -8
BITMAP
00C0
00C0
00C0
00C0
00C0
00C0
00C0
00C0
00C0
00C0
00C0
00C0
00C0
00C0
FFC0
FFC0
00C0
00C0
00C0
00C0
00C0
00C0
00C0
00C0
00C0
00C0
00C0
00C0
00C0
00C0
00C0
ENDCHAR
STARTCHAR 252C
ENCODING 9516
SWIDTH 720 0
DWIDTH 18 0
BBX 18 17 0 -8
BITMAP
FFFFC0
FFFFC0
00C000
00C000
00C000
00C000
00C000
00C000
00C000
00C000
00C000
00C000
00C000
00C000
00C000
00C000
00C000
ENDCHAR
STARTCHAR 2534
ENCODING 9524
SWIDTH 720 0
DWIDTH 18 0
BBX 18 16 0 7
BITMAP
00C000
00C000
00C000
00C000
00C000
00C000
00C000
00C000
00C000
00C000
00C000
00C000
00C000
00C000
FFFFC0
FFFFC0
ENDCHAR
STARTCHAR 253C
ENCODING 9532
SWIDTH 720 0
DWIDTH 18 0
BBX 18 31 0 -8
BITMAP
00C000
00C000
00C000
00C000
00C000
00C000
00C000
00C000
00C000
00C000
00C000
00C000
00C000
00C000
FFFFC0
FFFFC0
00C000
00C000
00C000
00C000
00C000
00C000
00C000
00C000
00C000
00C000
00C000
00C000
00C000
00C000
00C000
ENDCHAR
STARTCHAR 2550
ENCODING 9552
SWIDTH 720 0
DWIDTH 18 0
BBX 18 7 0 4
BITMAP
FFFFC0
FFFFC0
000000
000000
000000
FFFFC0
FFFFC0
ENDCHAR
STARTCHAR 2551
ENCODING 9553
SWIDTH 720 0
DWIDTH 18 0
BBX 7 31 5 -8
BITMAP
E6
E6
E6
E6
E6
E6
E6
E6
E6
E6
E6
E6
E6
E6
E6
E6
E6
E6
E6
E6
E6
E6
E6
E6
E6
E6
E6
E6
E6
E6
E6
ENDCHAR
STARTCHAR 2552
ENCODING 9554
SWIDTH 720 0
DWIDTH 18 0
BBX 10 19 8 -8
BITMAP
FFC0
FFC0
C000
C000
C000
FFC0
FFC0
C000
C000
C000
C000
C000
C000
C000
C000
C000
C000
C000
C000
ENDCHAR
STARTCHAR 2553
ENCODING 9555
SWIDTH 720 0
DWIDTH 18 0
BBX 13 17 5 -8
BITMAP
FFF8
FFF8
FE00
E600
E600
E600
E600
E600
E600
E600
E600
E600
E600
E600
E600
E600
E600
ENDCHAR
STARTCHAR 2554
ENCODING 9556
SWIDTH 720 0
DWIDTH 18 0
BBX 13 19 5 -8
BITMAP
FFF8
FFF8
E000
E000
E000
E7F8
E7F8
E600
E600
E600
E600
E600
E600
E600
E600
E600
E600
E600
E600
ENDCHAR
STARTCHAR 2555
ENCODING 9557
SWIDTH 720 0
DWIDTH 18 0
BBX 10 19 0 -8
BITMAP
FFC0
FFC0
00C0
00C0
00C0
FFC0
FFC0
00C0
00C0
00C0
00C0
00C0
00C0
00C0
00C0
00C0
00C0
00C0
00C0
ENDCHAR
STARTCHAR 2556
ENCODING 9558
SWIDTH 720 0
DWIDTH 18 0
BBX 12 17 0 -8
BITMAP
FFF0
FFF0
0730
0730
0730
0730
0730
0730
0730
0730
0730
0730
0730
0730
0730
0730
0730
ENDCHAR
STARTCHAR 2557
ENCODING 9559
SWIDTH 720 0
DWIDTH 18 0
BBX 12 19 0 -8
BITMAP
FFF0
FFF0
0030
0030
0030
FF30
FF30
0730
0730
0730
0730
0730
0730
0730
0730
0730
0730
0730
0730
ENDCHAR
STARTCHAR 2558
ENCODING 9560
SWIDTH 720 0
DWIDTH 18 0
BBX 10 19 8 4
BITMAP
C000
C000
C000
C000
C000
C000
C000
C000
C000
C000
C000
C000
FFC0
FFC0
C000
C000
C000
FFC0
FFC0
ENDCHAR
STARTCHAR 2559
ENCODING 9561
SWIDTH 720 0
DWIDTH 18 0
BBX 13 16 5 7
BITMAP
E600
E600
E600
E600
E600
E600
E600
E600
E600
E600
E600
E600
E600
E600
FFF8
FFF8
ENDCHAR
STARTCHAR 255A
ENCODING 9562
SWIDTH 720 0
DWIDTH 18 0
BBX 13 19 5 4
BITMAP
E600
E600
E600
E600
E600
E600
E600
E600
E600
E600
E600
E600
E7F8
E7F8
E000
E000
E000
FFF8
FFF8
ENDCHAR
STARTCHAR 255B
ENCODING 9563
SWIDTH 720 0
DWIDTH 18 0
BBX 10 19 0 4
BITMAP
00C0
00C0
00C0
00C0
00C0
00C0
00C0
00C0
00C0
00C0
00C0
00C0
FFC0
FFC0
00C0
00C0
00C0
FFC0
FFC0
ENDCHAR
STARTCHAR 255C
ENCODING 9564
SWIDTH 720 0
DWIDTH 18 0
BBX 12 16 0 7
BITMAP
0730
0730
0730
0730
0730
0730
0730
0730
0730
0730
0730
0730
0730
0730
FFF0
FFF0
ENDCHAR
STARTCHAR 255D
ENCODING 9565
SWIDTH 720 0
DWIDTH 18 0
BBX 12 19 0 4
BITMAP
0730
0730
0730
0730
0730
0730
0730
0730
0730
0730
0730
0730
FF30
FF30
0030
0030
0030
FFF0
FFF0
ENDCHAR
STARTCHAR 255E
ENCODING 9566
SWIDTH 720 0
DWIDTH 18 0
BBX 10 31 8 -8
BITMAP
C000
C000
C000
C000
C000
C000
C000
C000
C000
C000
C000
C000
FFC0
FFC0
C000
C000
C000
FFC0
FFC0
C000
C000
C000
C000
C000
C000
C000
C000
C000
C000
C000
C000
ENDCHAR
STARTCHAR 255F
ENCODING 9567
SWIDTH 720 0
DWIDTH 18 0
BBX 13 31 5 -8
BITMAP
E600
E600
E600
E600
E600
E600
E600
E600
E600
E600
E600
E600
E600
E600
E7F8
E7F8
E600
E600
E600
E600
E600
E600
E600
E600
E600
E600
E600
E600
E600
E600
E600
ENDCHAR
STARTCHAR 2560
ENCODING 9568
SWIDTH 720 0
DWIDTH 18 0
BBX 13 31 5 -8
BITMAP
E600
E600
E600
E600
E600
E600
E600
E600
E600
E600
E600
E600
E7F8
E7F8
E000
E000
E000
E7F8
E7F8
E600
E600
E600
E600
E600
E600
E600
E600
E600
E600
E600
E600
ENDCHAR
STARTCHAR 2561
ENCODING 9569
SWIDTH 720 0
DWIDTH 18 0
BBX 10 31 0 -8
BITMAP
00C0
00C0
00C0
00C0
00C0
00C0
00C0
00C0
00C0
00C0
00C0
00C0
FFC0
FFC0
00C0
00C0
00C0
FFC0
FFC0
00C0
00C0
00C0
00C0
00C0
00C0
00C0
00C0
00C0
00C0
00C0
00C0
ENDCHAR
STARTCHAR 2562
ENCODING 9570
SWIDTH 720 0
DWIDTH 18 0
BBX 12 31 0 -8
BITMAP
0730
0730
0730
0730
0730
0730
0730
0730
0730
0730
0730
0730
0730
0730
FF30
FF30
0730
0730
0730
0730
0730
0730
0730
0730
0730
0730
0730
0730
0730
0730
0730
ENDCHAR
STARTCHAR 2563
ENCODING 9571
SWIDTH 720 0
DWIDTH 18 0
BBX 12 31 0 -8
BITMAP
0730
0730
0730
0730
0730
0730
0730
0730
0730
0730
0730
0730
FF30
FF30
0030
0030
0030
FF30
FF30
0730
0730
0730
0730
0730
0730
0730
0730
0730
0730
0730
0730
ENDCHAR
STARTCHAR 2564
ENCODING 9572
SWIDTH 720 0
DWIDTH 18 0
BBX 18 19 0 -8
BITMAP
FFFFC0
FFFFC0
000000
000000
000000
FFFFC0
FFFFC0
00C000
00C000
00C000
00C000
00C000
00C000
00C000
00C000
00C000
00C000
00C000
00C000
ENDCHAR
STARTCHAR 2565
ENCODING 9573
SWIDTH 720 0
DWIDTH 18 0
BBX 18 17 0 -8
BITMAP
FFFFC0
FFFFC0
07F000
073000
073000
073000
073000
073000
073000
073000
073000
073000
073000
073000
073000
073000
073000
ENDCHAR
STARTCHAR 2566
ENCODING 9574
SWIDTH 720 0
DWIDTH 18 0
BBX 18 19 0 -8
BITMAP
FFFFC0
FFFFC0
000000
000000
000000
FF3FC0
FF3FC0
073000
073000
073000
073000
073000
073000
073000
073000
073000
073000
073000
073000
ENDCHAR
STARTCHAR 2567
ENCODING 9575
SWIDTH 720 0
DWIDTH 18 0
BBX 18 19 0 4
BITMAP
00C000
00C000
00C000
00C000
00C000
00C000
00C000
00C000
00C000
00C000
00C000
00C000
FFFFC0
FFFFC0
000000
000000
000000
FFFFC0
FFFFC0
ENDCHAR
STARTCHAR 2568
ENCODING 9576
SWIDTH 720 0
DWIDTH 18 0
BBX 18 16 0 7
BITMAP
073000
073000
073000
073000
073000
073000
073000
073000
073000
073000
073000
073000
073000
073000
FFFFC0
FFFFC0
ENDCHAR
STARTCHAR 2569
ENCODING 9577
SWIDTH 720 0
DWIDTH 18 0
BBX 18 19 0 4
BITMAP
073000
073000
073000
073000
073000
073000
073000
073000
073000
073000
073000
073000
FF3FC0
FF3FC0
000000
000000
000000
FFFFC0
FFFFC0
ENDCHAR
STARTCHAR 256A
ENCODING 9578
SWIDTH 720 0
DWIDTH 18 0
BBX 18 31 0 -8
BITMAP
00C000
00C000
00C000
00C000
00C000
00C000
00C000
00C000
00C000
00C000
00C000
00C000
FFFFC0
FFFFC0
00C000
00C000
00C000
FFFFC0
FFFFC0
00C000
00C000
00C000
00C000
00C000
00C000
00C000
00C000
00C000
00C000
00C000
00C000
ENDCHAR
STARTCHAR 256B
ENCODING 9579
SWIDTH 720 0
DWIDTH 18 0
BBX 18 31 0 -8
BITMAP
073000
073000
073000
073000
073000
073000
073000
073000
073000
073000
073000
073000
073000
073000
FFFFC0
FFFFC0
073000
073000
073000
073000
073000
073000
073000
073000
073000
073000
073000
073000
073000
073000
073000
ENDCHAR
STARTCHAR 256C
ENCODING 9580
SWIDTH 720 0
DWIDTH 18 0
BBX 18 31 0 -8
BITMAP
073000
073000
073000
073000
073000
073000
073000
073000
073000
073000
073000
073000
FF3FC0
FF3FC0
000000
000000
000000
FF3FC0
FF3FC0
073000
073000
073000
073000
073000
073000
073000
073000
073000
073000
073000
073000
ENDCHAR
STARTCHAR 2580
ENCODING 9600
SWIDTH 720 0
DWIDTH 18 0
BBX 18 15 0 8
BITMAP
FFFFC0
FFFFC0
FFFFC0
FFFFC0
FFFFC0
FFFFC0
FFFFC0
FFFFC0
FFFFC0
FFFFC0
FFFFC0
FFFFC0
FFFFC0
FFFFC0
FFFFC0
ENDCHAR
STARTCHAR 2584
ENCODING 9604
SWIDTH 720 0
DWIDTH 18 0
BBX 18 16 0 -8
BITMAP
FFFFC0
FFFFC0
FFFFC0
FFFFC0
FFFFC0
FFFFC0
FFFFC0
FFFFC0
FFFFC0
FFFFC0
FFFFC0
FFFFC0
FFFFC0
FFFFC0
FFFFC0
FFFFC0
ENDCHAR
STARTCHAR 2588
ENCODING 9608
SWIDTH 720 0
DWIDTH 18 0
BBX 18 31 0 -8
BITMAP
FFFFC0
FFFFC0
FFFFC0
FFFFC0
FFFFC0
FFFFC0
FFFFC0
FFFFC0
FFFFC0
FFFFC0
FFFFC0
FFFFC0
FFFFC0
FFFFC0
FFFFC0
FFFFC0
FFFFC0
FFFFC0
FFFFC0
FFFFC0
FFFFC0
FFFFC0
FFFFC0
FFFFC0
FFFFC0
FFFFC0
FFFFC0
FFFFC0
FFFFC0
FFFFC0
FFFFC0
ENDCHAR
STARTCHAR 258C
ENCODING 9612
SWIDTH 720 0
DWIDTH 18 0
BBX 9 31 0 -8
BITMAP
FF80
FF80
FF80
FF80
FF80
FF80
FF80
FF80
FF80
FF80
FF80
FF80
FF80
FF80
FF80
FF80
FF80
FF80
FF80
FF80
FF80
FF80
FF80
FF80
FF80
FF80
FF80
FF80
FF80
FF80
FF80
ENDCHAR
STARTCHAR 2590
ENCODING 9616
SWIDTH 720 0
DWIDTH 18 0
BBX 9 31 9 -8
BITMAP
FF80
FF80
FF80
FF80
FF80
FF80
FF80
FF80
FF80
FF80
FF80
FF80
FF80
FF80
FF80
FF80
FF80
FF80
FF80
FF80
FF80
FF80
FF80
FF80
FF80
FF80
FF80
FF80
FF80
FF80
FF80
ENDCHAR
STARTCHAR 2591
ENCODING 9617
SWIDTH 720 0
DWIDTH 18 0
BBX 17 29 1 -6
BITMAP
C30C00
C30C00
000000
186180
186180
000000
C30C00
C30C00
000000
186180
186180
000000
C30C00
C30C00
000000
186180
186180
000000
C30C00
C30C00
000000
000000
186180
000000
000000
C30C00
000000
000000
186180
ENDCHAR
STARTCHAR 2592
ENCODING 9618
SWIDTH 720 0
DWIDTH 18 0
BBX 18 29 0 -6
BITMAP
6DB6C0
6DB6C0
000000
924900
924900
000000
6DB6C0
6DB6C0
000000
924900
924900
000000
6DB6C0
6DB6C0
000000
924900
924900
000000
6DB6C0
6DB6C0
000000
000000
924900
000000
000000
6DB6C0
000000
000000
924900
ENDCHAR
STARTCHAR 2593
ENCODING 9619
SWIDTH 720 0
DWIDTH 18 0
BBX 18 31 0 -8
BITMAP
249240
249240
FFFFC0
DB6D80
DB6D80
FFFFC0
249240
249240
FFFFC0
DB6D80
DB6D80
FFFFC0
249240
249240
FFFFC0
DB6D80
DB6D80
FFFFC0
E49240
249240
FFFFC0
FFFFC0
DB6D80
FFFFC0
FFFFC0
249240
FFFFC0
FFFFC0
DB6D80
FFFFC0
FFFFC0
ENDCHAR
STARTCHAR 25A0
ENCODING 9632
SWIDTH 600 0
DWIDTH 15 0
BBX 11 12 2 0
BITMAP
FFE0
FFE0
FFE0
FFE0
FFE0
FFE0
FFE0
FFE0
FFE0
FFE0
FFE0
FFE0
ENDCHAR
STARTCHAR 25A1
ENCODING 9633
SWIDTH 600 0
DWIDTH 15 0
BBX 11 12 2 0
BITMAP
FFE0
8020
8020
8020
8020
8020
8020
8020
8020
8020
8020
FFE0
ENDCHAR
STARTCHAR 25AA
ENCODING 9642
SWIDTH 360 0
DWIDTH 9 0
BBX 6 6 2 5
BITMAP
FC
FC
FC
FC
FC
FC
ENDCHAR
STARTCHAR 25AB
ENCODING 9643
SWIDTH 360 0
DWIDTH 9 0
BBX 5 6 2 5
BITMAP
F8
88
88
88
88
F8
ENDCHAR
STARTCHAR 25AC
ENCODING 9644
SWIDTH 1000 0
DWIDTH 25 0
BBX 25 5 0 4
BITMAP
FFFFFF80
FFFFFF80
FFFFFF80
FFFFFF80
FFFFFF80
ENDCHAR
STARTCHAR 25B2
ENCODING 9650
SWIDTH 1000 0
DWIDTH 25 0
BBX 17 17 4 0
BITMAP
008000
018000
01C000
03C000
03E000
07E000
07F000
0FF000
0FF800
1FF800
1FFC00
3FFC00
3FFE00
7FFE00
7FFF00
FFFF00
FFFF80
ENDCHAR
STARTCHAR 25BA
ENCODING 9658
SWIDTH 1000 0
DWIDTH 25 0
BBX 17 17 4 0
BITMAP
800000
E00000
F80000
FE0000
FF8000
FFE000
FFF800
FFFE00
FFFF80
FFFE00
FFF800
FFE000
FF8000
FE0000
F80000
E00000
800000
ENDCHAR
STARTCHAR 25BC
ENCODING 9660
SWIDTH 1000 0
DWIDTH 25 0
BBX 17 17 4 0
BITMAP
FFFF80
FFFF00
7FFF00
7FFE00
3FFE00
3FFC00
1FFC00
1FF800
0FF800
0FF000
07F000
07E000
03E000
03C000
01C000
018000
008000
ENDCHAR
STARTCHAR 25C4
ENCODING 9668
SWIDTH 1000 0
DWIDTH 25 0
BBX 17 17 4 0
BITMAP
000080
000380
000F80
003F80
00FF80
03FF80
0FFF80
3FFF80
FFFF80
7FFF80
1FFF80
07FF80
01FF80
007F80
001F80
000780
000180
ENDCHAR
STARTCHAR 25CA
ENCODING 9674
SWIDTH 480 0
DWIDTH 12 0
BBX 11 17 0 0
BITMAP
0E00
1B00
1B00
3180
3180
60C0
60C0
E0E0
C060
E0E0
60C0
60C0
3180
3180
1B00
1B00
0E00
ENDCHAR
STARTCHAR 25CB
ENCODING 9675
SWIDTH 600 0
DWIDTH 15 0
BBX 11 10 2 2
BITMAP
3F00
60C0
4040
8020
8020
8020
8020
4040
60C0
1F00
ENDCHAR
STARTCHAR 25CF
ENCODING 9679
SWIDTH 600 0
DWIDTH 15 0
BBX 11 11 2 2
BITMAP
1F00
3F80
7FC0
FFE0
FFE0
FFE0
FFE0
FFE0
7FC0
3F80
1F00
ENDCHAR
STARTCHAR 25D8
ENCODING 9688
SWIDTH 600 0
DWIDTH 15 0
BBX 11 12 2 0
BITMAP
FFE0
FFE0
FFE0
FFE0
F1E0
E0E0
E0E0
F1E0
FFE0
FFE0
FFE0
FFE0
ENDCHAR
STARTCHAR 25D9
ENCODING 9689
SWIDTH 600 0
DWIDTH 15 0
BBX 15 14 0 0
BITMAP
FFFE
FFFE
F83E
E7CE
EFEE
DFF6
DFF6
DFF6
DFF6
EFEE
E7CE
F83E
FFFE
FFFE
ENDCHAR
STARTCHAR 25E6
ENCODING 9702
SWIDTH 360 0
DWIDTH 9 0
BBX 6 6 2 5
BITMAP
78
CC
84
84
CC
78
ENDCHAR
STARTCHAR 263A
ENCODING 9786
SWIDTH 1040 0
DWIDTH 26 0
BBX 16 15 5 -1
BITMAP
07E0
1830
300C
6004
4002
8C32
8C32
8003
8002
8002
C822
47C6
210C
1818
0FF0
ENDCHAR
STARTCHAR 263B
ENCODING 9787
SWIDTH 1040 0
DWIDTH 26 0
BBX 16 15 5 -1
BITMAP
07E0
1FF8
3FFC
3FFE
7FFE
73CF
F3CF
FFFF
FFFF
7FFF
7BCE
781E
3F7C
1FF8
0FF0
ENDCHAR
STARTCHAR 263C
ENCODING 9788
SWIDTH 920 0
DWIDTH 23 0
BBX 23 23 0 -3
BITMAP
001000
001000
001000
101010
083820
04C740
030180
020080
040040
040040
080020
F8003E
080020
040040
040040
020080
030180
04C640
083820
101010
001000
001000
001000
ENDCHAR
STARTCHAR 2640
ENCODING 9792
SWIDTH 560 0
DWIDTH 14 0
BBX 12 20 1 -3
BITMAP
1F80
6040
4020
8020
8010
8010
8010
8020
4020
2040
1F80
0400
0400
0400
0400
0400
7FC0
0400
0400
0400
ENDCHAR
STARTCHAR 2642
ENCODING 9794
SWIDTH 680 0
DWIDTH 17 0
BBX 15 21 1 -4
BITMAP
0008
0018
0078
0398
002C
0024
0044
0042
0080
0080
0F00
30C0
4040
8020
8030
8030
8030
8030
4060
20C0
1F80
ENDCHAR
STARTCHAR 2660
ENCODING 9824
SWIDTH 520 0
DWIDTH 13 0
BBX 12 15 1 0
BITMAP
0400
0400
0600
0F00
1F80
3FC0
7FE0
FFE0
FFF0
FBF0
FDE0
24C0
0400
0E00
7FC0
ENDCHAR
STARTCHAR 2663
ENCODING 9827
SWIDTH 680 0
DWIDTH 17 0
BBX 15 15 1 0
BITMAP
0780
0FC0
0FE0
0FE0
0FC0
7FF8
FFFC
FFFE
FFFE
FEFE
7D7C
3130
0300
0780
1FF0
ENDCHAR
STARTCHAR 2665
ENCODING 9829
SWIDTH 600 0
DWIDTH 15 0
BBX 13 15 1 0
BITMAP
78F0
FDF8
FDF8
FFF8
FFF8
FFF0
7FF0
3FE0
3FC0
1FC0
0F80
0700
0700
0200
0200
ENDCHAR
STARTCHAR 2666
ENCODING 9830
SWIDTH 520 0
DWIDTH 13 0
BBX 11 15 1 0
BITMAP
0400
0C00
0E00
1F00
3F00
7F80
7FC0
FFE0
FFC0
7F80
3F80
1F00
0E00
0C00
0400
ENDCHAR
STARTCHAR 266A
ENCODING 9834
SWIDTH 760 0
DWIDTH 19 0
BBX 19 25 0 -6
BITMAP
001000
001C00
001E00
001F00
001380
0011C0
0010E0
001060
001000
001000
001000
001000
001000
001000
001000
001000
0FD000
3FF000
7FF000
7FF000
FFF000
FFF000
7FE000
3FC000
0E0000
ENDCHAR
STARTCHAR 266B
ENCODING 9835
SWIDTH 1000 0
DWIDTH 25 0
BBX 18 23 4 -5
BITMAP
0001C0
000FC0
007FC0
03FFC0
03FEC0
03E0C0
0300C0
0300C0
0300C0
0300C0
0300C0
0300C0
0300C0
0300C0
031FC0
033FC0
033FC0
7F3F80
FF3F80
FF3F00
FE0000
FE0000
7C0000
ENDCHAR
STARTCHAR F000
ENCODING 61440
SWIDTH 760 0
DWIDTH 19 0
BBX 1 1 0 0
BITMAP
00
ENDCHAR
STARTCHAR F001
ENCODING 61441
SWIDTH 640 0
DWIDTH 16 0
BBX 14 18 1 0
BITMAP
07C0
18E0
3060
3000
3000
3010
FFF0
3030
3030
3030
3030
3030
3030
3030
3030
3030
3030
FCFC
ENDCHAR
STARTCHAR F002
ENCODING 61442
SWIDTH 640 0
DWIDTH 16 0
BBX 14 18 1 0
BITMAP
07F0
18F0
3030
3030
3030
3030
FFF0
3030
3030
3030
3030
3030
3030
3030
3030
3030
3030
FCFC
ENDCHAR
STARTCHAR F003
ENCODING 61443
SWIDTH 360 0
DWIDTH 9 0
BBX 9 9 0 8
BITMAP
0600
0E00
1600
2600
4600
FF80
0600
0600
0600
ENDCHAR
STARTCHAR F004
ENCODING 61444
SWIDTH 320 0
DWIDTH 8 0
BBX 3 7 2 -8
BITMAP
C0
E0
20
20
40
40
80
ENDCHAR
STARTCHAR F005
ENCODING 61445
SWIDTH 320 0
DWIDTH 8 0
BBX 4 4 2 -5
BITMAP
E0
10
90
60
ENDCHAR
STARTCHAR F006
ENCODING 61446
SWIDTH 560 0
DWIDTH 14 0
BBX 12 12 1 0
BITMAP
3FF0
D980
9980
1980
1980
1980
1980
3180
3180
7180
7190
60E0
ENDCHAR
STARTCHAR F007
ENCODING 61447
SWIDTH 360 0
DWIDTH 9 0
BBX 7 9 1 8
BITMAP
7E
40
40
7C
0E
06
C6
CE
78
ENDCHAR
STARTCHAR F008
ENCODING 61448
SWIDTH 360 0
DWIDTH 9 0
BBX 8 9 1 8
BITMAP
7F
82
84
0C
08
18
18
30
30
ENDCHAR
STARTCHAR F009
ENCODING 61449
SWIDTH 360 0
DWIDTH 9 0
BBX 8 9 0 8
BITMAP
3C
66
66
7C
3C
EF
C3
C3
7C
ENDCHAR
STARTCHAR F100
ENCODING 61696
SWIDTH 640 0
DWIDTH 16 0
BBX 14 17 1 0
BITMAP
FFFC
380C
1804
1804
1800
1800
1800
1800
1800
1800
1800
1800
1800
1800
1800
3C00
FF00
ENDCHAR
STARTCHAR F101
ENCODING 61697
SWIDTH 760 0
DWIDTH 19 0
BBX 17 17 1 0
BITMAP
03E000
0C1800
300600
200200
600300
441100
C41180
C7F180
C7F180
C41180
C41180
400100
600300
200200
100600
0C1800
03E000
ENDCHAR
STARTCHAR F102
ENCODING 61698
SWIDTH 760 0
DWIDTH 19 0
BBX 17 17 1 0
BITMAP
07E000
018000
0FF000
398C00
618200
618300
C18180
C18180
C18180
C18180
C18180
618300
618200
398C00
0FF000
018000
07E000
ENDCHAR
STARTCHAR F103
ENCODING 61699
SWIDTH 520 0
DWIDTH 13 0
BBX 12 12 1 0
BITMAP
1C60
62C0
62C0
C1C0
C1C0
C1C0
C180
C180
C180
4390
6790
3C60
ENDCHAR
STARTCHAR F104
ENCODING 61700
SWIDTH 480 0
DWIDTH 12 0
BBX 10 17 1 0
BITMAP
3E00
4380
4180
6000
3000
0800
0600
3B00
6180
41C0
C0C0
C0C0
C0C0
C0C0
E180
7100
3E00
ENDCHAR
STARTCHAR F105
ENCODING 61701
SWIDTH 440 0
DWIDTH 11 0
BBX 9 12 1 0
BITMAP
1F00
3380
6180
6000
2000
1E00
6000
C000
C180
C180
6300
3E00
ENDCHAR
STARTCHAR F106
ENCODING 61702
SWIDTH 600 0
DWIDTH 15 0
BBX 13 12 1 0
BITMAP
1FF8
3FF8
7100
E080
C0C0
C060
C060
C060
6060
60C0
31C0
0F00
ENDCHAR
STARTCHAR F107
ENCODING 61703
SWIDTH 440 0
DWIDTH 11 0
BBX 10 12 0 0
BITMAP
3F80
7F80
CC00
8C00
0C00
0C00
0C00
0C00
0C00
0C00
0E40
0780
ENDCHAR
STARTCHAR F108
ENCODING 61704
SWIDTH 560 0
DWIDTH 14 0
BBX 12 17 1 -5
BITMAP
3380
6660
6660
C630
C630
C630
C630
C630
C620
6660
36C0
1F80
0600
0600
0600
0600
0600
ENDCHAR
STARTCHAR FB01
ENCODING 64257
SWIDTH 640 0
DWIDTH 16 0
BBX 14 18 1 0
BITMAP
07C0
18E0
3060
3000
3000
3010
FFF0
3030
3030
3030
3030
3030
3030
3030
3030
3030
3030
FCFC
ENDCHAR
STARTCHAR FB02
ENCODING 64258
SWIDTH 640 0
DWIDTH 16 0
BBX 14 18 1 0
BITMAP
07F0
18F0
3030
3030
3030
3030
FFF0
3030
3030
3030
3030
3030
3030
3030
3030
3030
3030
FCFC
ENDCHAR
ENDFONT
